STARTFONT 2.1
COMMENT
COMMENT Converted from OpenType font "Catrinity-Regular.otf" by "otf2bdf 3.0".
COMMENT
FONT -FreeType-Catrinity-Medium-R-Normal--44-320-100-100-P-220-ISO10646-1
SIZE 32 100 100
FONTBOUNDINGBOX 101 58 -26 -17
STARTPROPERTIES 19
FOUNDRY "FreeType"
FAMILY_NAME "Catrinity"
WEIGHT_NAME "Medium"
SLANT "R"
SETWIDTH_NAME "Normal"
ADD_STYLE_NAME ""
PIXEL_SIZE 44
POINT_SIZE 320
RESOLUTION_X 100
RESOLUTION_Y 100
SPACING "P"
AVERAGE_WIDTH 220
CHARSET_REGISTRY "ISO10646"
CHARSET_ENCODING "1"
FONT_ASCENT 36
FONT_DESCENT 17
COPYRIGHT "Typeface © Alexander Lange. 2023. All Rights Reserved"
_OTF_FONTFILE "Catrinity-Regular.otf"
_OTF_PSNAME "Catrinity"
ENDPROPERTIES
CHARS 9984
STARTCHAR 0000
ENCODING 0
SWIDTH 0 0
DWIDTH 0 0
BBX 0 0 0 0
BITMAP
ENDCHAR
STARTCHAR 0008
ENCODING 8
SWIDTH 0 0
DWIDTH 0 0
BBX 0 0 0 0
BITMAP
ENDCHAR
STARTCHAR 0009
ENCODING 9
SWIDTH 247 0
DWIDTH 11 0
BBX 0 0 0 0
BITMAP
ENDCHAR
STARTCHAR 000D
ENCODING 13
SWIDTH 247 0
DWIDTH 11 0
BBX 0 0 0 0
BITMAP
ENDCHAR
STARTCHAR 001D
ENCODING 29
SWIDTH 0 0
DWIDTH 0 0
BBX 0 0 0 0
BITMAP
ENDCHAR
STARTCHAR 0020
ENCODING 32
SWIDTH 247 0
DWIDTH 11 0
BBX 0 0 0 0
BITMAP
ENDCHAR
STARTCHAR 0021
ENCODING 33
SWIDTH 157 0
DWIDTH 7 0
BBX 4 29 2 0
BITMAP
E0
E0
E0
E0
E0
E0
E0
E0
E0
E0
E0
E0
E0
E0
E0
E0
E0
E0
E0
E0
00
00
00
00
00
F0
F0
F0
F0
ENDCHAR
STARTCHAR 0022
ENCODING 34
SWIDTH 292 0
DWIDTH 13 0
BBX 9 9 2 20
BITMAP
E380
E380
E380
E380
E380
E380
E380
E380
E380
ENDCHAR
STARTCHAR 0023
ENCODING 35
SWIDTH 697 0
DWIDTH 31 0
BBX 28 29 2 0
BITMAP
00780E00
00700E00
00700E00
00700E00
00701E00
00F01E00
00F01C00
00E01C00
3FFFFFF0
3FFFFFE0
3FFFFFE0
3FFFFFE0
01C03800
01C03800
01C03800
01C07800
03C07800
03C07000
7FFFFFC0
FFFFFFC0
FFFFFF80
0380F000
0780F000
0780E000
0700E000
0700E000
0700E000
0701E000
0F01E000
ENDCHAR
STARTCHAR 0024
ENCODING 36
SWIDTH 472 0
DWIDTH 21 0
BBX 18 37 2 -4
BITMAP
01C000
01C000
01C000
01C000
03F000
0FF800
1FFE00
3FFE00
3DCF00
79C700
79C700
79C700
79C000
79C000
3DC000
3FC000
1FC000
0FE000
03F800
01FE00
01FF00
01CF00
01C780
01C380
01C380
E1C3C0
F1C380
71C380
79C780
3DCF00
3FFF00
1FFE00
07F800
01C000
01C000
01C000
01C000
ENDCHAR
STARTCHAR 0025
ENCODING 37
SWIDTH 630 0
DWIDTH 28 0
BBX 24 29 2 0
BITMAP
0F800F
3FC01E
7FE01E
78F03C
F07078
E07078
E070F0
F071E0
78F1E0
7FE3C0
3FC780
0F8F00
000F00
001E00
003C00
003C00
007800
00F060
00F3FC
01E7FE
03C7FF
078F0F
078E07
0F0E07
1E0F07
1E0F0F
3C07FE
7803FE
7801F8
ENDCHAR
STARTCHAR 0026
ENCODING 38
SWIDTH 540 0
DWIDTH 24 0
BBX 21 29 2 0
BITMAP
03F000
0FF800
1FFE00
3E3E00
3C0F00
780400
780000
780000
780380
780380
3C0380
3E0380
1FFFF8
0FFFF8
1FFFF8
3F0380
7C0380
700380
F00380
F00380
E00380
E00380
F00380
700780
780F80
3C1F80
3FFFF0
1FFFF0
07F1F0
ENDCHAR
STARTCHAR 0027
ENCODING 39
SWIDTH 157 0
DWIDTH 7 0
BBX 3 9 2 20
BITMAP
E0
E0
E0
E0
E0
E0
E0
E0
E0
ENDCHAR
STARTCHAR 0028
ENCODING 40
SWIDTH 292 0
DWIDTH 13 0
BBX 9 38 2 -9
BITMAP
0780
0700
0F00
1E00
1E00
1C00
3C00
3800
3800
7800
7000
7000
7000
F000
F000
F000
E000
E000
E000
E000
F000
E000
F000
F000
7000
7000
7000
7000
7800
3800
3800
3C00
1C00
1E00
1E00
0F00
0700
0780
ENDCHAR
STARTCHAR 0029
ENCODING 41
SWIDTH 292 0
DWIDTH 13 0
BBX 9 38 2 -9
BITMAP
F000
7000
7800
3C00
3C00
1C00
1E00
0E00
0E00
0F00
0700
0700
0700
0700
0780
0780
0380
0380
0380
0380
0380
0780
0780
0780
0780
0700
0700
0700
0F00
0E00
0E00
1E00
1C00
3C00
3C00
7800
7000
F000
ENDCHAR
STARTCHAR 002A
ENCODING 42
SWIDTH 427 0
DWIDTH 19 0
BBX 14 15 3 14
BITMAP
0700
0700
0700
C318
F33C
FB7C
3FE0
0780
1FC0
7BF8
F37C
E318
4308
0700
0700
ENDCHAR
STARTCHAR 002B
ENCODING 43
SWIDTH 517 0
DWIDTH 23 0
BBX 20 19 2 5
BITMAP
00F000
00F000
00F000
00F000
00F000
00F000
00F000
00F000
FFFFF0
FFFFF0
FFFFF0
00F000
00F000
00F000
00F000
00F000
00F000
00F000
00F000
ENDCHAR
STARTCHAR 002C
ENCODING 44
SWIDTH 202 0
DWIDTH 9 0
BBX 6 11 2 -7
BITMAP
70
F8
FC
FC
0C
0C
0C
18
10
20
C0
ENDCHAR
STARTCHAR 002D
ENCODING 45
SWIDTH 337 0
DWIDTH 15 0
BBX 11 4 2 8
BITMAP
FFE0
FFE0
FFE0
FFE0
ENDCHAR
STARTCHAR 002E
ENCODING 46
SWIDTH 202 0
DWIDTH 9 0
BBX 5 4 2 0
BITMAP
70
F8
F8
70
ENDCHAR
STARTCHAR 002F
ENCODING 47
SWIDTH 405 0
DWIDTH 18 0
BBX 14 29 2 0
BITMAP
001C
003C
0038
0078
0078
0070
00F0
00E0
00E0
01E0
01C0
01C0
03C0
0380
0780
0780
0700
0F00
0E00
0E00
1E00
1C00
1C00
3C00
3800
7800
7800
7000
F000
ENDCHAR
STARTCHAR 0030
ENCODING 48
SWIDTH 472 0
DWIDTH 21 0
BBX 18 29 2 0
BITMAP
03E000
07F800
0FFC00
1F3C00
1C1E00
3C0F00
380700
780700
700780
700380
F00380
F00380
F00380
E00380
E003C0
E003C0
E00380
F00380
F00380
700380
700380
700780
780700
380F00
3C0E00
1E1E00
0FFC00
0FF800
03F000
ENDCHAR
STARTCHAR 0031
ENCODING 49
SWIDTH 405 0
DWIDTH 18 0
BBX 14 29 2 0
BITMAP
0380
0780
0780
0F80
3F80
FF80
FF80
0380
0380
0380
0380
0380
0380
0380
0380
0380
0380
0380
0380
0380
0380
0380
0380
0380
0380
0380
FFFC
FFFC
FFFC
ENDCHAR
STARTCHAR 0032
ENCODING 50
SWIDTH 427 0
DWIDTH 19 0
BBX 15 29 2 0
BITMAP
07E0
1FF0
3FFC
7C7C
781E
F00E
F00E
E00E
000E
000E
001E
001C
003C
0078
00F0
03E0
07C0
0F80
1F00
3E00
3C00
7800
7000
F000
F000
E000
FFFE
FFFE
FFFE
ENDCHAR
STARTCHAR 0033
ENCODING 51
SWIDTH 450 0
DWIDTH 20 0
BBX 16 29 2 0
BITMAP
07E0
1FF0
3FF8
7C7C
781E
F00E
F00E
E00E
000E
000E
001E
003C
00FC
00F8
00FC
007E
001E
000F
0007
0007
0007
0007
0007
700F
F00F
783E
3FFC
1FF8
0FF0
ENDCHAR
STARTCHAR 0034
ENCODING 52
SWIDTH 540 0
DWIDTH 24 0
BBX 20 29 2 0
BITMAP
000F00
001F00
001F00
003F00
007F00
00F700
00F700
01E700
03C700
03C700
078700
0F0700
1E0700
1E0700
3C0700
780700
780700
FFFFF0
FFFFF0
FFFFF0
000700
000700
000700
000700
000700
000700
000700
000700
000700
ENDCHAR
STARTCHAR 0035
ENCODING 53
SWIDTH 450 0
DWIDTH 20 0
BBX 16 29 2 0
BITMAP
1FFC
3FFC
3FFC
3FFC
3800
3800
7800
7800
7000
7FE0
7FF8
7FFC
FC3E
F01E
700F
2007
0007
0007
0007
0007
0007
0007
0007
700F
F01E
783E
3FFC
1FF8
0FF0
ENDCHAR
STARTCHAR 0036
ENCODING 54
SWIDTH 472 0
DWIDTH 21 0
BBX 18 29 2 0
BITMAP
01F800
07FE00
0FFF00
0F0F00
1E0780
3C0200
380000
780000
700000
700000
700000
F00000
F3E000
EFFC00
FFFE00
FF3F00
FC0F00
F80780
F00380
F00380
7003C0
7003C0
780380
780380
3C0780
3E1F00
1FFE00
0FFC00
07F800
ENDCHAR
STARTCHAR 0037
ENCODING 55
SWIDTH 495 0
DWIDTH 22 0
BBX 19 29 2 0
BITMAP
FFFFE0
FFFFC0
FFFF80
FFFF80
000700
000F00
001E00
001C00
003C00
003800
007800
007000
007000
00F000
00E000
01E000
01E000
01C000
03C000
03C000
038000
038000
038000
078000
078000
078000
070000
070000
070000
ENDCHAR
STARTCHAR 0038
ENCODING 56
SWIDTH 472 0
DWIDTH 21 0
BBX 18 29 2 0
BITMAP
03F000
0FF800
1FFC00
3E3E00
3C0F00
780700
780700
780700
780700
780700
3C0F00
3E1E00
1FFE00
0FFC00
1FFE00
3F3F00
7C0F00
700780
F00380
F00380
E003C0
E003C0
F00380
700380
780780
3C1F00
3FFE00
1FFC00
07F800
ENDCHAR
STARTCHAR 0039
ENCODING 57
SWIDTH 472 0
DWIDTH 21 0
BBX 18 29 2 0
BITMAP
03F000
0FFC00
1FFE00
3E1F00
780F00
700780
F00380
F00380
E003C0
E00380
F00380
700780
780780
3C1F00
3FFF00
0FFF00
07FE00
001E00
001E00
001C00
003C00
003800
003800
007800
007000
00F000
00F000
00E000
01E000
ENDCHAR
STARTCHAR 003A
ENCODING 58
SWIDTH 202 0
DWIDTH 9 0
BBX 5 20 2 0
BITMAP
70
F8
F8
70
00
00
00
00
00
00
00
00
00
00
00
00
70
F8
F8
70
ENDCHAR
STARTCHAR 003B
ENCODING 59
SWIDTH 202 0
DWIDTH 9 0
BBX 6 27 2 -7
BITMAP
70
F8
F8
70
00
00
00
00
00
00
00
00
00
00
00
00
70
F8
FC
FC
0C
0C
0C
18
10
20
C0
ENDCHAR
STARTCHAR 003C
ENCODING 60
SWIDTH 517 0
DWIDTH 23 0
BBX 20 17 2 5
BITMAP
000030
0001F0
000FF0
003FE0
01FF00
0FFC00
7FE000
FF0000
F80000
FE0000
FFC000
1FF800
03FE00
007FC0
001FF0
0003F0
000070
ENDCHAR
STARTCHAR 003D
ENCODING 61
SWIDTH 517 0
DWIDTH 23 0
BBX 20 11 2 9
BITMAP
FFFFF0
FFFFF0
FFFFF0
000000
000000
000000
000000
000000
FFFFF0
FFFFF0
FFFFF0
ENDCHAR
STARTCHAR 003E
ENCODING 62
SWIDTH 517 0
DWIDTH 23 0
BBX 20 17 2 5
BITMAP
C00000
F80000
FF0000
7FC000
1FF800
03FF00
007FE0
000FF0
0003F0
0007F0
003FF0
01FF80
0FFC00
3FE000
FF8000
FC0000
E00000
ENDCHAR
STARTCHAR 003F
ENCODING 63
SWIDTH 427 0
DWIDTH 19 0
BBX 15 29 2 0
BITMAP
07E0
1FF0
3FFC
7C7C
781E
F00E
F00E
E00E
000E
000E
001E
001E
003C
0078
00F8
00F0
01E0
01C0
03C0
03C0
0380
0000
0000
0000
0000
03C0
07C0
07C0
03C0
ENDCHAR
STARTCHAR 0040
ENCODING 64
SWIDTH 945 0
DWIDTH 42 0
BBX 36 38 3 -9
BITMAP
00001FC000
0001FFF800
0007FFFC00
000FF1FE00
003F001F00
007C000F80
00F00007C0
01E00003C0
03C00001E0
0780FF79E0
0701FFF8F0
0E03FFF0F0
1E0783F0F0
1C0F01F070
3C1E01F070
381C00E070
383C00E070
783800E070
707800E0F0
707801E0F0
707001C0E0
F07001C0E0
F07803C1E0
F07807C1C0
F0780FC1C0
F03C1F8380
703FFF8780
701FFB8F00
780FF3DE00
780003FC00
3C0003F800
3E0001F000
1F00000000
0F80000000
0FE0180000
03FFF80000
01FFF80000
007FF00000
ENDCHAR
STARTCHAR 0041
ENCODING 65
SWIDTH 630 0
DWIDTH 28 0
BBX 24 29 2 0
BITMAP
001C00
003C00
003E00
007E00
007F00
007F00
00F700
00E780
00E380
01E380
01C3C0
01C1C0
03C1C0
0381E0
0780E0
07FFF0
07FFF0
0FFFF0
0E0078
0E0038
1E0038
1C003C
1C001C
3C001E
38001E
78000E
78000F
70000F
F00007
ENDCHAR
STARTCHAR 0042
ENCODING 66
SWIDTH 495 0
DWIDTH 22 0
BBX 18 29 2 0
BITMAP
FFE000
FFFC00
FFFE00
FFFF00
E00F80
E00780
E00380
E00380
E00380
E00380
E00780
E00F00
FFFF00
FFFE00
FFFF00
E01F80
E00780
E003C0
E001C0
E001C0
E001C0
E001C0
E001C0
E003C0
E00780
E01F80
FFFF00
FFFE00
FFF800
ENDCHAR
STARTCHAR 0043
ENCODING 67
SWIDTH 585 0
DWIDTH 26 0
BBX 22 29 2 0
BITMAP
007F00
01FFC0
07FFE0
0FC3F0
1F00F8
1E0078
3C003C
380018
780000
700000
700000
F00000
F00000
E00000
E00000
E00000
F00000
F00000
700000
700000
780000
780010
3C003C
3E003C
1F0078
0F81F0
07FFE0
03FFC0
00FF00
ENDCHAR
STARTCHAR 0044
ENCODING 68
SWIDTH 630 0
DWIDTH 28 0
BBX 24 29 2 0
BITMAP
FFF800
FFFF80
FFFFC0
FFFFF0
1E01F0
1E0078
1E003C
1E001C
1E001E
1E000E
1E000F
1E000F
1E0007
1E0007
1E0007
1E0007
1E0007
1E000F
1E000F
1E000E
1E001E
1E001E
1E003C
1E007C
1E00F8
1E07F0
FFFFE0
FFFF80
FFFE00
ENDCHAR
STARTCHAR 0045
ENCODING 69
SWIDTH 495 0
DWIDTH 22 0
BBX 18 29 2 0
BITMAP
FFFFC0
FFFFC0
FFFFC0
FFFFC0
E00000
E00000
E00000
E00000
E00000
E00000
E00000
E00000
E00000
FFFF00
FFFF00
FFFF00
E00000
E00000
E00000
E00000
E00000
E00000
E00000
E00000
E00000
E00000
FFFFC0
FFFFC0
FFFFC0
ENDCHAR
STARTCHAR 0046
ENCODING 70
SWIDTH 495 0
DWIDTH 22 0
BBX 18 29 2 0
BITMAP
FFFFC0
FFFFC0
FFFFC0
FFFFC0
E00000
E00000
E00000
E00000
E00000
E00000
E00000
E00000
E00000
FFFF00
FFFF00
FFFF00
E00000
E00000
E00000
E00000
E00000
E00000
E00000
E00000
E00000
E00000
E00000
E00000
E00000
ENDCHAR
STARTCHAR 0047
ENCODING 71
SWIDTH 585 0
DWIDTH 26 0
BBX 22 29 2 0
BITMAP
007F00
01FFC0
07FFE0
0FC3F0
1F00F8
1E0078
3C003C
380018
780000
700000
700000
F00000
F00000
E00000
E01FFC
E01FFC
F01FFC
F0001C
70001C
70001C
78001C
78001C
3C003C
3E003C
1F0078
0F81F0
07FFE0
03FFC0
00FF00
ENDCHAR
STARTCHAR 0048
ENCODING 72
SWIDTH 495 0
DWIDTH 22 0
BBX 18 29 2 0
BITMAP
E001C0
E001C0
E001C0
E001C0
E001C0
E001C0
E001C0
E001C0
E001C0
E001C0
E001C0
E001C0
E001C0
FFFFC0
FFFFC0
FFFFC0
E001C0
E001C0
E001C0
E001C0
E001C0
E001C0
E001C0
E001C0
E001C0
E001C0
E001C0
E001C0
E001C0
ENDCHAR
STARTCHAR 0049
ENCODING 73
SWIDTH 315 0
DWIDTH 14 0
BBX 10 29 2 0
BITMAP
FFC0
FFC0
FFC0
FFC0
1E00
1E00
1E00
1E00
1E00
1E00
1E00
1E00
1E00
1E00
1E00
1E00
1E00
1E00
1E00
1E00
1E00
1E00
1E00
1E00
1E00
1E00
FFC0
FFC0
FFC0
ENDCHAR
STARTCHAR 004A
ENCODING 74
SWIDTH 360 0
DWIDTH 16 0
BBX 12 29 2 0
BITMAP
0070
0070
0070
0070
0070
0070
0070
0070
0070
0070
0070
0070
0070
0070
0070
0070
0070
0070
0070
0070
0070
0070
0070
E070
F070
70F0
7FE0
3FE0
1F80
ENDCHAR
STARTCHAR 004B
ENCODING 75
SWIDTH 540 0
DWIDTH 24 0
BBX 20 29 2 0
BITMAP
E003C0
E00780
E00F00
E00F00
E01E00
E03C00
E07800
E07800
E0F000
E1E000
E1E000
E3C000
E78000
EF8000
EFC000
FFC000
FDE000
FCF000
F87800
F07800
F03C00
E01E00
E01E00
E00F00
E00780
E00780
E003C0
E001E0
E000F0
ENDCHAR
STARTCHAR 004C
ENCODING 76
SWIDTH 495 0
DWIDTH 22 0
BBX 18 29 2 0
BITMAP
E00000
E00000
E00000
E00000
E00000
E00000
E00000
E00000
E00000
E00000
E00000
E00000
E00000
E00000
E00000
E00000
E00000
E00000
E00000
E00000
E00000
E00000
E00000
E00000
E00000
E00000
FFFFC0
FFFFC0
FFFFC0
ENDCHAR
STARTCHAR 004D
ENCODING 77
SWIDTH 630 0
DWIDTH 28 0
BBX 25 29 2 0
BITMAP
F0000780
F0000780
F0000F80
F8000F80
F8000F80
FC001F80
FC001F80
FC003F80
FE003F80
FE003F80
EE007F80
EF007780
E7007780
E700F780
E780E780
E380E780
E3C1E780
E3C1C780
E1C3C780
E1E3C780
E0E38780
E0E78780
E0F70780
E0770780
E07F0780
E07E0780
E03E0780
E03E0780
E03C0780
ENDCHAR
STARTCHAR 004E
ENCODING 78
SWIDTH 585 0
DWIDTH 26 0
BBX 23 29 2 0
BITMAP
F0000E
F0000E
F8000E
FC000E
FC000E
FE000E
EF000E
EF000E
E7800E
E3C00E
E1E00E
E1E00E
E0F00E
E0780E
E0780E
E03C0E
E01E0E
E01E0E
E00F0E
E0078E
E003CE
E003CE
E001EE
E000FE
E000FE
E0007E
E0003E
E0003E
E0001E
ENDCHAR
STARTCHAR 004F
ENCODING 79
SWIDTH 630 0
DWIDTH 28 0
BBX 24 29 2 0
BITMAP
007F00
01FFC0
07FFE0
0FC3F0
1F00F8
1E0078
3C003C
38001E
78001E
70000E
70000F
F0000F
F00007
E00007
E00007
E00007
F00007
F00007
70000F
70000E
78000E
78001E
3C003C
3E003C
1F0078
0F81F0
07FFE0
03FFC0
00FF00
ENDCHAR
STARTCHAR 0050
ENCODING 80
SWIDTH 472 0
DWIDTH 21 0
BBX 17 29 2 0
BITMAP
FFC000
FFF800
FFFE00
FFFE00
E00F00
E00780
E00380
E00380
E00380
E00380
E00380
E00780
E00F00
FFFF00
FFFE00
FFF800
FFC000
E00000
E00000
E00000
E00000
E00000
E00000
E00000
E00000
E00000
E00000
E00000
E00000
ENDCHAR
STARTCHAR 0051
ENCODING 81
SWIDTH 630 0
DWIDTH 28 0
BBX 28 32 2 -3
BITMAP
007F0000
01FFC000
07FFE000
0FC3F000
1F00F800
1E007800
3C003C00
38001E00
78001E00
70000E00
70000F00
F0000F00
F0000700
E0000700
E0000700
E0000700
F0000700
F0000700
70000F00
703E0E00
78FF0E00
79FF9E00
3CE7FC00
3E01FC00
1F01F800
0F81F000
07FFF000
03FFF000
00FF78E0
00003FF0
00001FE0
00000F80
ENDCHAR
STARTCHAR 0052
ENCODING 82
SWIDTH 517 0
DWIDTH 23 0
BBX 19 29 2 0
BITMAP
FFC000
FFF800
FFFE00
FFFE00
E00F00
E00780
E00380
E00380
E00380
E00380
E00380
E00780
E00F00
FFFF00
FFFE00
FFF800
FFF000
E07800
E03C00
E03C00
E01E00
E00E00
E00F00
E00780
E00780
E003C0
E003C0
E001E0
E000E0
ENDCHAR
STARTCHAR 0053
ENCODING 83
SWIDTH 472 0
DWIDTH 21 0
BBX 18 29 2 0
BITMAP
03F000
0FF800
1FFC00
3E3E00
3C0F00
780700
780700
780700
780000
780000
3C0000
3E0000
1F8000
0FE000
03F800
00FE00
003F00
000F00
000780
000380
000380
E003C0
F00380
700380
780780
3C0F00
3FFF00
1FFE00
07F800
ENDCHAR
STARTCHAR 0054
ENCODING 84
SWIDTH 495 0
DWIDTH 22 0
BBX 18 29 2 0
BITMAP
FFFFC0
FFFFC0
FFFFC0
FFFFC0
00E000
00E000
00E000
00E000
00E000
00E000
00E000
00E000
00E000
00E000
00E000
00E000
00E000
00E000
00E000
00E000
00E000
00E000
00E000
00E000
00E000
00E000
00E000
00E000
00E000
ENDCHAR
STARTCHAR 0055
ENCODING 85
SWIDTH 585 0
DWIDTH 26 0
BBX 22 29 2 0
BITMAP
E0001C
E0001C
E0001C
E0001C
E0001C
E0001C
E0001C
E0001C
E0001C
E0001C
E0001C
E0001C
E0001C
E0001C
E0001C
E0001C
E0001C
E0001C
E0001C
E0001C
F0003C
700038
700038
780078
3C00F0
1F03E0
0FFFC0
07FF80
03FE00
ENDCHAR
STARTCHAR 0056
ENCODING 86
SWIDTH 630 0
DWIDTH 28 0
BBX 24 29 2 0
BITMAP
F00007
700007
70000F
78000E
38000E
3C001E
3C001C
1C003C
1E003C
1E0038
0E0078
0F0070
070070
0700F0
0780E0
0380E0
03C1E0
03C1C0
01C3C0
01E3C0
00E380
00E780
00F700
007700
007F00
007E00
003E00
003E00
003C00
ENDCHAR
STARTCHAR 0057
ENCODING 87
SWIDTH 855 0
DWIDTH 38 0
BBX 34 29 2 0
BITMAP
F001E001C0
F001E001C0
7001E003C0
7001F00380
7803F00380
3803F00780
3803F80780
3803F80700
3C07B80700
1C07380F00
1C073C0F00
1E071C0E00
1E0F1C0E00
0E0E1C1E00
0E0E1E1E00
0F1E0E1C00
0F1E0E1C00
071C0F3C00
071C0F3800
07BC073800
03BC077800
03B807F800
03B807F000
03F803F000
01F003F000
01F003F000
01F001E000
01F001E000
00E001E000
ENDCHAR
STARTCHAR 0058
ENCODING 88
SWIDTH 630 0
DWIDTH 28 0
BBX 24 29 2 0
BITMAP
F0000F
78001E
3C001E
3C003C
1E0078
0F0078
0F00F0
0781E0
03C1E0
01E3C0
01E780
00FF00
007F00
007E00
003C00
003E00
007E00
00FF00
00F780
01E3C0
03C3C0
0781E0
0780F0
0F00F0
1E0078
1E003C
3C003C
78001E
78000F
ENDCHAR
STARTCHAR 0059
ENCODING 89
SWIDTH 630 0
DWIDTH 28 0
BBX 24 29 2 0
BITMAP
F0000F
78001E
3C001E
3C003C
1E0078
0F0078
0F00F0
0781E0
03C1E0
01E3C0
01E780
00FF00
007F00
007E00
003C00
001C00
001C00
001C00
001C00
001C00
001C00
001C00
001C00
001C00
001C00
001C00
001C00
001C00
001C00
ENDCHAR
STARTCHAR 005A
ENCODING 90
SWIDTH 517 0
DWIDTH 23 0
BBX 20 29 2 0
BITMAP
FFFFF0
FFFFF0
FFFFF0
FFFFF0
0001E0
0003C0
0003C0
000780
000F00
000F00
001E00
003C00
007800
007800
00F000
01E000
01E000
03C000
078000
078000
0F0000
1E0000
3C0000
3C0000
780000
F00000
FFFFF0
FFFFF0
FFFFF0
ENDCHAR
STARTCHAR 005B
ENCODING 91
SWIDTH 292 0
DWIDTH 13 0
BBX 9 38 2 -9
BITMAP
FF80
FF80
FF80
FF80
E000
E000
E000
E000
E000
E000
E000
E000
E000
E000
E000
E000
E000
E000
E000
E000
E000
E000
E000
E000
E000
E000
E000
E000
E000
E000
E000
E000
E000
E000
FF80
FF80
FF80
FF80
ENDCHAR
STARTCHAR 005C
ENCODING 92
SWIDTH 405 0
DWIDTH 18 0
BBX 14 29 2 0
BITMAP
F000
7000
7000
7800
3800
3C00
3C00
1C00
1E00
1E00
0E00
0F00
0700
0700
0780
0380
03C0
03C0
01C0
01E0
00E0
00E0
00F0
0070
0070
0078
0038
003C
003C
ENDCHAR
STARTCHAR 005D
ENCODING 93
SWIDTH 292 0
DWIDTH 13 0
BBX 9 38 2 -9
BITMAP
FF80
FF80
FF80
FF80
0380
0380
0380
0380
0380
0380
0380
0380
0380
0380
0380
0380
0380
0380
0380
0380
0380
0380
0380
0380
0380
0380
0380
0380
0380
0380
0380
0380
0380
0380
FF80
FF80
FF80
FF80
ENDCHAR
STARTCHAR 005E
ENCODING 94
SWIDTH 315 0
DWIDTH 14 0
BBX 10 9 2 20
BITMAP
1E00
1E00
1F00
3F00
3F00
7F80
7B80
7380
F3C0
ENDCHAR
STARTCHAR 005F
ENCODING 95
SWIDTH 495 0
DWIDTH 22 0
BBX 18 3 2 -3
BITMAP
FFFFC0
FFFFC0
FFFFC0
ENDCHAR
STARTCHAR 0060
ENCODING 96
SWIDTH 247 0
DWIDTH 11 0
BBX 8 7 2 22
BITMAP
F0
78
3C
1C
0E
06
03
ENDCHAR
STARTCHAR 0061
ENCODING 97
SWIDTH 405 0
DWIDTH 18 0
BBX 14 20 2 0
BITMAP
0FC0
1FF0
3FF8
1C7C
003C
001C
001C
001C
0FFC
3FFC
7FFC
783C
F01C
E01C
E01C
F03C
787C
7FFC
3FFC
1FFC
ENDCHAR
STARTCHAR 0062
ENCODING 98
SWIDTH 472 0
DWIDTH 21 0
BBX 18 29 2 0
BITMAP
E00000
E00000
E00000
E00000
E00000
E00000
E00000
E00000
E00000
E7F000
EFFC00
FFFE00
FE1F00
F80F00
F80780
F00380
F00380
F00380
E003C0
E003C0
F00380
F00380
F00380
F80780
F80F00
FE1F00
FFFE00
EFFC00
E7F000
ENDCHAR
STARTCHAR 0063
ENCODING 99
SWIDTH 450 0
DWIDTH 20 0
BBX 16 20 2 0
BITMAP
07F0
0FFC
1FFE
3E1F
780F
7807
7000
F000
F000
E000
E000
F000
F000
7000
7807
780F
3E1F
1FFE
0FFC
07F0
ENDCHAR
STARTCHAR 0064
ENCODING 100
SWIDTH 472 0
DWIDTH 21 0
BBX 18 29 2 0
BITMAP
0003C0
0003C0
0003C0
0003C0
0003C0
0003C0
0003C0
0003C0
0003C0
07F3C0
0FFFC0
1FFFC0
3E1FC0
780FC0
7807C0
7003C0
F003C0
F003C0
E003C0
E003C0
F003C0
F003C0
7003C0
7807C0
780FC0
3E1FC0
1FFFC0
0FFFC0
07F3C0
ENDCHAR
STARTCHAR 0065
ENCODING 101
SWIDTH 472 0
DWIDTH 21 0
BBX 18 20 2 0
BITMAP
07F000
0FFC00
1FFE00
3E1F00
780F00
780780
700380
FFFF80
FFFF80
FFFFC0
FFFFC0
F00000
F00000
700000
780700
780F00
3E1F00
1FFE00
0FFC00
07F000
ENDCHAR
STARTCHAR 0066
ENCODING 102
SWIDTH 315 0
DWIDTH 14 0
BBX 14 29 2 0
BITMAP
00F8
03FC
07F8
0790
0F00
0E00
0E00
0E00
0E00
0E00
0E00
FFE0
FFE0
FFE0
0E00
0E00
0E00
0E00
0E00
0E00
0E00
0E00
0E00
0E00
0E00
0E00
0E00
0E00
0E00
ENDCHAR
STARTCHAR 0067
ENCODING 103
SWIDTH 495 0
DWIDTH 22 0
BBX 21 29 2 -9
BITMAP
07F860
1FFEF8
3FFFF0
7C0FE0
780780
F00380
E00380
E003C0
F00380
700780
780F80
3FFF00
3FFE00
7FFC00
73E000
700000
7C0000
3FE000
1FFE00
03FF00
000F80
000380
0003C0
F00380
F00780
7C1F80
3FFF00
1FFE00
07F800
ENDCHAR
STARTCHAR 0068
ENCODING 104
SWIDTH 472 0
DWIDTH 21 0
BBX 18 29 2 0
BITMAP
E00000
E00000
E00000
E00000
E00000
E00000
E00000
E00000
E00000
E3F800
EFFE00
FFFE00
FE0F00
FC0700
F80780
F00380
F00380
F00380
E003C0
E003C0
E003C0
E003C0
E003C0
E003C0
E003C0
E003C0
E003C0
E003C0
E003C0
ENDCHAR
STARTCHAR 0069
ENCODING 105
SWIDTH 157 0
DWIDTH 7 0
BBX 5 28 1 0
BITMAP
30
78
F8
78
70
00
00
00
70
70
70
70
70
70
70
70
70
70
70
70
70
70
70
70
70
70
70
70
ENDCHAR
STARTCHAR 006A
ENCODING 106
SWIDTH 157 0
DWIDTH 7 0
BBX 11 37 -5 -9
BITMAP
00C0
01E0
03E0
01E0
01C0
0000
0000
0000
01C0
01C0
01C0
01C0
01C0
01C0
01C0
01C0
01C0
01C0
01C0
01C0
01C0
01C0
01C0
01C0
01C0
01C0
01C0
01C0
01C0
01C0
01C0
01C0
01C0
23C0
7F80
FF00
3E00
ENDCHAR
STARTCHAR 006B
ENCODING 107
SWIDTH 427 0
DWIDTH 19 0
BBX 15 29 2 0
BITMAP
E000
E000
E000
E000
E000
E000
E000
E000
E000
E078
E0F0
E1E0
E1E0
E3C0
E780
E780
EF00
FE00
FF00
FF80
FF80
F3C0
F1E0
E0F0
E0F0
E078
E03C
E03C
E01E
ENDCHAR
STARTCHAR 006C
ENCODING 108
SWIDTH 225 0
DWIDTH 10 0
BBX 7 29 2 0
BITMAP
E0
E0
E0
E0
E0
E0
E0
E0
E0
E0
E0
E0
E0
E0
E0
E0
E0
E0
E0
E0
E0
E0
E0
E0
E0
E0
FE
7E
7E
ENDCHAR
STARTCHAR 006D
ENCODING 109
SWIDTH 607 0
DWIDTH 27 0
BBX 23 20 2 0
BITMAP
E7C3F0
FFE7F8
FFFFFC
FC7F1C
F87E1C
F03C1E
F03C1E
F0380E
F0380E
E0380E
E0380E
E0380E
E0380E
E0380E
E0380E
E0380E
E0380E
E0380E
E0380E
E0380E
ENDCHAR
STARTCHAR 006E
ENCODING 110
SWIDTH 472 0
DWIDTH 21 0
BBX 18 20 2 0
BITMAP
E3F800
EFFE00
FFFE00
FE0F00
FC0700
F80780
F00380
F00380
F00380
E003C0
E003C0
E003C0
E003C0
E003C0
E003C0
E003C0
E003C0
E003C0
E003C0
E003C0
ENDCHAR
STARTCHAR 006F
ENCODING 111
SWIDTH 472 0
DWIDTH 21 0
BBX 18 20 2 0
BITMAP
07F000
0FFC00
1FFE00
3E1F00
780F00
780780
700380
F00380
F00380
E003C0
E003C0
F00380
F00380
700380
780780
780F00
3E1F00
1FFE00
0FFC00
07F000
ENDCHAR
STARTCHAR 0070
ENCODING 112
SWIDTH 472 0
DWIDTH 21 0
BBX 18 29 2 -10
BITMAP
E7F000
EFFC00
FFFE00
FE1F00
F80F00
F80780
F00380
F00380
F00380
E003C0
E003C0
F00380
F00380
F00380
F80780
F80F00
FE1F00
FFFE00
EFFC00
E7F000
E00000
E00000
E00000
E00000
E00000
E00000
E00000
E00000
600000
ENDCHAR
STARTCHAR 0071
ENCODING 113
SWIDTH 472 0
DWIDTH 21 0
BBX 18 30 2 -10
BITMAP
07F3C0
0FFFC0
1FFFC0
3E1FC0
780FC0
7807C0
7003C0
F003C0
F003C0
E003C0
E003C0
F003C0
F003C0
7003C0
7807C0
780FC0
3E1FC0
1FFFC0
0FFFC0
07F3C0
0003C0
0003C0
0003C0
0003C0
0003C0
0003C0
0003C0
0003C0
0000C0
000040
ENDCHAR
STARTCHAR 0072
ENCODING 114
SWIDTH 337 0
DWIDTH 15 0
BBX 11 20 2 0
BITMAP
E3E0
EFE0
FFC0
FE00
FC00
F800
F000
F000
F000
E000
E000
E000
E000
E000
E000
E000
E000
E000
E000
E000
ENDCHAR
STARTCHAR 0073
ENCODING 115
SWIDTH 382 0
DWIDTH 17 0
BBX 13 20 2 0
BITMAP
1FC0
3FE0
7FF0
7870
7078
7000
7800
7E00
3F80
0FE0
03F0
00F8
0078
0038
E038
F038
7878
7FF0
3FE0
1FC0
ENDCHAR
STARTCHAR 0074
ENCODING 116
SWIDTH 337 0
DWIDTH 15 0
BBX 11 25 2 0
BITMAP
0200
0E00
0E00
0E00
0E00
FFE0
FFE0
FFE0
0E00
0E00
0E00
0E00
0E00
0E00
0E00
0E00
0E00
0E00
0E00
0E00
0E00
0E00
0FE0
0FE0
07E0
ENDCHAR
STARTCHAR 0075
ENCODING 117
SWIDTH 472 0
DWIDTH 21 0
BBX 18 20 2 0
BITMAP
E003C0
E003C0
E003C0
E003C0
E003C0
E003C0
E003C0
E003C0
E003C0
E003C0
E003C0
E003C0
F003C0
7007C0
7007C0
780FC0
3C3FC0
3FFFC0
1FFBC0
0FF3C0
ENDCHAR
STARTCHAR 0076
ENCODING 118
SWIDTH 495 0
DWIDTH 22 0
BBX 18 20 2 0
BITMAP
F001C0
7003C0
780380
780780
380780
3C0700
1C0F00
1C0E00
1E0E00
0E1E00
0E1C00
0F1C00
073C00
07B800
07F800
03F800
03F000
01F000
01E000
01E000
ENDCHAR
STARTCHAR 0077
ENCODING 119
SWIDTH 652 0
DWIDTH 29 0
BBX 25 20 2 0
BITMAP
F01C0780
703E0780
703E0700
703E0700
783E0F00
387F0F00
387F0E00
3C770E00
3C779E00
1CF79C00
1CE39C00
1EE39C00
0EE3FC00
0FE3F800
0FC1F800
0FC1F800
07C1F800
07C0F000
0780F000
0780F000
ENDCHAR
STARTCHAR 0078
ENCODING 120
SWIDTH 495 0
DWIDTH 22 0
BBX 17 20 3 0
BITMAP
E00780
F00F00
781E00
3C1E00
3C3C00
1E7800
0F7800
0FF000
07E000
03E000
03E000
07E000
0FF000
0F7800
1E7800
3C3C00
3C1E00
781E00
F00F00
F00780
ENDCHAR
STARTCHAR 0079
ENCODING 121
SWIDTH 495 0
DWIDTH 22 0
BBX 18 29 2 -9
BITMAP
F001C0
7003C0
780380
780780
380780
3C0700
1C0F00
1C0E00
1E0E00
0E1E00
0E1C00
0F3C00
073C00
07B800
07F800
03F800
03F000
01F000
01E000
01E000
01E000
01C000
01C000
03C000
038000
078000
3F0000
3E0000
7C0000
ENDCHAR
STARTCHAR 007A
ENCODING 122
SWIDTH 382 0
DWIDTH 17 0
BBX 14 20 2 0
BITMAP
FFFC
FFFC
FFFC
0078
0078
00F0
01E0
01E0
03C0
0780
0780
0F00
1E00
3C00
3C00
7800
F000
FFFC
FFFC
FFFC
ENDCHAR
STARTCHAR 007B
ENCODING 123
SWIDTH 292 0
DWIDTH 13 0
BBX 9 38 2 -9
BITMAP
0380
0780
0F80
1F00
1E00
1C00
1C00
1C00
1C00
1C00
1C00
1C00
1C00
1C00
1C00
1C00
3C00
F800
F800
F800
F800
3C00
1C00
1C00
1C00
1C00
1C00
1C00
1C00
1C00
1C00
1C00
1C00
1E00
1F00
0F80
0780
0380
ENDCHAR
STARTCHAR 007C
ENCODING 124
SWIDTH 157 0
DWIDTH 7 0
BBX 3 38 2 -9
BITMAP
E0
E0
E0
E0
E0
E0
E0
E0
E0
E0
E0
E0
E0
E0
E0
E0
E0
E0
E0
E0
E0
E0
E0
E0
E0
E0
E0
E0
E0
E0
E0
E0
E0
E0
E0
E0
E0
E0
ENDCHAR
STARTCHAR 007D
ENCODING 125
SWIDTH 292 0
DWIDTH 13 0
BBX 9 38 2 -9
BITMAP
E000
F000
F800
7C00
1C00
1C00
1C00
1C00
1C00
1C00
1C00
1C00
1C00
1C00
1C00
1C00
1E00
0F80
0F80
0F80
0F80
1E00
1C00
1C00
1C00
1C00
1C00
1C00
1C00
1C00
1C00
1C00
1C00
1C00
3C00
F800
F000
E000
ENDCHAR
STARTCHAR 007E
ENCODING 126
SWIDTH 585 0
DWIDTH 26 0
BBX 22 8 2 10
BITMAP
1F8000
3FE000
7FF03C
78FC3C
F07FF8
E01FF0
000FE0
000100
ENDCHAR
STARTCHAR 00A0
ENCODING 160
SWIDTH 247 0
DWIDTH 11 0
BBX 0 0 0 0
BITMAP
ENDCHAR
STARTCHAR 00A1
ENCODING 161
SWIDTH 157 0
DWIDTH 7 0
BBX 5 29 1 -9
BITMAP
78
F8
F8
78
00
00
00
00
00
70
70
70
70
70
70
70
70
70
70
70
70
70
70
70
70
70
70
70
70
ENDCHAR
STARTCHAR 00A2
ENCODING 162
SWIDTH 450 0
DWIDTH 20 0
BBX 16 28 2 -4
BITMAP
001E
001E
001C
003C
07FC
0FFC
1FFE
3E7F
787F
78F7
70E0
F1E0
F1E0
E1C0
E3C0
F3C0
F380
7780
7F07
7F0F
3F1F
1FFE
1FFC
1FF0
1C00
3C00
3C00
3800
ENDCHAR
STARTCHAR 00A3
ENCODING 163
SWIDTH 495 0
DWIDTH 22 0
BBX 19 29 2 0
BITMAP
00FC00
03FF00
07FF80
0F87C0
0F03C0
1E01C0
1C0080
1C0000
3C0000
3C0000
3C0000
3C0000
1C0000
FFF800
FFF800
FFF800
0F0000
0F0000
0F0000
0F0000
0F0000
0E0000
0E0000
0E0000
1E0000
3C0000
FFFFE0
FFFFE0
FFFFE0
ENDCHAR
STARTCHAR 00A4
ENCODING 164
SWIDTH 517 0
DWIDTH 23 0
BBX 20 20 2 5
BITMAP
600060
F000F0
F9F1E0
7FFFC0
3FFF80
1F9F00
1E0780
1C0380
3C0380
3C03C0
3C0380
1C0380
1E0780
1F0F80
1FFF80
3FFFC0
79FBE0
F001F0
6000E0
000040
ENDCHAR
STARTCHAR 00A5
ENCODING 165
SWIDTH 630 0
DWIDTH 28 0
BBX 24 29 2 0
BITMAP
F0000F
78001E
3C001E
3C003C
1E0078
0F0078
0F00F0
0781E0
03C1E0
01E3C0
01E780
00FF00
007F00
3FFFFC
3FFFFC
3FFFFC
3FFFFC
001C00
001C00
3FFFFC
3FFFFC
3FFFFC
001C00
001C00
001C00
001C00
001C00
001C00
001C00
ENDCHAR
STARTCHAR 00A6
ENCODING 166
SWIDTH 157 0
DWIDTH 7 0
BBX 3 38 2 -9
BITMAP
E0
E0
E0
E0
E0
E0
E0
E0
E0
E0
E0
E0
E0
E0
E0
00
00
00
00
00
00
00
00
E0
E0
E0
E0
E0
E0
E0
E0
E0
E0
E0
E0
E0
E0
E0
ENDCHAR
STARTCHAR 00A7
ENCODING 167
SWIDTH 472 0
DWIDTH 21 0
BBX 18 38 2 -9
BITMAP
03F000
0FF800
1FFC00
3E3E00
3C0F00
780700
780700
780700
780000
780000
3C0000
3E0000
7F8000
7FE000
F3F800
F0FE00
E03F00
E00F00
F00780
780380
7C0380
3E03C0
1F8380
0FF380
03FF80
00FF00
003F00
000F00
000700
000700
780700
780700
780700
3C0F00
3E1E00
1FFE00
0FFC00
03F000
ENDCHAR
STARTCHAR 00A8
ENCODING 168
SWIDTH 360 0
DWIDTH 16 0
BBX 12 5 2 23
BITMAP
7060
F8F0
F8F0
F8F0
70E0
ENDCHAR
STARTCHAR 00A9
ENCODING 169
SWIDTH 742 0
DWIDTH 33 0
BBX 30 29 2 0
BITMAP
001FE000
00FFFC00
01FFFE00
07F03F80
0F800FC0
1F0003C0
1E0001E0
3C0000F0
780FC070
781FE078
703FF038
F03C6038
F078403C
E078003C
E070003C
E070003C
F078003C
F0386038
703EF038
701FF078
780FE078
3C0780F0
3C0001E0
1F0003E0
0F8007C0
07E01F80
03FFFF00
00FFFC00
003FF000
ENDCHAR
STARTCHAR 00AA
ENCODING 170
SWIDTH 292 0
DWIDTH 13 0
BBX 9 15 2 15
BITMAP
3E00
3F00
0300
0300
3F00
7F00
6300
6300
7F00
3F00
0800
0000
0000
FF80
FF80
ENDCHAR
STARTCHAR 00AB
ENCODING 171
SWIDTH 405 0
DWIDTH 18 0
BBX 13 16 3 2
BITMAP
0108
0218
0430
0C60
18C0
31C0
7380
E700
E700
6380
31C0
18C0
0C60
0430
0218
0108
ENDCHAR
STARTCHAR 00AC
ENCODING 172
SWIDTH 517 0
DWIDTH 23 0
BBX 20 10 2 6
BITMAP
FFFFF0
FFFFF0
FFFFF0
0000F0
0000F0
0000F0
0000F0
0000F0
0000F0
0000F0
ENDCHAR
STARTCHAR 00AD
ENCODING 173
SWIDTH 337 0
DWIDTH 15 0
BBX 11 4 2 8
BITMAP
FFE0
FFE0
FFE0
FFE0
ENDCHAR
STARTCHAR 00AE
ENCODING 174
SWIDTH 742 0
DWIDTH 33 0
BBX 30 29 2 0
BITMAP
001FE000
00FFFC00
01FFFE00
07F03F80
0F800FC0
1F0003C0
1E0001E0
3C0000F0
783FC070
783FE078
703FF038
F03CF038
F03C703C
E03C703C
E03FF03C
E03FE03C
F03FE03C
F03DE038
703CF038
703C7078
783C7878
3C0000F0
3C0001E0
1F0003E0
0F8007C0
07E01F80
03FFFF00
00FFFC00
003FF000
ENDCHAR
STARTCHAR 00AF
ENCODING 175
SWIDTH 337 0
DWIDTH 15 0
BBX 11 3 2 23
BITMAP
FFE0
FFE0
FFE0
ENDCHAR
STARTCHAR 00B0
ENCODING 176
SWIDTH 360 0
DWIDTH 16 0
BBX 12 12 2 17
BITMAP
0F80
3FC0
7FE0
78F0
F070
E070
E070
F070
78F0
7FE0
3FC0
0F80
ENDCHAR
STARTCHAR 00B1
ENCODING 177
SWIDTH 517 0
DWIDTH 23 0
BBX 20 24 2 2
BITMAP
00F000
00F000
00F000
00F000
00F000
00F000
00F000
00F000
FFFFF0
FFFFF0
FFFFF0
00F000
00F000
00F000
00F000
00F000
00F000
00F000
00F000
000000
000000
FFFFF0
FFFFF0
FFFFF0
ENDCHAR
STARTCHAR 00B2
ENCODING 178
SWIDTH 270 0
DWIDTH 12 0
BBX 8 15 2 20
BITMAP
1C
7E
77
E3
C3
03
07
0E
1C
38
70
60
E0
FF
FF
ENDCHAR
STARTCHAR 00B3
ENCODING 179
SWIDTH 292 0
DWIDTH 13 0
BBX 9 16 2 19
BITMAP
1C00
7E00
7700
E300
E380
0300
0F00
0F00
0F00
0380
0180
0180
E380
7F00
3E00
1800
ENDCHAR
STARTCHAR 00B4
ENCODING 180
SWIDTH 247 0
DWIDTH 11 0
BBX 8 7 2 22
BITMAP
1F
1E
3C
38
70
60
C0
ENDCHAR
STARTCHAR 00B5
ENCODING 181
SWIDTH 472 0
DWIDTH 21 0
BBX 18 29 2 -10
BITMAP
E003C0
E003C0
E003C0
E003C0
E003C0
E003C0
E003C0
E003C0
E003C0
E003C0
E003C0
F003C0
F003C0
F007C0
F807C0
F80FC0
FC1FC0
FFFFC0
EFFFC0
E7F3C0
E00000
E00000
E00000
E00000
E00000
E00000
E00000
E00000
600000
ENDCHAR
STARTCHAR 00B6
ENCODING 182
SWIDTH 495 0
DWIDTH 22 0
BBX 17 38 2 -9
BITMAP
03FF80
0FFF80
3FFF80
3FFF80
7FF380
7FF380
FFF380
FFF380
FFF380
FFF380
7FF380
7FF380
3FF380
1FF380
0FF380
007380
007380
007380
007380
007380
007380
007380
007380
007380
007380
007380
007380
007380
007380
007380
007380
007380
007380
007380
007380
007380
007380
007380
ENDCHAR
STARTCHAR 00B7
ENCODING 183
SWIDTH 202 0
DWIDTH 9 0
BBX 5 5 2 12
BITMAP
30
F8
F8
F8
70
ENDCHAR
STARTCHAR 00B8
ENCODING 184
SWIDTH 292 0
DWIDTH 13 0
BBX 9 9 2 -9
BITMAP
1800
1C00
3F00
0700
0180
0180
0780
FF00
7C00
ENDCHAR
STARTCHAR 00B9
ENCODING 185
SWIDTH 270 0
DWIDTH 12 0
BBX 8 15 2 20
BITMAP
18
18
78
F8
F8
18
18
18
18
18
18
18
18
FF
FF
ENDCHAR
STARTCHAR 00BA
ENCODING 186
SWIDTH 315 0
DWIDTH 14 0
BBX 11 15 2 15
BITMAP
1F00
3F80
71C0
60C0
60C0
60C0
60C0
71C0
3F80
1F00
0400
0000
0000
FFE0
FFE0
ENDCHAR
STARTCHAR 00BB
ENCODING 187
SWIDTH 405 0
DWIDTH 18 0
BBX 14 16 2 2
BITMAP
8200
4300
2180
30C0
1860
0C70
0E38
071C
071C
0638
0C70
1860
30C0
2180
4300
8200
ENDCHAR
STARTCHAR 00BC
ENCODING 188
SWIDTH 472 0
DWIDTH 21 0
BBX 18 37 2 -4
BITMAP
00C000
01C000
03C000
07C000
07C000
00C000
00C000
00C000
00C000
00C000
00C000
00C000
00C000
07F800
07F800
000000
000000
000000
FFFFC0
FFFFC0
000000
000000
007000
00F000
00F000
01F000
03B000
073000
073000
0E3000
1FFC00
1FFC00
1FFC00
003000
003000
003000
003000
ENDCHAR
STARTCHAR 00BD
ENCODING 189
SWIDTH 472 0
DWIDTH 21 0
BBX 18 37 2 -4
BITMAP
00C000
01C000
03C000
07C000
07C000
00C000
00C000
00C000
00C000
00C000
00C000
00C000
00C000
07F800
07F800
000000
000000
000000
FFFFC0
FFFFC0
000000
000000
01E000
03F000
073800
061800
001800
003800
007000
00F000
01E000
038000
070000
060000
060000
07F800
07F800
ENDCHAR
STARTCHAR 00BE
ENCODING 190
SWIDTH 472 0
DWIDTH 21 0
BBX 18 37 2 -4
BITMAP
01C000
03F000
07F000
063800
063800
003800
00F000
00F000
00F800
003800
001800
001800
0E3800
07F800
03F000
018000
000000
000000
FFFFC0
FFFFC0
000000
000000
007000
00F000
00F000
01F000
03B000
073000
073000
0E3000
1FFC00
1FFC00
1FFC00
003000
003000
003000
003000
ENDCHAR
STARTCHAR 00BF
ENCODING 191
SWIDTH 427 0
DWIDTH 19 0
BBX 15 29 2 -9
BITMAP
03C0
07C0
07C0
03C0
0000
0000
0000
0000
0380
0380
0380
0780
0F00
0F00
1E00
3C00
7C00
7800
7000
F000
E000
E00E
F00E
F00E
781E
7C7C
3FF8
1FF0
07E0
ENDCHAR
STARTCHAR 00C0
ENCODING 192
SWIDTH 630 0
DWIDTH 28 0
BBX 24 37 2 0
BITMAP
00F000
007000
003800
001800
000C00
000600
000000
000000
001C00
003C00
003E00
007E00
007F00
007F00
00F700
00E780
00E380
01E380
01C3C0
01C1C0
03C1C0
0381E0
0780E0
07FFF0
07FFF0
0FFFF0
0E0078
0E0038
1E0038
1C003C
1C001C
3C001E
38001E
78000E
78000F
70000F
F00007
ENDCHAR
STARTCHAR 00C1
ENCODING 193
SWIDTH 630 0
DWIDTH 28 0
BBX 24 37 2 0
BITMAP
000780
000F00
000E00
001C00
001800
002000
000000
000000
001C00
003C00
003E00
007E00
007F00
007F00
00F700
00E780
00E380
01E380
01C3C0
01C1C0
03C1C0
0381E0
0780E0
07FFF0
07FFF0
0FFFF0
0E0078
0E0038
1E0038
1C003C
1C001C
3C001E
38001E
78000E
78000F
70000F
F00007
ENDCHAR
STARTCHAR 00C2
ENCODING 194
SWIDTH 630 0
DWIDTH 28 0
BBX 24 37 2 0
BITMAP
003E00
007E00
007700
00E300
00C180
018080
000000
000000
001C00
003C00
003E00
007E00
007F00
007F00
00F700
00E780
00E380
01E380
01C3C0
01C1C0
03C1C0
0381E0
0780E0
07FFF0
07FFF0
0FFFF0
0E0078
0E0038
1E0038
1C003C
1C001C
3C001E
38001E
78000E
78000F
70000F
F00007
ENDCHAR
STARTCHAR 00C3
ENCODING 195
SWIDTH 630 0
DWIDTH 28 0
BBX 24 37 2 0
BITMAP
00C030
03F030
07FC30
061FE0
0607E0
060080
000000
000000
001C00
003C00
003E00
007E00
007F00
007F00
00F700
00E780
00E380
01E380
01C3C0
01C1C0
03C1C0
0381E0
0780E0
07FFF0
07FFF0
0FFFF0
0E0078
0E0038
1E0038
1C003C
1C001C
3C001E
38001E
78000E
78000F
70000F
F00007
ENDCHAR
STARTCHAR 00C4
ENCODING 196
SWIDTH 630 0
DWIDTH 28 0
BBX 24 36 2 0
BITMAP
01E3C0
03E3C0
03E3C0
01C3C0
000000
000000
000000
001C00
003C00
003E00
007E00
007F00
007F00
00F700
00E780
00E380
01E380
01C3C0
01C1C0
03C1C0
0381E0
0780E0
07FFF0
07FFF0
0FFFF0
0E0078
0E0038
1E0038
1C003C
1C001C
3C001E
38001E
78000E
78000F
70000F
F00007
ENDCHAR
STARTCHAR 00C5
ENCODING 197
SWIDTH 630 0
DWIDTH 28 0
BBX 24 38 2 0
BITMAP
001C00
007E00
007700
006300
006300
007F00
003E00
001C00
000000
001C00
003C00
003E00
007E00
007F00
007F00
00F700
00E780
00E380
01E380
01C3C0
01C1C0
03C1C0
0381E0
0780E0
07FFF0
07FFF0
0FFFF0
0E0078
0E0038
1E0038
1C003C
1C001C
3C001E
38001E
78000E
78000F
70000F
F00007
ENDCHAR
STARTCHAR 00C6
ENCODING 198
SWIDTH 720 0
DWIDTH 32 0
BBX 28 29 2 0
BITMAP
001FFFF0
003FFFF0
003FFFF0
007FFFF0
007BC000
0073C000
00F3C000
00E3C000
00E3C000
01E3C000
01C3C000
01C3C000
03C3C000
03FFFFC0
07FFFFC0
07FFFFC0
0703C000
0F03C000
0E03C000
0E03C000
1E03C000
1C03C000
1C03C000
3C03C000
3803C000
7803C000
7803FFF0
7003FFF0
F003FFF0
ENDCHAR
STARTCHAR 00C7
ENCODING 199
SWIDTH 585 0
DWIDTH 26 0
BBX 22 38 2 -9
BITMAP
007F00
01FFC0
07FFE0
0FC3F0
1F00F8
1E0078
3C003C
380018
780000
700000
700000
F00000
F00000
E00000
E00000
E00000
F00000
F00000
700000
700000
780000
780010
3C003C
3E003C
1F0078
0F81F0
07FFE0
03FFC0
00FF00
001800
003C00
003E00
000700
000300
000300
008700
00FE00
00FC00
ENDCHAR
STARTCHAR 00C8
ENCODING 200
SWIDTH 495 0
DWIDTH 22 0
BBX 18 37 2 0
BITMAP
078000
038000
01C000
00C000
006000
002000
000000
000000
FFFFC0
FFFFC0
FFFFC0
FFFFC0
E00000
E00000
E00000
E00000
E00000
E00000
E00000
E00000
E00000
FFFF00
FFFF00
FFFF00
E00000
E00000
E00000
E00000
E00000
E00000
E00000
E00000
E00000
E00000
FFFFC0
FFFFC0
FFFFC0
ENDCHAR
STARTCHAR 00C9
ENCODING 201
SWIDTH 495 0
DWIDTH 22 0
BBX 18 37 2 0
BITMAP
003C00
007800
006000
00C000
008000
010000
000000
000000
FFFFC0
FFFFC0
FFFFC0
FFFFC0
E00000
E00000
E00000
E00000
E00000
E00000
E00000
E00000
E00000
FFFF00
FFFF00
FFFF00
E00000
E00000
E00000
E00000
E00000
E00000
E00000
E00000
E00000
E00000
FFFFC0
FFFFC0
FFFFC0
ENDCHAR
STARTCHAR 00CA
ENCODING 202
SWIDTH 495 0
DWIDTH 22 0
BBX 18 37 2 0
BITMAP
01F000
03F000
03B800
071800
040C00
080400
000000
000000
FFFFC0
FFFFC0
FFFFC0
FFFFC0
E00000
E00000
E00000
E00000
E00000
E00000
E00000
E00000
E00000
FFFF00
FFFF00
FFFF00
E00000
E00000
E00000
E00000
E00000
E00000
E00000
E00000
E00000
E00000
FFFFC0
FFFFC0
FFFFC0
ENDCHAR
STARTCHAR 00CB
ENCODING 203
SWIDTH 495 0
DWIDTH 22 0
BBX 18 36 2 0
BITMAP
0E1E00
1F1E00
1F1E00
0E1E00
000000
000000
000000
FFFFC0
FFFFC0
FFFFC0
FFFFC0
E00000
E00000
E00000
E00000
E00000
E00000
E00000
E00000
E00000
FFFF00
FFFF00
FFFF00
E00000
E00000
E00000
E00000
E00000
E00000
E00000
E00000
E00000
E00000
FFFFC0
FFFFC0
FFFFC0
ENDCHAR
STARTCHAR 00CC
ENCODING 204
SWIDTH 315 0
DWIDTH 14 0
BBX 10 37 2 0
BITMAP
F000
3800
1800
0C00
0400
0200
0000
0000
FFC0
FFC0
FFC0
FFC0
1C00
1C00
1C00
1C00
1C00
1C00
1C00
1C00
1C00
1C00
1C00
1C00
1C00
1C00
1C00
1C00
1C00
1C00
1C00
1C00
1C00
1C00
FFC0
FFC0
FFC0
ENDCHAR
STARTCHAR 00CD
ENCODING 205
SWIDTH 315 0
DWIDTH 14 0
BBX 10 37 2 0
BITMAP
0780
0700
0E00
0C00
1800
1000
0000
0000
FFC0
FFC0
FFC0
FFC0
1C00
1C00
1C00
1C00
1C00
1C00
1C00
1C00
1C00
1C00
1C00
1C00
1C00
1C00
1C00
1C00
1C00
1C00
1C00
1C00
1C00
1C00
FFC0
FFC0
FFC0
ENDCHAR
STARTCHAR 00CE
ENCODING 206
SWIDTH 315 0
DWIDTH 14 0
BBX 10 37 2 0
BITMAP
3E00
3F00
7700
6380
C180
8040
0000
0000
FFC0
FFC0
FFC0
FFC0
1C00
1C00
1C00
1C00
1C00
1C00
1C00
1C00
1C00
1C00
1C00
1C00
1C00
1C00
1C00
1C00
1C00
1C00
1C00
1C00
1C00
1C00
FFC0
FFC0
FFC0
ENDCHAR
STARTCHAR 00CF
ENCODING 207
SWIDTH 315 0
DWIDTH 14 0
BBX 12 36 1 0
BITMAP
F0E0
F1F0
F1F0
F0E0
0000
0000
0000
7FE0
7FE0
7FE0
7FE0
0E00
0E00
0E00
0E00
0E00
0E00
0E00
0E00
0E00
0E00
0E00
0E00
0E00
0E00
0E00
0E00
0E00
0E00
0E00
0E00
0E00
0E00
7FE0
7FE0
7FE0
ENDCHAR
STARTCHAR 00D0
ENCODING 208
SWIDTH 630 0
DWIDTH 28 0
BBX 24 29 2 0
BITMAP
FFF800
FFFF80
FFFFC0
FFFFF0
1E00F0
1E0078
1E003C
1E001C
1E000E
1E000E
1E0007
1E0007
1E0007
FFF807
FFF807
FFF807
1E0007
1E0007
1E0007
1E000E
1E000E
1E001E
1E001C
1E003C
1E00F8
1E03F0
FFFFE0
FFFF80
FFFE00
ENDCHAR
STARTCHAR 00D1
ENCODING 209
SWIDTH 585 0
DWIDTH 26 0
BBX 23 37 2 0
BITMAP
018060
07E060
0FF860
0C3FC0
0C0FC0
0C0100
000000
000000
F0000E
F0000E
F8000E
FC000E
FC000E
FE000E
EF000E
EF000E
E7800E
E3C00E
E1E00E
E1E00E
E0F00E
E0780E
E0780E
E03C0E
E01E0E
E01E0E
E00F0E
E0078E
E003CE
E003CE
E001EE
E000FE
E000FE
E0007E
E0003E
E0003E
E0001E
ENDCHAR
STARTCHAR 00D2
ENCODING 210
SWIDTH 630 0
DWIDTH 28 0
BBX 24 37 2 0
BITMAP
00F000
007000
003800
001800
000C00
000400
000000
000000
007F00
01FFC0
07FFE0
0FC3F0
1F00F8
1E0078
3C003C
38001E
78001E
70000E
70000F
F0000F
F00007
E00007
E00007
E00007
F00007
F00007
70000F
70000E
78000E
78001E
3C003C
3E003C
1F0078
0F81F0
07FFE0
03FFC0
00FF00
ENDCHAR
STARTCHAR 00D3
ENCODING 211
SWIDTH 630 0
DWIDTH 28 0
BBX 24 37 2 0
BITMAP
000780
000E00
001C00
001800
003000
002000
000000
000000
007F00
01FFC0
07FFE0
0FC3F0
1F00F8
1E0078
3C003C
38001E
78001E
70000E
70000F
F0000F
F00007
E00007
E00007
E00007
F00007
F00007
70000F
70000E
78000E
78001E
3C003C
3E003C
1F0078
0F81F0
07FFE0
03FFC0
00FF00
ENDCHAR
STARTCHAR 00D4
ENCODING 212
SWIDTH 630 0
DWIDTH 28 0
BBX 24 37 2 0
BITMAP
003E00
007E00
006700
00C300
018180
010080
000000
000000
007F00
01FFC0
07FFE0
0FC3F0
1F00F8
1E0078
3C003C
38001E
78001E
70000E
70000F
F0000F
F00007
E00007
E00007
E00007
F00007
F00007
70000F
70000E
78000E
78001E
3C003C
3E003C
1F0078
0F81F0
07FFE0
03FFC0
00FF00
ENDCHAR
STARTCHAR 00D5
ENCODING 213
SWIDTH 630 0
DWIDTH 28 0
BBX 24 37 2 0
BITMAP
018030
03F030
07FC60
061FE0
060FC0
040100
000000
000000
007F00
01FFC0
07FFE0
0FC3F0
1F00F8
1E0078
3C003C
38001E
78001E
70000E
70000F
F0000F
F00007
E00007
E00007
E00007
F00007
F00007
70000F
70000E
78000E
78001E
3C003C
3E003C
1F0078
0F81F0
07FFE0
03FFC0
00FF00
ENDCHAR
STARTCHAR 00D6
ENCODING 214
SWIDTH 630 0
DWIDTH 28 0
BBX 24 36 2 0
BITMAP
01C3C0
03E7C0
03E7C0
01C3C0
000000
000000
000000
007F00
01FFC0
07FFE0
0FC3F0
1F00F8
1E0078
3C003C
38001E
78001E
70000E
70000F
F0000F
F00007
E00007
E00007
E00007
F00007
F00007
70000F
70000E
78000E
78001E
3C003C
3E003C
1F0078
0F81F0
07FFE0
03FFC0
00FF00
ENDCHAR
STARTCHAR 00D7
ENCODING 215
SWIDTH 517 0
DWIDTH 23 0
BBX 16 16 4 6
BITMAP
6006
F00F
F81E
7C3C
3E78
1FF0
0FE0
07C0
07E0
0FF0
1EF8
3C7C
783E
F01F
600E
0004
ENDCHAR
STARTCHAR 00D8
ENCODING 216
SWIDTH 630 0
DWIDTH 28 0
BBX 24 33 2 -2
BITMAP
000004
000006
007F0F
01FFDE
07FFFE
0FC3FC
1F00F8
1E0078
3C00FC
3801FE
7803DE
7003CE
70078F
F00F0F
F00F07
E01E07
E03C07
E03C07
F07807
F0F007
71E00F
71E00E
7BC00E
7F801E
3F803C
3F003C
1F0078
1F81F0
3FFFE0
7BFFC0
F0FF00
700000
200000
ENDCHAR
STARTCHAR 00D9
ENCODING 217
SWIDTH 585 0
DWIDTH 26 0
BBX 22 37 2 0
BITMAP
03E000
00E000
007000
003000
001800
000800
000000
000000
E0001C
E0001C
E0001C
E0001C
E0001C
E0001C
E0001C
E0001C
E0001C
E0001C
E0001C
E0001C
E0001C
E0001C
E0001C
E0001C
E0001C
E0001C
E0001C
E0001C
F0003C
700038
700038
780078
3C00F0
1F03E0
0FFFC0
07FF80
03FE00
ENDCHAR
STARTCHAR 00DA
ENCODING 218
SWIDTH 585 0
DWIDTH 26 0
BBX 22 37 2 0
BITMAP
001F00
001C00
003800
003000
006000
004000
000000
000000
E0001C
E0001C
E0001C
E0001C
E0001C
E0001C
E0001C
E0001C
E0001C
E0001C
E0001C
E0001C
E0001C
E0001C
E0001C
E0001C
E0001C
E0001C
E0001C
E0001C
F0003C
700038
700038
780078
3C00F0
1F03E0
0FFFC0
07FF80
03FE00
ENDCHAR
STARTCHAR 00DB
ENCODING 219
SWIDTH 585 0
DWIDTH 26 0
BBX 22 37 2 0
BITMAP
00FC00
00FC00
01CE00
018600
030300
020100
000000
000000
E0001C
E0001C
E0001C
E0001C
E0001C
E0001C
E0001C
E0001C
E0001C
E0001C
E0001C
E0001C
E0001C
E0001C
E0001C
E0001C
E0001C
E0001C
E0001C
E0001C
F0003C
700038
700038
780078
3C00F0
1F03E0
0FFFC0
07FF80
03FE00
ENDCHAR
STARTCHAR 00DC
ENCODING 220
SWIDTH 585 0
DWIDTH 26 0
BBX 22 36 2 0
BITMAP
078780
07CF80
07CF80
038780
000000
000000
000000
E0001C
E0001C
E0001C
E0001C
E0001C
E0001C
E0001C
E0001C
E0001C
E0001C
E0001C
E0001C
E0001C
E0001C
E0001C
E0001C
E0001C
E0001C
E0001C
E0001C
F0003C
700038
700038
780078
3C00F0
1F03E0
0FFFC0
07FF80
03FE00
ENDCHAR
STARTCHAR 00DD
ENCODING 221
SWIDTH 630 0
DWIDTH 28 0
BBX 24 37 2 0
BITMAP
000780
000E00
000C00
001800
001000
002000
000000
000000
F0000F
78001E
3C001E
3C003C
1E0078
0F0078
0F00F0
0781E0
03C1E0
01E3C0
01E780
00FF00
007F00
007E00
003C00
001C00
001C00
001C00
001C00
001C00
001C00
001C00
001C00
001C00
001C00
001C00
001C00
001C00
001C00
ENDCHAR
STARTCHAR 00DE
ENCODING 222
SWIDTH 472 0
DWIDTH 21 0
BBX 17 29 2 0
BITMAP
E00000
E00000
E00000
E00000
E00000
E00000
E00000
FFF000
FFFC00
FFFE00
E03F00
E00780
E00780
E00380
E00380
E00380
E00380
E00780
E00F00
FFFF00
FFFE00
FFF800
E00000
E00000
E00000
E00000
E00000
E00000
E00000
ENDCHAR
STARTCHAR 00DF
ENCODING 223
SWIDTH 472 0
DWIDTH 21 0
BBX 18 38 2 -10
BITMAP
07E000
1FF800
3FFC00
7C3C00
781E00
F00E00
F00E00
E00F00
E00F00
E00E00
E00E00
E01E00
E07C00
E07C00
E07E00
E03F00
E00F00
E00780
E00380
E00380
E003C0
E003C0
E00380
E00380
E00780
E21F00
E3FE00
E7FC00
E7F800
E00000
E00000
E00000
E00000
E00000
E00000
E00000
E00000
600000
ENDCHAR
STARTCHAR 00E0
ENCODING 224
SWIDTH 405 0
DWIDTH 18 0
BBX 14 29 2 0
BITMAP
3C00
1E00
0E00
0700
0300
0180
0080
0000
0000
0FC0
1FF0
3FF8
1C7C
003C
001C
001C
001C
0FFC
3FFC
7FFC
783C
F01C
E01C
E01C
F03C
787C
7FFC
3FFC
1FFC
ENDCHAR
STARTCHAR 00E1
ENCODING 225
SWIDTH 405 0
DWIDTH 18 0
BBX 14 29 2 0
BITMAP
00F0
01E0
01C0
0380
0300
0600
0400
0000
0000
0FC0
1FF0
3FF8
1C7C
003C
001C
001C
001C
0FFC
3FFC
7FFC
783C
F01C
E01C
E01C
F03C
787C
7FFC
3FFC
1FFC
ENDCHAR
STARTCHAR 00E2
ENCODING 226
SWIDTH 405 0
DWIDTH 18 0
BBX 14 29 2 0
BITMAP
0780
0FC0
0FC0
1CE0
1860
3030
2010
0000
0000
0FC0
1FF0
3FF8
1C7C
003C
001C
001C
001C
0FFC
3FFC
7FFC
783C
F01C
E01C
E01C
F03C
787C
7FFC
3FFC
1FFC
ENDCHAR
STARTCHAR 00E3
ENCODING 227
SWIDTH 405 0
DWIDTH 18 0
BBX 15 28 2 0
BITMAP
3C06
7F06
FFCE
C1FC
C0FC
0000
0000
0000
0FC0
1FF0
3FF8
1C7C
003C
001C
001C
001C
0FFC
3FFC
7FFC
783C
F01C
E01C
E01C
F03C
787C
7FFC
3FFC
1FFC
ENDCHAR
STARTCHAR 00E4
ENCODING 228
SWIDTH 405 0
DWIDTH 18 0
BBX 14 28 2 0
BITMAP
3030
7878
7CF8
7CF8
3870
0000
0000
0000
0FC0
1FF0
3FF8
1C7C
003C
001C
001C
001C
0FFC
3FFC
7FFC
783C
F01C
E01C
E01C
F03C
787C
7FFC
3FFC
1FFC
ENDCHAR
STARTCHAR 00E5
ENCODING 229
SWIDTH 405 0
DWIDTH 18 0
BBX 14 29 2 0
BITMAP
07C0
0FE0
0C60
0C60
0C60
0FE0
07C0
0000
0000
0FC0
1FF0
3FF8
1C7C
003C
001C
001C
001C
0FFC
3FFC
7FFC
783C
F01C
E01C
E01C
F03C
787C
7FFC
3FFC
1FFC
ENDCHAR
STARTCHAR 00E6
ENCODING 230
SWIDTH 720 0
DWIDTH 32 0
BBX 28 20 2 0
BITMAP
0FC0FE00
1FF3FF00
3FFFFF80
1C7F83C0
003F01E0
001E01E0
001E00E0
001FFFF0
0FFFFFF0
3FFFFFF0
7FFFFFF0
783C0000
F01C0000
E01C0080
E03E01C0
F03F01E0
787F83C0
7FFFFF80
3FF3FF00
1FE0FE00
ENDCHAR
STARTCHAR 00E7
ENCODING 231
SWIDTH 450 0
DWIDTH 20 0
BBX 16 29 2 -9
BITMAP
07F0
0FFC
1FFE
3E1F
780F
7807
7000
F000
F000
E000
E000
F000
F000
7000
7807
780F
3E1F
1FFE
0FFC
07F8
01C0
01E0
01F0
0038
0018
0018
0438
07F0
07E0
ENDCHAR
STARTCHAR 00E8
ENCODING 232
SWIDTH 472 0
DWIDTH 21 0
BBX 18 29 2 0
BITMAP
0F0000
078000
038000
01C000
00C000
006000
002000
000000
000000
07F000
0FFC00
1FFE00
3E1F00
780F00
780780
700380
FFFF80
FFFF80
FFFFC0
FFFFC0
F00000
F00000
700000
780700
780F00
3E1F00
1FFE00
0FFC00
07F000
ENDCHAR
STARTCHAR 00E9
ENCODING 233
SWIDTH 472 0
DWIDTH 21 0
BBX 18 29 2 0
BITMAP
003C00
007800
007000
00E000
00C000
018000
030000
000000
000000
07F000
0FFC00
1FFE00
3E1F00
780F00
780780
700380
FFFF80
FFFF80
FFFFC0
FFFFC0
F00000
F00000
700000
780700
780F00
3E1F00
1FFE00
0FFC00
07F000
ENDCHAR
STARTCHAR 00EA
ENCODING 234
SWIDTH 472 0
DWIDTH 21 0
BBX 18 29 2 0
BITMAP
01E000
03F000
03F000
073800
061800
0C0C00
080400
000000
000000
07F000
0FFC00
1FFE00
3E1F00
780F00
780780
700380
FFFF80
FFFF80
FFFFC0
FFFFC0
F00000
F00000
700000
780700
780F00
3E1F00
1FFE00
0FFC00
07F000
ENDCHAR
STARTCHAR 00EB
ENCODING 235
SWIDTH 472 0
DWIDTH 21 0
BBX 18 28 2 0
BITMAP
0C1C00
1E3E00
1F3E00
1E3E00
0E1C00
000000
000000
000000
07F000
0FFC00
1FFE00
3E1F00
780F00
780780
700380
FFFF80
FFFF80
FFFFC0
FFFFC0
F00000
F00000
700000
780700
780F00
3E1F00
1FFE00
0FFC00
07F000
ENDCHAR
STARTCHAR 00EC
ENCODING 236
SWIDTH 157 0
DWIDTH 7 0
BBX 7 29 -1 0
BITMAP
F0
78
38
1C
0C
06
02
00
00
1C
1C
1C
1C
1C
1C
1C
1C
1C
1C
1C
1C
1C
1C
1C
1C
1C
1C
1C
1C
ENDCHAR
STARTCHAR 00ED
ENCODING 237
SWIDTH 157 0
DWIDTH 7 0
BBX 8 29 1 0
BITMAP
0F
1E
1C
38
70
60
C0
00
00
70
70
70
70
70
70
70
70
70
70
70
70
70
70
70
70
70
70
70
70
ENDCHAR
STARTCHAR 00EE
ENCODING 238
SWIDTH 157 0
DWIDTH 7 0
BBX 11 29 -2 0
BITMAP
0F00
1F80
1F80
39C0
30C0
6060
C020
0000
0000
0E00
0E00
0E00
0E00
0E00
0E00
0E00
0E00
0E00
0E00
0E00
0E00
0E00
0E00
0E00
0E00
0E00
0E00
0E00
0E00
ENDCHAR
STARTCHAR 00EF
ENCODING 239
SWIDTH 157 0
DWIDTH 7 0
BBX 12 28 -2 0
BITMAP
60E0
F1F0
F1F0
F1F0
70E0
0000
0000
0000
0E00
0E00
0E00
0E00
0E00
0E00
0E00
0E00
0E00
0E00
0E00
0E00
0E00
0E00
0E00
0E00
0E00
0E00
0E00
0E00
ENDCHAR
STARTCHAR 00F0
ENCODING 240
SWIDTH 495 0
DWIDTH 22 0
BBX 19 29 2 0
BITMAP
03F040
0FFDE0
07FFE0
001FC0
003F00
00FF80
007B80
006380
0003C0
07F1C0
0FFDC0
1FFFC0
3E1FC0
780FC0
7807C0
7003C0
F003C0
F003C0
E003C0
E003C0
F003C0
F00380
700380
780780
780F00
3E1F00
1FFE00
0FFC00
07F800
ENDCHAR
STARTCHAR 00F1
ENCODING 241
SWIDTH 472 0
DWIDTH 21 0
BBX 18 28 2 0
BITMAP
1E0300
3F8300
3BE300
60FF00
603E00
000000
000000
000000
E3F800
EFFE00
FFFE00
FE0F00
FC0700
F80780
F00380
F00380
F00380
E003C0
E003C0
E003C0
E003C0
E003C0
E003C0
E003C0
E003C0
E003C0
E003C0
E003C0
ENDCHAR
STARTCHAR 00F2
ENCODING 242
SWIDTH 472 0
DWIDTH 21 0
BBX 18 29 2 0
BITMAP
0F0000
078000
038000
01C000
00C000
006000
002000
000000
000000
07F000
0FFC00
1FFE00
3E1F00
780F00
780780
700380
F00380
F00380
E003C0
E003C0
F00380
F00380
700380
780780
780F00
3E1F00
1FFE00
0FFC00
07F000
ENDCHAR
STARTCHAR 00F3
ENCODING 243
SWIDTH 472 0
DWIDTH 21 0
BBX 18 29 2 0
BITMAP
003C00
007800
007000
00E000
00C000
018000
030000
000000
000000
07F000
0FFC00
1FFE00
3E1F00
780F00
780780
700380
F00380
F00380
E003C0
E003C0
F00380
F00380
700380
780780
780F00
3E1F00
1FFE00
0FFC00
07F000
ENDCHAR
STARTCHAR 00F4
ENCODING 244
SWIDTH 472 0
DWIDTH 21 0
BBX 18 29 2 0
BITMAP
01E000
03F000
03F000
073800
061800
0C0C00
080400
000000
000000
07F000
0FFC00
1FFE00
3E1F00
780F00
780780
700380
F00380
F00380
E003C0
E003C0
F00380
F00380
700380
780780
780F00
3E1F00
1FFE00
0FFC00
07F000
ENDCHAR
STARTCHAR 00F5
ENCODING 245
SWIDTH 472 0
DWIDTH 21 0
BBX 18 28 2 0
BITMAP
1E0300
3F8300
3BE300
60FF00
603E00
000000
000000
000000
07F000
0FFC00
1FFE00
3E1F00
780F00
780780
700380
F00380
F00380
E003C0
E003C0
F00380
F00380
700380
780780
780F00
3E1F00
1FFE00
0FFC00
07F000
ENDCHAR
STARTCHAR 00F6
ENCODING 246
SWIDTH 472 0
DWIDTH 21 0
BBX 18 28 2 0
BITMAP
0C1C00
1E3E00
1F3E00
1E3E00
0E1C00
000000
000000
000000
07F000
0FFC00
1FFE00
3E1F00
780F00
780780
700380
F00380
F00380
E003C0
E003C0
F00380
F00380
700380
780780
780F00
3E1F00
1FFE00
0FFC00
07F000
ENDCHAR
STARTCHAR 00F7
ENCODING 247
SWIDTH 517 0
DWIDTH 23 0
BBX 20 18 2 5
BITMAP
00F000
00F000
00F800
00F000
000000
000000
000000
FFFFF0
FFFFF0
FFFFF0
000000
000000
000000
00F000
00F000
00F800
00F000
006000
ENDCHAR
STARTCHAR 00F8
ENCODING 248
SWIDTH 472 0
DWIDTH 21 0
BBX 18 24 2 -2
BITMAP
000180
0003C0
07F3C0
0FFF80
1FFF00
3E1F00
781F00
783F80
707B80
F07B80
F0F380
E1E3C0
E1E3C0
F3C380
F78380
7F0380
7F0780
7E0F00
3C1F00
3FFE00
7FFC00
F7F000
F00000
E00000
ENDCHAR
STARTCHAR 00F9
ENCODING 249
SWIDTH 472 0
DWIDTH 21 0
BBX 18 29 2 0
BITMAP
0F0000
078000
038000
01C000
00C000
006000
002000
000000
000000
E003C0
E003C0
E003C0
E003C0
E003C0
E003C0
E003C0
E003C0
E003C0
E003C0
E003C0
E003C0
F003C0
7007C0
7007C0
780FC0
3C3FC0
3FFFC0
1FFBC0
0FF3C0
ENDCHAR
STARTCHAR 00FA
ENCODING 250
SWIDTH 472 0
DWIDTH 21 0
BBX 18 29 2 0
BITMAP
003C00
007800
007000
00E000
00C000
018000
030000
000000
000000
E003C0
E003C0
E003C0
E003C0
E003C0
E003C0
E003C0
E003C0
E003C0
E003C0
E003C0
E003C0
F003C0
7007C0
7007C0
780FC0
3C3FC0
3FFFC0
1FFBC0
0FF3C0
ENDCHAR
STARTCHAR 00FB
ENCODING 251
SWIDTH 472 0
DWIDTH 21 0
BBX 18 29 2 0
BITMAP
01E000
03F000
03F000
073800
061800
0C0C00
080400
000000
000000
E003C0
E003C0
E003C0
E003C0
E003C0
E003C0
E003C0
E003C0
E003C0
E003C0
E003C0
E003C0
F003C0
7007C0
7007C0
780FC0
3C3FC0
3FFFC0
1FFBC0
0FF3C0
ENDCHAR
STARTCHAR 00FC
ENCODING 252
SWIDTH 472 0
DWIDTH 21 0
BBX 18 28 2 0
BITMAP
0C1C00
1E3E00
1F3E00
1E3E00
0E1C00
000000
000000
000000
E003C0
E003C0
E003C0
E003C0
E003C0
E003C0
E003C0
E003C0
E003C0
E003C0
E003C0
E003C0
F003C0
7007C0
7007C0
780FC0
3C3FC0
3FFFC0
1FFBC0
0FF3C0
ENDCHAR
STARTCHAR 00FD
ENCODING 253
SWIDTH 495 0
DWIDTH 22 0
BBX 18 38 2 -9
BITMAP
003C00
007800
007000
00E000
00C000
018000
010000
000000
000000
F001C0
7003C0
780380
780780
380780
3C0700
1C0F00
1C0E00
1E0E00
0E1E00
0E1C00
0F3C00
073C00
07B800
07F800
03F800
03F000
01F000
01E000
01E000
01E000
01C000
01C000
03C000
038000
078000
3F0000
3E0000
7C0000
ENDCHAR
STARTCHAR 00FE
ENCODING 254
SWIDTH 472 0
DWIDTH 21 0
BBX 18 38 2 -10
BITMAP
E00000
E00000
E00000
E00000
E00000
E00000
E00000
E00000
E00000
E7F000
EFFC00
FFFE00
FE1F00
F80F00
F80780
F00380
F00380
F00380
E003C0
E003C0
F00380
F00380
F00380
F80780
F80F00
FE1F00
FFFE00
EFFC00
E7F000
E00000
E00000
E00000
E00000
E00000
E00000
E00000
E00000
600000
ENDCHAR
STARTCHAR 00FF
ENCODING 255
SWIDTH 495 0
DWIDTH 22 0
BBX 18 37 2 -9
BITMAP
060C00
0F1E00
1F1F00
0F1E00
0E0E00
000000
000000
000000
F001C0
7003C0
780380
780780
380780
3C0700
1C0F00
1C0E00
1E0E00
0E1E00
0E1C00
0F3C00
073C00
07B800
07F800
03F800
03F000
01F000
01E000
01E000
01E000
01C000
01C000
03C000
038000
078000
3F0000
3E0000
7C0000
ENDCHAR
STARTCHAR 0100
ENCODING 256
SWIDTH 630 0
DWIDTH 28 0
BBX 24 35 2 0
BITMAP
01FFC0
01FFC0
01FFC0
000000
000000
000000
001C00
003C00
003E00
007E00
007F00
007F00
00F700
00E780
00E380
01E380
01C3C0
01C1C0
03C1C0
0381E0
0780E0
07FFF0
07FFF0
0FFFF0
0E0078
0E0038
1E0038
1C003C
1C001C
3C001E
38001E
78000E
78000F
70000F
F00007
ENDCHAR
STARTCHAR 0101
ENCODING 257
SWIDTH 405 0
DWIDTH 18 0
BBX 14 26 2 0
BITMAP
3FF8
3FF8
3FF8
0000
0000
0000
0FC0
1FF0
3FF8
1C7C
003C
001C
001C
001C
0FFC
3FFC
7FFC
783C
F01C
E01C
E01C
F03C
787C
7FFC
3FFC
1FFC
ENDCHAR
STARTCHAR 0102
ENCODING 258
SWIDTH 630 0
DWIDTH 28 0
BBX 24 37 2 0
BITMAP
0380C0
0181C0
01C1C0
00FF80
007F00
001C00
000000
000000
001C00
003C00
003E00
007E00
007F00
007F00
00F700
00E780
00E380
01E380
01C3C0
01C1C0
03C1C0
0381E0
0780E0
07FFF0
07FFF0
0FFFF0
0E0078
0E0038
1E0038
1C003C
1C001C
3C001E
38001E
78000E
78000F
70000F
F00007
ENDCHAR
STARTCHAR 0103
ENCODING 259
SWIDTH 405 0
DWIDTH 18 0
BBX 14 29 2 0
BITMAP
7038
7038
7038
3870
1FE0
0FC0
0000
0000
0000
0FC0
1FF0
3FF8
1C7C
003C
001C
001C
001C
0FFC
3FFC
7FFC
783C
F01C
E01C
E01C
F03C
787C
7FFC
3FFC
1FFC
ENDCHAR
STARTCHAR 0104
ENCODING 260
SWIDTH 630 0
DWIDTH 28 0
BBX 29 37 2 -8
BITMAP
001C0000
003C0000
003E0000
007E0000
007F0000
007F0000
00F70000
00E78000
00E38000
01E38000
01C3C000
01C1C000
03C1C000
0381E000
0780E000
07FFF000
07FFF000
0FFFF000
0E007800
0E003800
1E003800
1C003C00
1C001C00
3C001E00
38001E00
78000E00
78000F00
70000700
F0000700
00000C00
00000C00
00001C00
00001C00
00000E00
00000F88
000007F0
000003E0
ENDCHAR
STARTCHAR 0105
ENCODING 261
SWIDTH 405 0
DWIDTH 18 0
BBX 19 28 2 -8
BITMAP
0FC000
1FF000
3FF800
1C7C00
003C00
001C00
001C00
001C00
0FFC00
3FFC00
7FFC00
783C00
F01C00
E01C00
E01C00
F03C00
787C00
7FFC00
3FFC00
1FFC00
003000
003000
003000
003800
003800
003E00
001FE0
000F80
ENDCHAR
STARTCHAR 0106
ENCODING 262
SWIDTH 585 0
DWIDTH 26 0
BBX 22 37 2 0
BITMAP
000F00
001C00
001800
003000
006000
004000
000000
000000
007F00
01FFC0
07FFE0
0FC3F0
1F00F8
1E0078
3C003C
380018
780000
700000
700000
F00000
F00000
E00000
E00000
E00000
F00000
F00000
700000
700000
780000
780010
3C003C
3E003C
1F0078
0F81F0
07FFE0
03FFC0
00FF00
ENDCHAR
STARTCHAR 0107
ENCODING 263
SWIDTH 450 0
DWIDTH 20 0
BBX 16 29 2 0
BITMAP
0078
0070
00E0
00C0
0180
0300
0200
0000
0000
07F0
0FFC
1FFE
3E1F
780F
7807
7000
F000
F000
E000
E000
F000
F000
7000
7807
780F
3E1F
1FFE
0FFC
07F0
ENDCHAR
STARTCHAR 0108
ENCODING 264
SWIDTH 585 0
DWIDTH 26 0
BBX 22 37 2 0
BITMAP
007C00
00FC00
00CE00
018600
010300
020100
000000
000000
007F00
01FFC0
07FFE0
0FC3F0
1F00F8
1E0078
3C003C
380018
780000
700000
700000
F00000
F00000
E00000
E00000
E00000
F00000
F00000
700000
700000
780000
780010
3C003C
3E003C
1F0078
0F81F0
07FFE0
03FFC0
00FF00
ENDCHAR
STARTCHAR 0109
ENCODING 265
SWIDTH 450 0
DWIDTH 20 0
BBX 16 29 2 0
BITMAP
03E0
03E0
07F0
0670
0C38
0818
100C
0000
0000
07F0
0FFC
1FFE
3E1F
780F
7807
7000
F000
F000
E000
E000
F000
F000
7000
7807
780F
3E1F
1FFE
0FFC
07F0
ENDCHAR
STARTCHAR 010A
ENCODING 266
SWIDTH 585 0
DWIDTH 26 0
BBX 22 36 2 0
BITMAP
007800
007800
007800
007800
000000
000000
000000
007F00
01FFC0
07FFE0
0FC3F0
1F00F8
1E0078
3C003C
380018
780000
700000
700000
F00000
F00000
E00000
E00000
E00000
F00000
F00000
700000
700000
780000
780010
3C003C
3E003C
1F0078
0F81F0
07FFE0
03FFC0
00FF00
ENDCHAR
STARTCHAR 010B
ENCODING 267
SWIDTH 450 0
DWIDTH 20 0
BBX 16 28 2 0
BITMAP
0180
03C0
03E0
03E0
01C0
0000
0000
0000
07F0
0FFC
1FFE
3E1F
780F
7807
7000
F000
F000
E000
E000
F000
F000
7000
7807
780F
3E1F
1FFE
0FFC
07F0
ENDCHAR
STARTCHAR 010C
ENCODING 268
SWIDTH 585 0
DWIDTH 26 0
BBX 22 37 2 0
BITMAP
020100
010300
018600
00EE00
00FC00
007C00
000000
000000
007F00
01FFC0
07FFE0
0FC3F0
1F00F8
1E0078
3C003C
380018
780000
700000
700000
F00000
F00000
E00000
E00000
E00000
F00000
F00000
700000
700000
780000
780010
3C003C
3E003C
1F0078
0F81F0
07FFE0
03FFC0
00FF00
ENDCHAR
STARTCHAR 010D
ENCODING 269
SWIDTH 450 0
DWIDTH 20 0
BBX 16 29 2 0
BITMAP
1004
1808
0C18
0E30
0770
03E0
03E0
0000
0000
07F0
0FFC
1FFE
3E1F
780F
7807
7000
F000
F000
E000
E000
F000
F000
7000
7807
780F
3E1F
1FFE
0FFC
07F0
ENDCHAR
STARTCHAR 010E
ENCODING 270
SWIDTH 630 0
DWIDTH 28 0
BBX 24 37 2 0
BITMAP
010080
008180
00C300
006700
007E00
003E00
000000
000000
FFF800
FFFF80
FFFFC0
FFFFF0
1E01F0
1E0078
1E003C
1E001C
1E001E
1E000E
1E000F
1E000F
1E0007
1E0007
1E0007
1E0007
1E0007
1E000F
1E000F
1E000E
1E001E
1E001E
1E003C
1E007C
1E00F8
1E07F0
FFFFE0
FFFF80
FFFE00
ENDCHAR
STARTCHAR 010F
ENCODING 271
SWIDTH 652 0
DWIDTH 29 0
BBX 25 29 2 0
BITMAP
0003CE00
0003DF00
0003DF80
0003DF80
0003CD80
0003C180
0003C180
0003C100
0003C300
07F3C600
0FFFD800
1FFFC000
3E1FC000
780FC000
7807C000
7003C000
F003C000
F003C000
E003C000
E003C000
F003C000
F003C000
7003C000
7807C000
780FC000
3E1FC000
1FFFC000
0FFFC000
07F3C000
ENDCHAR
STARTCHAR 0110
ENCODING 272
SWIDTH 630 0
DWIDTH 28 0
BBX 24 29 2 0
BITMAP
FFF800
FFFF80
FFFFC0
FFFFF0
1E00F0
1E0078
1E003C
1E001C
1E000E
1E000E
1E0007
1E0007
1E0007
FFF807
FFF807
FFF807
1E0007
1E0007
1E0007
1E000E
1E000E
1E001E
1E001C
1E003C
1E00F8
1E03F0
FFFFE0
FFFF80
FFFE00
ENDCHAR
STARTCHAR 0111
ENCODING 273
SWIDTH 472 0
DWIDTH 21 0
BBX 21 29 2 0
BITMAP
0003C0
0003C0
0003C0
0003C0
003FF8
003FF8
003FF8
0003C0
0003C0
07F3C0
0FFFC0
1FFFC0
3E1FC0
780FC0
7807C0
7003C0
F003C0
F003C0
E003C0
E003C0
F003C0
F003C0
7003C0
7807C0
780FC0
3E1FC0
1FFFC0
0FFFC0
07F3C0
ENDCHAR
STARTCHAR 0112
ENCODING 274
SWIDTH 495 0
DWIDTH 22 0
BBX 18 35 2 0
BITMAP
0FFE00
0FFE00
0FFE00
000000
000000
000000
FFFFC0
FFFFC0
FFFFC0
FFFFC0
E00000
E00000
E00000
E00000
E00000
E00000
E00000
E00000
E00000
FFFF00
FFFF00
FFFF00
E00000
E00000
E00000
E00000
E00000
E00000
E00000
E00000
E00000
E00000
FFFFC0
FFFFC0
FFFFC0
ENDCHAR
STARTCHAR 0113
ENCODING 275
SWIDTH 472 0
DWIDTH 21 0
BBX 18 26 2 0
BITMAP
1FFC00
1FFC00
1FFC00
000000
000000
000000
07F000
0FFC00
1FFE00
3E1F00
780F00
780780
700380
FFFF80
FFFF80
FFFFC0
FFFFC0
F00000
F00000
700000
780700
780F00
3E1F00
1FFE00
0FFC00
07F000
ENDCHAR
STARTCHAR 0114
ENCODING 276
SWIDTH 495 0
DWIDTH 22 0
BBX 18 37 2 0
BITMAP
1C0600
1C0E00
0E1E00
07FC00
03F800
00E000
000000
000000
FFFFC0
FFFFC0
FFFFC0
FFFFC0
E00000
E00000
E00000
E00000
E00000
E00000
E00000
E00000
E00000
FFFF00
FFFF00
FFFF00
E00000
E00000
E00000
E00000
E00000
E00000
E00000
E00000
E00000
E00000
FFFFC0
FFFFC0
FFFFC0
ENDCHAR
STARTCHAR 0115
ENCODING 277
SWIDTH 472 0
DWIDTH 21 0
BBX 18 29 2 0
BITMAP
180E00
1C0E00
1C0E00
0E3C00
0FF800
03F000
000000
000000
000000
07F000
0FFC00
1FFE00
3E1F00
780F00
780780
700380
FFFF80
FFFF80
FFFFC0
FFFFC0
F00000
F00000
700000
780700
780F00
3E1F00
1FFE00
0FFC00
07F000
ENDCHAR
STARTCHAR 0116
ENCODING 278
SWIDTH 495 0
DWIDTH 22 0
BBX 18 36 2 0
BITMAP
01E000
01F000
01F000
01E000
000000
000000
000000
FFFFC0
FFFFC0
FFFFC0
FFFFC0
E00000
E00000
E00000
E00000
E00000
E00000
E00000
E00000
E00000
FFFF00
FFFF00
FFFF00
E00000
E00000
E00000
E00000
E00000
E00000
E00000
E00000
E00000
E00000
FFFFC0
FFFFC0
FFFFC0
ENDCHAR
STARTCHAR 0117
ENCODING 279
SWIDTH 472 0
DWIDTH 21 0
BBX 18 28 2 0
BITMAP
00C000
01E000
03E000
01E000
01C000
000000
000000
000000
07F000
0FFC00
1FFE00
3E1F00
780F00
780780
700380
FFFF80
FFFF80
FFFFC0
FFFFC0
F00000
F00000
700000
780700
780F00
3E1F00
1FFE00
0FFC00
07F000
ENDCHAR
STARTCHAR 0118
ENCODING 280
SWIDTH 495 0
DWIDTH 22 0
BBX 20 37 2 -8
BITMAP
FFFFC0
FFFFC0
FFFFC0
FFFFC0
E00000
E00000
E00000
E00000
E00000
E00000
E00000
E00000
E00000
FFFF00
FFFF00
FFFF00
E00000
E00000
E00000
E00000
E00000
E00000
E00000
E00000
E00000
E00000
FFFFC0
FFFFC0
FFFFC0
000800
001800
001C00
001C00
001E00
000F00
0007F0
0003C0
ENDCHAR
STARTCHAR 0119
ENCODING 281
SWIDTH 472 0
DWIDTH 21 0
BBX 18 28 2 -8
BITMAP
07F000
0FFC00
1FFE00
3E1F00
780F00
780780
700380
FFFF80
FFFF80
FFFFC0
FFFFC0
F00000
F00000
700000
780700
780F00
3E1F00
1FFE00
0FFC00
07F000
00C000
00C000
01C000
01C000
00E000
00F880
007F00
003E00
ENDCHAR
STARTCHAR 011A
ENCODING 282
SWIDTH 495 0
DWIDTH 22 0
BBX 18 37 2 0
BITMAP
0C0400
060C00
071800
03B800
03F000
01F000
000000
000000
FFFFC0
FFFFC0
FFFFC0
FFFFC0
E00000
E00000
E00000
E00000
E00000
E00000
E00000
E00000
E00000
FFFF00
FFFF00
FFFF00
E00000
E00000
E00000
E00000
E00000
E00000
E00000
E00000
E00000
E00000
FFFFC0
FFFFC0
FFFFC0
ENDCHAR
STARTCHAR 011B
ENCODING 283
SWIDTH 472 0
DWIDTH 21 0
BBX 18 29 2 0
BITMAP
100400
080C00
0E1800
073800
03F000
03F000
01E000
000000
000000
07F000
0FFC00
1FFE00
3E1F00
780F00
780780
700380
FFFF80
FFFF80
FFFFC0
FFFFC0
F00000
F00000
700000
780700
780F00
3E1F00
1FFE00
0FFC00
07F000
ENDCHAR
STARTCHAR 011C
ENCODING 284
SWIDTH 585 0
DWIDTH 26 0
BBX 22 37 2 0
BITMAP
007C00
00FC00
00CE00
018600
010300
020100
000000
000000
007F00
01FFC0
07FFE0
0FC3F0
1F00F8
1E0078
3C003C
380018
780000
700000
700000
F00000
F00000
E00000
E01FFC
E01FFC
F01FFC
F0001C
70001C
70001C
78001C
78001C
3C003C
3E003C
1F0078
0F81F0
07FFE0
03FFC0
00FF00
ENDCHAR
STARTCHAR 011D
ENCODING 285
SWIDTH 495 0
DWIDTH 22 0
BBX 21 38 2 -9
BITMAP
01E000
03E000
03F000
073000
0E1800
0C0C00
180400
000000
000000
07F860
1FFEF8
3FFFF0
7C0FE0
780780
F00380
E00380
E003C0
F00380
700780
780F80
3FFF00
3FFE00
7FFC00
73E000
700000
7C0000
3FE000
1FFE00
03FF00
000F80
000380
0003C0
F00380
F00780
7C1F80
3FFF00
1FFE00
07F800
ENDCHAR
STARTCHAR 011E
ENCODING 286
SWIDTH 585 0
DWIDTH 26 0
BBX 22 37 2 0
BITMAP
070180
070380
038780
03FF00
01FE00
003800
000000
000000
007F00
01FFC0
07FFE0
0FC3F0
1F00F8
1E0078
3C003C
380018
780000
700000
700000
F00000
F00000
E00000
E01FFC
E01FFC
F01FFC
F0001C
70001C
70001C
78001C
78001C
3C003C
3E003C
1F0078
0F81F0
07FFE0
03FFC0
00FF00
ENDCHAR
STARTCHAR 011F
ENCODING 287
SWIDTH 495 0
DWIDTH 22 0
BBX 21 38 2 -9
BITMAP
180E00
180E00
1C0C00
0E3C00
0FF800
07F000
000000
000000
000000
07F860
1FFEF8
3FFFF0
7C0FE0
780780
F00380
E00380
E003C0
F00380
700780
780F80
3FFF00
3FFE00
7FFC00
73E000
700000
7C0000
3FE000
1FFE00
03FF00
000F80
000380
0003C0
F00380
F00780
7C1F80
3FFF00
1FFE00
07F800
ENDCHAR
STARTCHAR 0120
ENCODING 288
SWIDTH 585 0
DWIDTH 26 0
BBX 22 36 2 0
BITMAP
007800
007800
007800
007800
000000
000000
000000
007F00
01FFC0
07FFE0
0FC3F0
1F00F8
1E0078
3C003C
380018
780000
700000
700000
F00000
F00000
E00000
E01FFC
E01FFC
F01FFC
F0001C
70001C
70001C
78001C
78001C
3C003C
3E003C
1F0078
0F81F0
07FFE0
03FFC0
00FF00
ENDCHAR
STARTCHAR 0121
ENCODING 289
SWIDTH 495 0
DWIDTH 22 0
BBX 21 37 2 -9
BITMAP
00C000
01E000
03E000
01E000
01C000
000000
000000
000000
07F860
1FFEF8
3FFFF0
7C0FE0
780780
F00380
E00380
E003C0
F00380
700780
780F80
3FFF00
3FFE00
7FFC00
73E000
700000
7C0000
3FE000
1FFE00
03FF00
000F80
000380
0003C0
F00380
F00780
7C1F80
3FFF00
1FFE00
07F800
ENDCHAR
STARTCHAR 0122
ENCODING 290
SWIDTH 585 0
DWIDTH 26 0
BBX 22 38 2 -9
BITMAP
007F00
01FFC0
07FFE0
0FC3F0
1F00F8
1E0078
3C003C
380018
780000
700000
700000
F00000
F00000
E00000
E01FFC
E01FFC
F01FFC
F0001C
70001C
70001C
78001C
78001C
3C003C
3E003C
1F0078
0F81F0
07FFE0
03FFC0
00FF00
001800
003C00
003E00
000700
000300
000300
008700
00FE00
00FC00
ENDCHAR
STARTCHAR 0123
ENCODING 291
SWIDTH 495 0
DWIDTH 22 0
BBX 21 40 2 -9
BITMAP
01F800
07F800
070800
060000
060000
070000
03E000
00E000
00C000
000000
000000
07F860
1FFEF8
3FFFF0
7C0FE0
780780
F00380
E00380
E003C0
F00380
700780
780F80
3FFF00
3FFE00
7FFC00
73E000
700000
7C0000
3FE000
1FFE00
03FF00
000F80
000380
0003C0
F00380
F00780
7C1F80
3FFF00
1FFE00
07F800
ENDCHAR
STARTCHAR 0124
ENCODING 292
SWIDTH 495 0
DWIDTH 22 0
BBX 18 37 2 0
BITMAP
01F000
03F000
03B800
071800
040C00
080400
000000
000000
E001C0
E001C0
E001C0
E001C0
E001C0
E001C0
E001C0
E001C0
E001C0
E001C0
E001C0
E001C0
E001C0
FFFFC0
FFFFC0
FFFFC0
E001C0
E001C0
E001C0
E001C0
E001C0
E001C0
E001C0
E001C0
E001C0
E001C0
E001C0
E001C0
E001C0
ENDCHAR
STARTCHAR 0125
ENCODING 293
SWIDTH 472 0
DWIDTH 21 0
BBX 18 37 2 0
BITMAP
03E000
03F000
077000
063800
0C1800
080C00
100400
000000
E00000
E00000
E00000
E00000
E00000
E00000
E00000
E00000
E00000
E3F800
EFFE00
FFFE00
FE0F00
FC0700
F80780
F00380
F00380
F00380
E003C0
E003C0
E003C0
E003C0
E003C0
E003C0
E003C0
E003C0
E003C0
E003C0
E003C0
ENDCHAR
STARTCHAR 0126
ENCODING 294
SWIDTH 652 0
DWIDTH 29 0
BBX 25 29 2 0
BITMAP
1E003C00
1E003C00
1E003C00
1E003C00
1E003C00
FFFFFF80
FFFFFF80
FFFFFF80
1E003C00
1E003C00
1E003C00
1E003C00
1E003C00
1FFFFC00
1FFFFC00
1FFFFC00
1E003C00
1E003C00
1E003C00
1E003C00
1E003C00
1E003C00
1E003C00
1E003C00
1E003C00
1E003C00
1E003C00
1E003C00
1E003C00
ENDCHAR
STARTCHAR 0127
ENCODING 295
SWIDTH 540 0
DWIDTH 24 0
BBX 21 29 2 0
BITMAP
1E0000
1E0000
1E0000
1E0000
FFFFC0
FFFFC0
FFFFC0
1E0000
1E0000
1E7F00
1FFF80
1FFFC0
1FC1E0
1F80F0
1F00F0
1F0070
1E0078
1E0078
1E0038
1E0038
1E0038
1E0038
1E0038
1E0038
1E0038
1E0038
1E0038
1E0038
1E0038
ENDCHAR
STARTCHAR 0128
ENCODING 296
SWIDTH 315 0
DWIDTH 14 0
BBX 16 37 -1 0
BITMAP
1C03
3F03
7F86
61FE
C0FC
C010
0000
0000
1FF8
1FF8
1FF8
1FF8
03C0
03C0
03C0
03C0
03C0
03C0
03C0
03C0
03C0
03C0
03C0
03C0
03C0
03C0
03C0
03C0
03C0
03C0
03C0
03C0
03C0
03C0
1FF8
1FF8
1FF8
ENDCHAR
STARTCHAR 0129
ENCODING 297
SWIDTH 157 0
DWIDTH 7 0
BBX 15 28 -4 0
BITMAP
3C06
7F06
7FC6
C1FE
C07C
0000
0000
0000
0380
0380
0380
0380
0380
0380
0380
0380
0380
0380
0380
0380
0380
0380
0380
0380
0380
0380
0380
0380
ENDCHAR
STARTCHAR 012A
ENCODING 298
SWIDTH 315 0
DWIDTH 14 0
BBX 10 35 2 0
BITMAP
FFC0
FFC0
FFC0
0000
0000
0000
FFC0
FFC0
FFC0
FFC0
1E00
1E00
1E00
1E00
1E00
1E00
1E00
1E00
1E00
1E00
1E00
1E00
1E00
1E00
1E00
1E00
1E00
1E00
1E00
1E00
1E00
1E00
FFC0
FFC0
FFC0
ENDCHAR
STARTCHAR 012B
ENCODING 299
SWIDTH 157 0
DWIDTH 7 0
BBX 11 26 -2 0
BITMAP
FFE0
FFE0
FFE0
0000
0000
0000
0E00
0E00
0E00
0E00
0E00
0E00
0E00
0E00
0E00
0E00
0E00
0E00
0E00
0E00
0E00
0E00
0E00
0E00
0E00
0E00
ENDCHAR
STARTCHAR 012C
ENCODING 300
SWIDTH 315 0
DWIDTH 14 0
BBX 12 37 1 0
BITMAP
E070
E070
70E0
7FE0
3FC0
0600
0000
0000
7FE0
7FE0
7FE0
7FE0
0F00
0F00
0F00
0F00
0F00
0F00
0F00
0F00
0F00
0F00
0F00
0F00
0F00
0F00
0F00
0F00
0F00
0F00
0F00
0F00
0F00
0F00
7FE0
7FE0
7FE0
ENDCHAR
STARTCHAR 012D
ENCODING 301
SWIDTH 157 0
DWIDTH 7 0
BBX 12 29 -2 0
BITMAP
C070
E070
E060
71E0
7FC0
1F80
0000
0000
0000
0E00
0E00
0E00
0E00
0E00
0E00
0E00
0E00
0E00
0E00
0E00
0E00
0E00
0E00
0E00
0E00
0E00
0E00
0E00
0E00
ENDCHAR
STARTCHAR 012E
ENCODING 302
SWIDTH 315 0
DWIDTH 14 0
BBX 13 37 2 -8
BITMAP
FFC0
FFC0
FFC0
FFC0
1E00
1E00
1E00
1E00
1E00
1E00
1E00
1E00
1E00
1E00
1E00
1E00
1E00
1E00
1E00
1E00
1E00
1E00
1E00
1E00
1E00
1E00
FFC0
FFC0
FFC0
0C00
0C00
0C00
0E00
0E00
0F80
07F8
03E0
ENDCHAR
STARTCHAR 012F
ENCODING 303
SWIDTH 157 0
DWIDTH 7 0
BBX 11 36 1 -8
BITMAP
3000
7800
F800
7800
7000
0000
0000
0000
7000
7000
7000
7000
7000
7000
7000
7000
7000
7000
7000
7000
7000
7000
7000
7000
7000
7000
7000
7000
2000
6000
7000
7000
7800
3C20
1FC0
0F00
ENDCHAR
STARTCHAR 0130
ENCODING 304
SWIDTH 315 0
DWIDTH 14 0
BBX 10 36 2 0
BITMAP
1E00
1E00
1E00
1E00
0000
0000
0000
FFC0
FFC0
FFC0
FFC0
1E00
1E00
1E00
1E00
1E00
1E00
1E00
1E00
1E00
1E00
1E00
1E00
1E00
1E00
1E00
1E00
1E00
1E00
1E00
1E00
1E00
1E00
FFC0
FFC0
FFC0
ENDCHAR
STARTCHAR 0131
ENCODING 305
SWIDTH 157 0
DWIDTH 7 0
BBX 3 20 2 0
BITMAP
E0
E0
E0
E0
E0
E0
E0
E0
E0
E0
E0
E0
E0
E0
E0
E0
E0
E0
E0
E0
ENDCHAR
STARTCHAR 0132
ENCODING 306
SWIDTH 630 0
DWIDTH 28 0
BBX 24 29 2 0
BITMAP
FFC007
FFC007
FFC007
FFC007
1E0007
1E0007
1E0007
1E0007
1E0007
1E0007
1E0007
1E0007
1E0007
1E0007
1E0007
1E0007
1E0007
1E0007
1E0007
1E0007
1E0007
1E0007
1E0007
1E0E07
1E0E07
1E0F0F
FFC7FE
FFC3FC
FFC1F8
ENDCHAR
STARTCHAR 0133
ENCODING 307
SWIDTH 337 0
DWIDTH 15 0
BBX 13 37 1 -9
BITMAP
3070
78F0
F8F8
78F8
7070
0000
0000
0000
7070
7070
7070
7070
7070
7070
7070
7070
7070
7070
7070
7070
7070
7070
7070
7070
7070
7070
7070
7070
0070
0070
0070
0070
00F0
09F0
1FE0
3FC0
1F80
ENDCHAR
STARTCHAR 0134
ENCODING 308
SWIDTH 360 0
DWIDTH 16 0
BBX 16 37 2 0
BITMAP
00F8
00FC
01DC
038E
0306
0603
0000
0000
0070
0070
0070
0070
0070
0070
0070
0070
0070
0070
0070
0070
0070
0070
0070
0070
0070
0070
0070
0070
0070
0070
0070
E070
F070
70F0
7FE0
3FE0
1F80
ENDCHAR
STARTCHAR 0135
ENCODING 309
SWIDTH 157 0
DWIDTH 7 0
BBX 14 38 -5 -9
BITMAP
01E0
03E0
03F0
0730
0E18
0C0C
1804
0000
0000
01C0
01C0
01C0
01C0
01C0
01C0
01C0
01C0
01C0
01C0
01C0
01C0
01C0
01C0
01C0
01C0
01C0
01C0
01C0
01C0
01C0
01C0
01C0
01C0
01C0
23C0
7F80
FF00
3E00
ENDCHAR
STARTCHAR 0136
ENCODING 310
SWIDTH 540 0
DWIDTH 24 0
BBX 20 38 2 -9
BITMAP
E003C0
E00780
E00F00
E00F00
E01E00
E03C00
E07800
E07800
E0F000
E1E000
E1E000
E3C000
E78000
EF8000
EFC000
FFC000
FDE000
FCF000
F87800
F07800
F03C00
E01E00
E01E00
E00F00
E00780
E00780
E003C0
E001E0
E000F0
01C000
01C000
01F000
003800
001800
001800
043800
07F000
07E000
ENDCHAR
STARTCHAR 0137
ENCODING 311
SWIDTH 427 0
DWIDTH 19 0
BBX 15 38 2 -9
BITMAP
E000
E000
E000
E000
E000
E000
E000
E000
E000
E078
E0F0
E1E0
E1E0
E3C0
E780
E780
EF00
FE00
FF00
FF80
FF80
F3C0
F1E0
E0F0
E0F0
E078
E03C
E03C
E01E
0300
0780
07C0
00E0
0060
0060
10E0
1FC0
1F80
ENDCHAR
STARTCHAR 0138
ENCODING 312
SWIDTH 427 0
DWIDTH 19 0
BBX 15 20 2 0
BITMAP
E078
E0F0
E1E0
E1E0
E3C0
E780
E780
EF00
FE00
FF00
FF80
FF80
F3C0
F1E0
E0F0
E0F0
E078
E03C
E03C
E01E
ENDCHAR
STARTCHAR 0139
ENCODING 313
SWIDTH 495 0
DWIDTH 22 0
BBX 18 37 2 0
BITMAP
003C00
007800
006000
00C000
008000
010000
000000
000000
E00000
E00000
E00000
E00000
E00000
E00000
E00000
E00000
E00000
E00000
E00000
E00000
E00000
E00000
E00000
E00000
E00000
E00000
E00000
E00000
E00000
E00000
E00000
E00000
E00000
E00000
FFFFC0
FFFFC0
FFFFC0
ENDCHAR
STARTCHAR 013A
ENCODING 314
SWIDTH 225 0
DWIDTH 10 0
BBX 7 37 2 0
BITMAP
1E
3C
38
70
60
C0
80
00
E0
E0
E0
E0
E0
E0
E0
E0
E0
E0
E0
E0
E0
E0
E0
E0
E0
E0
E0
E0
E0
E0
E0
E0
E0
E0
FE
7E
7E
ENDCHAR
STARTCHAR 013B
ENCODING 315
SWIDTH 495 0
DWIDTH 22 0
BBX 18 38 2 -9
BITMAP
E00000
E00000
E00000
E00000
E00000
E00000
E00000
E00000
E00000
E00000
E00000
E00000
E00000
E00000
E00000
E00000
E00000
E00000
E00000
E00000
E00000
E00000
E00000
E00000
E00000
E00000
FFFFC0
FFFFC0
FFFFC0
00E000
00E000
01F800
003C00
000C00
000C00
021C00
03F800
03F000
ENDCHAR
STARTCHAR 013C
ENCODING 316
SWIDTH 225 0
DWIDTH 10 0
BBX 8 38 2 -9
BITMAP
E0
E0
E0
E0
E0
E0
E0
E0
E0
E0
E0
E0
E0
E0
E0
E0
E0
E0
E0
E0
E0
E0
E0
E0
E0
E0
FE
FE
7E
30
38
7E
0F
03
03
87
FE
F8
ENDCHAR
STARTCHAR 013D
ENCODING 317
SWIDTH 495 0
DWIDTH 22 0
BBX 18 29 2 0
BITMAP
E1E000
E1F000
E1F000
E1F000
E0F000
E01000
E01000
E03000
E06000
E0C000
E18000
E20000
E00000
E00000
E00000
E00000
E00000
E00000
E00000
E00000
E00000
E00000
E00000
E00000
E00000
E00000
FFFFC0
FFFFC0
FFFFC0
ENDCHAR
STARTCHAR 013E
ENCODING 318
SWIDTH 225 0
DWIDTH 10 0
BBX 11 29 2 0
BITMAP
E380
E3E0
E7E0
E3E0
E1E0
E020
E060
E060
E0C0
E180
E300
E400
E000
E000
E000
E000
E000
E000
E000
E000
E000
E000
E000
E000
E000
E000
FE00
7E00
7E00
ENDCHAR
STARTCHAR 013F
ENCODING 319
SWIDTH 495 0
DWIDTH 22 0
BBX 18 29 2 0
BITMAP
E00000
E00000
E00000
E00000
E00000
E00000
E00000
E00000
E00000
E00000
E00000
E00000
E06000
E0F000
E0F800
E0F000
E07000
E00000
E00000
E00000
E00000
E00000
E00000
E00000
E00000
E00000
FFFFC0
FFFFC0
FFFFC0
ENDCHAR
STARTCHAR 0140
ENCODING 320
SWIDTH 337 0
DWIDTH 15 0
BBX 11 29 2 0
BITMAP
E000
E000
E000
E000
E000
E000
E000
E000
E000
E000
E000
E000
E0C0
E1E0
E1E0
E1E0
E0E0
E000
E000
E000
E000
E000
E000
E000
E000
E000
FE00
7E00
7E00
ENDCHAR
STARTCHAR 0141
ENCODING 321
SWIDTH 585 0
DWIDTH 26 0
BBX 23 29 2 0
BITMAP
070000
070000
070000
070000
070000
070000
070000
070000
070000
070000
070000
073000
07F000
07F000
3FE000
FF8000
FF0000
E70000
070000
070000
070000
070000
070000
070000
070000
070000
07FFFE
07FFFE
07FFFE
ENDCHAR
STARTCHAR 0142
ENCODING 322
SWIDTH 360 0
DWIDTH 16 0
BBX 12 29 2 0
BITMAP
0700
0700
0700
0700
0700
0700
0700
0700
0700
0700
0700
0730
07F0
07F0
3FE0
FF80
FF00
E700
0700
0700
0700
0700
0700
0700
0700
0700
07E0
07E0
03E0
ENDCHAR
STARTCHAR 0143
ENCODING 323
SWIDTH 585 0
DWIDTH 26 0
BBX 23 37 2 0
BITMAP
000F00
001E00
001C00
003800
003000
006000
000000
000000
F0000E
F0000E
F8000E
FC000E
FC000E
FE000E
EF000E
EF000E
E7800E
E3C00E
E1E00E
E1E00E
E0F00E
E0780E
E0780E
E03C0E
E01E0E
E01E0E
E00F0E
E0078E
E003CE
E003CE
E001EE
E000FE
E000FE
E0007E
E0003E
E0003E
E0001E
ENDCHAR
STARTCHAR 0144
ENCODING 324
SWIDTH 472 0
DWIDTH 21 0
BBX 18 29 2 0
BITMAP
003C00
007800
007000
00E000
00C000
018000
030000
000000
000000
E3F800
EFFE00
FFFE00
FE0F00
FC0700
F80780
F00380
F00380
F00380
E003C0
E003C0
E003C0
E003C0
E003C0
E003C0
E003C0
E003C0
E003C0
E003C0
E003C0
ENDCHAR
STARTCHAR 0145
ENCODING 325
SWIDTH 585 0
DWIDTH 26 0
BBX 23 38 2 -9
BITMAP
F0000E
F0000E
F8000E
FC000E
FC000E
FE000E
EF000E
EF000E
E7800E
E3C00E
E1E00E
E1E00E
E0F00E
E0780E
E0780E
E03C0E
E01E0E
E01E0E
E00F0E
E0078E
E003CE
E003CE
E001EE
E000FE
E000FE
E0007E
E0003E
E0003E
E0001E
003000
003800
007E00
000E00
000700
000300
000E00
01FE00
01F800
ENDCHAR
STARTCHAR 0146
ENCODING 326
SWIDTH 472 0
DWIDTH 21 0
BBX 18 29 2 -9
BITMAP
E3F800
EFFE00
FFFE00
FE0F00
FC0700
F80780
F00380
F00380
F00380
E003C0
E003C0
E003C0
E003C0
E003C0
E003C0
E003C0
E003C0
E003C0
E003C0
E003C0
00C000
01E000
01F000
003800
001800
001800
043800
07F000
07E000
ENDCHAR
STARTCHAR 0147
ENCODING 327
SWIDTH 585 0
DWIDTH 26 0
BBX 23 37 2 0
BITMAP
030180
018300
01C700
00EE00
00FC00
007C00
000000
000000
F0000E
F0000E
F8000E
FC000E
FC000E
FE000E
EF000E
EF000E
E7800E
E3C00E
E1E00E
E1E00E
E0F00E
E0780E
E0780E
E03C0E
E01E0E
E01E0E
E00F0E
E0078E
E003CE
E003CE
E001EE
E000FE
E000FE
E0007E
E0003E
E0003E
E0001E
ENDCHAR
STARTCHAR 0148
ENCODING 328
SWIDTH 472 0
DWIDTH 21 0
BBX 18 29 2 0
BITMAP
100400
080C00
0E1800
073800
03F000
03F000
01E000
000000
000000
E3F800
EFFE00
FFFE00
FE0F00
FC0700
F80780
F00380
F00380
F00380
E003C0
E003C0
E003C0
E003C0
E003C0
E003C0
E003C0
E003C0
E003C0
E003C0
E003C0
ENDCHAR
STARTCHAR 0149
ENCODING 329
SWIDTH 585 0
DWIDTH 26 0
BBX 22 29 2 0
BITMAP
700000
F80000
FC0000
FC0000
7C0000
0C0000
0C0000
080000
180000
373FC0
C77FE0
07FFF0
07F0F0
07C078
078038
078038
07003C
07001C
07001C
07001C
07001C
07001C
07001C
07001C
07001C
07001C
07001C
07001C
07001C
ENDCHAR
STARTCHAR 014A
ENCODING 330
SWIDTH 540 0
DWIDTH 24 0
BBX 21 29 2 0
BITMAP
E0FE00
E3FF80
E7FFC0
EF87C0
FF01E0
FE00E0
FC00F0
F80070
F80070
F00078
F00078
F00078
F00038
E00038
E00038
E00038
E00038
E00038
E00038
E00038
E00038
E00038
E00038
E00038
E00078
E00070
E00FF0
E01FE0
E01FC0
ENDCHAR
STARTCHAR 014B
ENCODING 331
SWIDTH 472 0
DWIDTH 21 0
BBX 18 29 2 -9
BITMAP
E3F800
EFFE00
FFFE00
FE0F00
FC0700
F80780
F00380
F00380
F00380
E003C0
E003C0
E003C0
E003C0
E003C0
E003C0
E003C0
E003C0
E003C0
E003C0
E003C0
0003C0
0003C0
0003C0
0003C0
000380
004780
00FF00
00FF00
007C00
ENDCHAR
STARTCHAR 014C
ENCODING 332
SWIDTH 630 0
DWIDTH 28 0
BBX 24 35 2 0
BITMAP
01FFC0
01FFC0
01FFC0
000000
000000
000000
007F00
01FFC0
07FFE0
0FC3F0
1F00F8
1E0078
3C003C
38001E
78001E
70000E
70000F
F0000F
F00007
E00007
E00007
E00007
F00007
F00007
70000F
70000E
78000E
78001E
3C003C
3E003C
1F0078
0F81F0
07FFE0
03FFC0
00FF00
ENDCHAR
STARTCHAR 014D
ENCODING 333
SWIDTH 472 0
DWIDTH 21 0
BBX 18 26 2 0
BITMAP
1FFC00
1FFC00
1FFC00
000000
000000
000000
07F000
0FFC00
1FFE00
3E1F00
780F00
780780
700380
F00380
F00380
E003C0
E003C0
F00380
F00380
700380
780780
780F00
3E1F00
1FFE00
0FFC00
07F000
ENDCHAR
STARTCHAR 014E
ENCODING 334
SWIDTH 630 0
DWIDTH 28 0
BBX 24 37 2 0
BITMAP
0381C0
0381C0
01C3C0
01FF80
00FF00
001800
000000
000000
007F00
01FFC0
07FFE0
0FC3F0
1F00F8
1E0078
3C003C
38001E
78001E
70000E
70000F
F0000F
F00007
E00007
E00007
E00007
F00007
F00007
70000F
70000E
78000E
78001E
3C003C
3E003C
1F0078
0F81F0
07FFE0
03FFC0
00FF00
ENDCHAR
STARTCHAR 014F
ENCODING 335
SWIDTH 472 0
DWIDTH 21 0
BBX 18 29 2 0
BITMAP
180E00
1C0E00
1C0E00
0E3C00
0FF800
03F000
000000
000000
000000
07F000
0FFC00
1FFE00
3E1F00
780F00
780780
700380
F00380
F00380
E003C0
E003C0
F00380
F00380
700380
780780
780F00
3E1F00
1FFE00
0FFC00
07F000
ENDCHAR
STARTCHAR 0150
ENCODING 336
SWIDTH 630 0
DWIDTH 28 0
BBX 24 37 2 0
BITMAP
003C78
0038E0
0070C0
006180
00C100
008200
000000
000000
007F00
01FFC0
07FFE0
0FC3F0
1F00F8
1E0078
3C003C
38001E
78001E
70000E
70000F
F0000F
F00007
E00007
E00007
E00007
F00007
F00007
70000F
70000E
78000E
78001E
3C003C
3E003C
1F0078
0F81F0
07FFE0
03FFC0
00FF00
ENDCHAR
STARTCHAR 0151
ENCODING 337
SWIDTH 472 0
DWIDTH 21 0
BBX 18 29 2 0
BITMAP
01E3C0
01C780
038700
030E00
060C00
041800
081000
000000
000000
07F000
0FFC00
1FFE00
3E1F00
780F00
780780
700380
F00380
F00380
E003C0
E003C0
F00380
F00380
700380
780780
780F00
3E1F00
1FFE00
0FFC00
07F000
ENDCHAR
STARTCHAR 0152
ENCODING 338
SWIDTH 967 0
DWIDTH 43 0
BBX 39 29 2 0
BITMAP
007F07FFFE
01FFC7FFFE
07FFE7FFFE
0FC3F7FFFE
1F00FF0000
1E007F0000
3C003F0000
38001F0000
78001F0000
70000F0000
70000F0000
F0000F0000
F000070000
E00007FFF0
E00007FFF0
E00007FFF0
F000070000
F000070000
70000F0000
70000F0000
78000F0000
78001F0000
3C003F0000
3E003F0000
1F007F0000
0F81F70000
07FFE7FFFE
03FFC7FFFE
00FF07FFFE
ENDCHAR
STARTCHAR 0153
ENCODING 339
SWIDTH 787 0
DWIDTH 35 0
BBX 32 20 2 0
BITMAP
07F01FE0
0FFC3FF0
1FFE7FF8
3E1FF87C
780FF03C
7807E01E
7003C00E
F003FFFE
F003FFFF
E003FFFF
E003FFFF
F003C000
F003C000
7003C000
7807E01C
780FE03C
3E1FF87C
1FFE7FF8
0FFC3FF0
07F01FE0
ENDCHAR
STARTCHAR 0154
ENCODING 340
SWIDTH 517 0
DWIDTH 23 0
BBX 19 37 2 0
BITMAP
007800
007000
00E000
00C000
018000
010000
000000
000000
FFC000
FFF800
FFFE00
FFFE00
E00F00
E00780
E00380
E00380
E00380
E00380
E00380
E00780
E00F00
FFFF00
FFFE00
FFF800
FFF000
E07800
E03C00
E03C00
E01E00
E00E00
E00F00
E00780
E00780
E003C0
E003C0
E001E0
E000E0
ENDCHAR
STARTCHAR 0155
ENCODING 341
SWIDTH 337 0
DWIDTH 15 0
BBX 11 29 2 0
BITMAP
03E0
03C0
0700
0600
0C00
0800
1000
0000
0000
E3E0
EFE0
FFC0
FE00
FC00
F800
F000
F000
F000
E000
E000
E000
E000
E000
E000
E000
E000
E000
E000
E000
ENDCHAR
STARTCHAR 0156
ENCODING 342
SWIDTH 472 0
DWIDTH 21 0
BBX 19 38 2 -9
BITMAP
FFC000
FFF800
FFFE00
FFFE00
E00F00
E00780
E00380
E00380
E00380
E00380
E00380
E00780
E00F00
FFFF00
FFFE00
FFF800
FFF000
E07800
E03C00
E03C00
E01E00
E00E00
E00F00
E00780
E00780
E003C0
E003C0
E001E0
E000E0
00C000
01E000
01F000
003800
001800
001800
043800
07F000
07E000
ENDCHAR
STARTCHAR 0157
ENCODING 343
SWIDTH 337 0
DWIDTH 15 0
BBX 13 29 0 -9
BITMAP
38F8
3BF8
3FF0
3F80
3F00
3E00
3C00
3C00
3C00
3800
3800
3800
3800
3800
3800
3800
3800
3800
3800
3800
3800
3C00
3E00
0700
0300
0300
8700
FE00
FC00
ENDCHAR
STARTCHAR 0158
ENCODING 344
SWIDTH 517 0
DWIDTH 23 0
BBX 19 37 2 0
BITMAP
080400
0C0800
061800
077000
03F000
03E000
000000
000000
FFC000
FFF800
FFFE00
FFFE00
E00F00
E00780
E00380
E00380
E00380
E00380
E00380
E00780
E00F00
FFFF00
FFFE00
FFF800
FFF000
E07800
E03C00
E03C00
E01E00
E00E00
E00F00
E00780
E00780
E003C0
E003C0
E001E0
E000E0
ENDCHAR
STARTCHAR 0159
ENCODING 345
SWIDTH 337 0
DWIDTH 15 0
BBX 11 29 2 0
BITMAP
8020
4060
60C0
3180
3B80
1F00
1F00
0000
0000
E3E0
EFE0
FFC0
FE00
FC00
F800
F000
F000
F000
E000
E000
E000
E000
E000
E000
E000
E000
E000
E000
E000
ENDCHAR
STARTCHAR 015A
ENCODING 346
SWIDTH 472 0
DWIDTH 21 0
BBX 18 37 2 0
BITMAP
007800
007000
00E000
00C000
018000
010000
000000
000000
03F000
0FF800
1FFC00
3E3E00
3C0F00
780700
780700
780700
780000
780000
3C0000
3E0000
1F8000
0FE000
03F800
00FE00
003F00
000F00
000780
000380
000380
E003C0
F00380
700380
780780
3C0F00
3FFF00
1FFE00
07F800
ENDCHAR
STARTCHAR 015B
ENCODING 347
SWIDTH 382 0
DWIDTH 17 0
BBX 13 29 2 0
BITMAP
01F0
01E0
03C0
0380
0700
0600
0800
0000
0000
1FC0
3FE0
7FF0
7870
7078
7000
7800
7E00
3F80
0FE0
03F0
00F8
0078
0038
E038
F038
7878
7FF0
3FE0
1FC0
ENDCHAR
STARTCHAR 015C
ENCODING 348
SWIDTH 472 0
DWIDTH 21 0
BBX 18 37 2 0
BITMAP
03E000
03F000
073000
061800
0C0800
080400
000000
000000
03F000
0FF800
1FFC00
3E3E00
3C0F00
780700
780700
780700
780000
780000
3C0000
3E0000
1F8000
0FE000
03F800
00FE00
003F00
000F00
000780
000380
000380
E003C0
F00380
700380
780780
3C0F00
3FFF00
1FFE00
07F800
ENDCHAR
STARTCHAR 015D
ENCODING 349
SWIDTH 382 0
DWIDTH 17 0
BBX 13 29 2 0
BITMAP
0F80
0F80
1FC0
1CC0
3860
3020
6010
0000
0000
1FC0
3FE0
7FF0
7870
7078
7000
7800
7E00
3F80
0FE0
03F0
00F8
0078
0038
E038
F038
7878
7FF0
3FE0
1FC0
ENDCHAR
STARTCHAR 015E
ENCODING 350
SWIDTH 472 0
DWIDTH 21 0
BBX 18 38 2 -9
BITMAP
03F000
0FF800
1FFC00
3E3E00
3C0F00
780700
780700
780700
780000
780000
3C0000
3E0000
1F8000
0FE000
03F800
00FE00
003F00
000F00
000780
000380
000380
E003C0
F00380
700380
780780
3C0F00
3FFF00
1FFE00
07F800
01C000
01C000
01F000
003800
001800
001800
043800
07F000
07E000
ENDCHAR
STARTCHAR 015F
ENCODING 351
SWIDTH 382 0
DWIDTH 17 0
BBX 13 29 2 -9
BITMAP
0FC0
3FE0
7FF0
78F0
7078
7000
7800
7C00
3F80
0FE0
03F0
00F8
0078
0038
E038
F038
7878
7FF0
3FE0
1FC0
0600
0700
0FC0
01E0
0060
0060
10E0
1FC0
1F80
ENDCHAR
STARTCHAR 0160
ENCODING 352
SWIDTH 472 0
DWIDTH 21 0
BBX 18 37 2 0
BITMAP
080400
0C0800
061800
077000
03F000
03E000
000000
000000
03F000
0FF800
1FFC00
3E3E00
3C0F00
780700
780700
780700
780000
780000
3C0000
3E0000
1F8000
0FE000
03F800
00FE00
003F00
000F00
000780
000380
000380
E003C0
F00380
700380
780780
3C0F00
3FFF00
1FFE00
07F800
ENDCHAR
STARTCHAR 0161
ENCODING 353
SWIDTH 382 0
DWIDTH 17 0
BBX 13 29 2 0
BITMAP
4010
2030
3060
18E0
1DC0
0FC0
0F80
0000
0000
1FC0
3FE0
7FF0
7870
7078
7000
7800
7E00
3F80
0FE0
03F0
00F8
0078
0038
E038
F038
7878
7FF0
3FE0
1FC0
ENDCHAR
STARTCHAR 0162
ENCODING 354
SWIDTH 495 0
DWIDTH 22 0
BBX 18 38 2 -9
BITMAP
FFFFC0
FFFFC0
FFFFC0
FFFFC0
00E000
00E000
00E000
00E000
00E000
00E000
00E000
00E000
00E000
00E000
00E000
00E000
00E000
00E000
00E000
00E000
00E000
00E000
00E000
00E000
00E000
00E000
00E000
00E000
00E000
00C000
00E000
01F800
003800
000C00
000C00
003C00
07F800
03E000
ENDCHAR
STARTCHAR 0163
ENCODING 355
SWIDTH 337 0
DWIDTH 15 0
BBX 11 33 2 -9
BITMAP
0E00
0E00
0E00
0E00
FFE0
FFE0
FFE0
0E00
0E00
0E00
0E00
0E00
0E00
0E00
0E00
0E00
0E00
0E00
0E00
0E00
0E00
0FE0
0FE0
07E0
0600
0700
0FC0
01E0
0060
0060
10E0
1FC0
1F80
ENDCHAR
STARTCHAR 0164
ENCODING 356
SWIDTH 495 0
DWIDTH 22 0
BBX 18 37 2 0
BITMAP
0C0400
060C00
071800
03B800
03F000
01F000
000000
000000
FFFFC0
FFFFC0
FFFFC0
FFFFC0
00E000
00E000
00E000
00E000
00E000
00E000
00E000
00E000
00E000
00E000
00E000
00E000
00E000
00E000
00E000
00E000
00E000
00E000
00E000
00E000
00E000
00E000
00E000
00E000
00E000
ENDCHAR
STARTCHAR 0165
ENCODING 357
SWIDTH 495 0
DWIDTH 22 0
BBX 18 29 2 0
BITMAP
000700
000F80
000FC0
000FC0
0206C0
0E00C0
0E00C0
0E0080
0E0180
FFE300
FFEC00
FFF000
0E0000
0E0000
0E0000
0E0000
0E0000
0E0000
0E0000
0E0000
0E0000
0E0000
0E0000
0E0000
0E0000
0E0000
0FE000
0FE000
07E000
ENDCHAR
STARTCHAR 0166
ENCODING 358
SWIDTH 495 0
DWIDTH 22 0
BBX 18 29 2 0
BITMAP
FFFFC0
FFFFC0
FFFFC0
FFFFC0
00E000
00E000
00E000
00E000
00E000
00E000
00E000
00E000
00E000
3FFF80
3FFF80
3FFF80
00E000
00E000
00E000
00E000
00E000
00E000
00E000
00E000
00E000
00E000
00E000
00E000
00E000
ENDCHAR
STARTCHAR 0167
ENCODING 359
SWIDTH 337 0
DWIDTH 15 0
BBX 11 24 2 0
BITMAP
0E00
0E00
0E00
0E00
FFE0
FFE0
FFE0
0E00
0E00
0E00
0E00
0E00
FFE0
FFE0
FFE0
FFE0
0E00
0E00
0E00
0E00
0E00
0FE0
0FE0
07E0
ENDCHAR
STARTCHAR 0168
ENCODING 360
SWIDTH 585 0
DWIDTH 26 0
BBX 22 37 2 0
BITMAP
030060
07E060
0FF0C0
0C7FC0
1C1F80
180200
000000
000000
E0001C
E0001C
E0001C
E0001C
E0001C
E0001C
E0001C
E0001C
E0001C
E0001C
E0001C
E0001C
E0001C
E0001C
E0001C
E0001C
E0001C
E0001C
E0001C
E0001C
F0003C
700038
700038
780078
3C00F0
1F03E0
0FFFC0
07FF80
03FE00
ENDCHAR
STARTCHAR 0169
ENCODING 361
SWIDTH 472 0
DWIDTH 21 0
BBX 18 28 2 0
BITMAP
1E0300
3F8300
3BE300
60FF00
603E00
000000
000000
000000
E003C0
E003C0
E003C0
E003C0
E003C0
E003C0
E003C0
E003C0
E003C0
E003C0
E003C0
E003C0
F003C0
7007C0
7007C0
780FC0
3C3FC0
3FFFC0
1FFBC0
0FF3C0
ENDCHAR
STARTCHAR 016A
ENCODING 362
SWIDTH 585 0
DWIDTH 26 0
BBX 22 35 2 0
BITMAP
03FF00
03FF00
03FF00
000000
000000
000000
E0001C
E0001C
E0001C
E0001C
E0001C
E0001C
E0001C
E0001C
E0001C
E0001C
E0001C
E0001C
E0001C
E0001C
E0001C
E0001C
E0001C
E0001C
E0001C
E0001C
F0003C
700038
700038
780078
3C00F0
1F03E0
0FFFC0
07FF80
03FE00
ENDCHAR
STARTCHAR 016B
ENCODING 363
SWIDTH 472 0
DWIDTH 21 0
BBX 18 26 2 0
BITMAP
1FFC00
1FFC00
1FFC00
000000
000000
000000
E003C0
E003C0
E003C0
E003C0
E003C0
E003C0
E003C0
E003C0
E003C0
E003C0
E003C0
E003C0
F003C0
7007C0
7007C0
780FC0
3C3FC0
3FFFC0
1FFBC0
0FF3C0
ENDCHAR
STARTCHAR 016C
ENCODING 364
SWIDTH 585 0
DWIDTH 26 0
BBX 22 37 2 0
BITMAP
070380
070380
038700
03FF00
01FE00
003000
000000
000000
E0001C
E0001C
E0001C
E0001C
E0001C
E0001C
E0001C
E0001C
E0001C
E0001C
E0001C
E0001C
E0001C
E0001C
E0001C
E0001C
E0001C
E0001C
E0001C
E0001C
F0003C
700038
700038
780078
3C00F0
1F03E0
0FFFC0
07FF80
03FE00
ENDCHAR
STARTCHAR 016D
ENCODING 365
SWIDTH 472 0
DWIDTH 21 0
BBX 18 29 2 0
BITMAP
180E00
1C0E00
1C0E00
0E3C00
0FF800
03F000
000000
000000
000000
E003C0
E003C0
E003C0
E003C0
E003C0
E003C0
E003C0
E003C0
E003C0
E003C0
E003C0
E003C0
F003C0
7007C0
7007C0
780FC0
3C3FC0
3FFFC0
1FFBC0
0FF3C0
ENDCHAR
STARTCHAR 016E
ENCODING 366
SWIDTH 585 0
DWIDTH 26 0
BBX 22 38 2 0
BITMAP
007800
00FC00
01FE00
018600
018600
00FC00
00FC00
003000
000000
E0001C
E0001C
E0001C
E0001C
E0001C
E0001C
E0001C
E0001C
E0001C
E0001C
E0001C
E0001C
E0001C
E0001C
E0001C
E0001C
E0001C
E0001C
E0001C
E0001C
F0003C
700038
700038
780078
3C00F0
1F03E0
0FFFC0
07FF80
03FE00
ENDCHAR
STARTCHAR 016F
ENCODING 367
SWIDTH 472 0
DWIDTH 21 0
BBX 18 29 2 0
BITMAP
01E000
03F000
073000
063800
063800
03F000
03E000
000000
000000
E003C0
E003C0
E003C0
E003C0
E003C0
E003C0
E003C0
E003C0
E003C0
E003C0
E003C0
E003C0
F003C0
7007C0
7007C0
780FC0
3C3FC0
3FFFC0
1FFBC0
0FF3C0
ENDCHAR
STARTCHAR 0170
ENCODING 368
SWIDTH 585 0
DWIDTH 26 0
BBX 22 37 2 0
BITMAP
0078F0
0071C0
00E180
00C300
018200
030400
000000
000000
E0001C
E0001C
E0001C
E0001C
E0001C
E0001C
E0001C
E0001C
E0001C
E0001C
E0001C
E0001C
E0001C
E0001C
E0001C
E0001C
E0001C
E0001C
E0001C
E0001C
F0003C
700038
700038
780078
3C00F0
1F03E0
0FFFC0
07FF80
03FE00
ENDCHAR
STARTCHAR 0171
ENCODING 369
SWIDTH 472 0
DWIDTH 21 0
BBX 18 29 2 0
BITMAP
01E3C0
01C780
038700
030E00
060C00
041800
081000
000000
000000
E003C0
E003C0
E003C0
E003C0
E003C0
E003C0
E003C0
E003C0
E003C0
E003C0
E003C0
E003C0
F003C0
7007C0
7007C0
780FC0
3C3FC0
3FFFC0
1FFBC0
0FF3C0
ENDCHAR
STARTCHAR 0172
ENCODING 370
SWIDTH 585 0
DWIDTH 26 0
BBX 22 37 2 -8
BITMAP
E0001C
E0001C
E0001C
E0001C
E0001C
E0001C
E0001C
E0001C
E0001C
E0001C
E0001C
E0001C
E0001C
E0001C
E0001C
E0001C
E0001C
E0001C
E0001C
E0001C
F0003C
700038
700038
780078
3C00F0
1F03E0
0FFFC0
07FF80
01FF00
003000
003000
003000
003800
003800
003E00
001FE0
000F80
ENDCHAR
STARTCHAR 0173
ENCODING 371
SWIDTH 472 0
DWIDTH 21 0
BBX 22 28 2 -8
BITMAP
E003C0
E003C0
E003C0
E003C0
E003C0
E003C0
E003C0
E003C0
E003C0
E003C0
E003C0
E003C0
F003C0
7007C0
7007C0
780FC0
3C3FC0
3FFFC0
1FFBC0
0FF3C0
000600
000600
000E00
000E00
000700
0007C4
0003F8
0001F0
ENDCHAR
STARTCHAR 0174
ENCODING 372
SWIDTH 855 0
DWIDTH 38 0
BBX 34 37 2 0
BITMAP
0001F00000
0003F00000
0003380000
0006180000
00040C0000
0008040000
0000000000
0000000000
F001E001C0
F001E001C0
7001E003C0
7001F00380
7803F00380
3803F00780
3803F80780
3803F80700
3C07B80700
1C07380F00
1C073C0F00
1E071C0E00
1E0F1C0E00
0E0E1C1E00
0E0E1E1E00
0F1E0E1C00
0F1E0E1C00
071C0F3C00
071C0F3800
07BC073800
03BC077800
03B807F800
03B807F000
03F803F000
01F003F000
01F003F000
01F001E000
01F001E000
00E001E000
ENDCHAR
STARTCHAR 0175
ENCODING 373
SWIDTH 652 0
DWIDTH 29 0
BBX 25 29 2 0
BITMAP
003E0000
003E0000
007F0000
00630000
00C18000
00808000
01004000
00000000
00000000
F01C0780
703E0780
703E0700
703E0700
783E0F00
387F0F00
387F0E00
3C770E00
3C779E00
1CF79C00
1CE39C00
1EE39C00
0EE3FC00
0FE3F800
0FC1F800
0FC1F800
07C1F800
07C0F000
0780F000
0780F000
ENDCHAR
STARTCHAR 0176
ENCODING 374
SWIDTH 630 0
DWIDTH 28 0
BBX 24 37 2 0
BITMAP
003E00
007E00
006700
00C300
008180
010080
000000
000000
F0000F
78001E
3C001E
3C003C
1E0078
0F0078
0F00F0
0781E0
03C1E0
01E3C0
01E780
00FF00
007F00
007E00
003C00
001C00
001C00
001C00
001C00
001C00
001C00
001C00
001C00
001C00
001C00
001C00
001C00
001C00
001C00
ENDCHAR
STARTCHAR 0177
ENCODING 375
SWIDTH 495 0
DWIDTH 22 0
BBX 18 38 2 -9
BITMAP
01E000
03F000
03F000
073800
061800
0C0C00
080400
000000
000000
F001C0
7003C0
780380
780780
380780
3C0700
1C0F00
1C0E00
1E0E00
0E1E00
0E1C00
0F3C00
073C00
07B800
07F800
03F800
03F000
01F000
01E000
01E000
01E000
01C000
01C000
03C000
038000
078000
3F0000
3E0000
7C0000
ENDCHAR
STARTCHAR 0178
ENCODING 376
SWIDTH 630 0
DWIDTH 28 0
BBX 24 36 2 0
BITMAP
01C3C0
03E7C0
03E3C0
01C3C0
000000
000000
000000
F0000F
78001E
3C001E
3C003C
1E0078
0F0078
0F00F0
0781E0
03C1E0
01E3C0
01E780
00FF00
007F00
007E00
003C00
001C00
001C00
001C00
001C00
001C00
001C00
001C00
001C00
001C00
001C00
001C00
001C00
001C00
001C00
ENDCHAR
STARTCHAR 0179
ENCODING 377
SWIDTH 517 0
DWIDTH 23 0
BBX 20 37 2 0
BITMAP
003C00
003800
007000
006000
00C000
008000
000000
000000
FFFFF0
FFFFF0
FFFFF0
FFFFF0
0001E0
0003C0
0003C0
000780
000F00
000F00
001E00
003C00
007800
007800
00F000
01E000
01E000
03C000
078000
078000
0F0000
1E0000
3C0000
3C0000
780000
F00000
FFFFF0
FFFFF0
FFFFF0
ENDCHAR
STARTCHAR 017A
ENCODING 378
SWIDTH 382 0
DWIDTH 17 0
BBX 14 29 2 0
BITMAP
00F0
01E0
01C0
0380
0300
0600
0400
0000
0000
FFFC
FFFC
FFFC
0078
0078
00F0
01E0
01E0
03C0
0780
0780
0F00
1E00
3C00
3C00
7800
F000
FFFC
FFFC
FFFC
ENDCHAR
STARTCHAR 017B
ENCODING 379
SWIDTH 517 0
DWIDTH 23 0
BBX 20 36 2 0
BITMAP
00F000
00F000
00F000
00F000
000000
000000
000000
FFFFF0
FFFFF0
FFFFF0
FFFFF0
0001E0
0003C0
0003C0
000780
000F00
000F00
001E00
003C00
007800
007800
00F000
01E000
01E000
03C000
078000
078000
0F0000
1E0000
3C0000
3C0000
780000
F00000
FFFFF0
FFFFF0
FFFFF0
ENDCHAR
STARTCHAR 017C
ENCODING 380
SWIDTH 382 0
DWIDTH 17 0
BBX 14 28 2 0
BITMAP
0300
0780
0780
0780
0700
0000
0000
0000
FFFC
FFFC
FFFC
0078
0078
00F0
01E0
01E0
03C0
0780
0780
0F00
1E00
3C00
3C00
7800
F000
FFFC
FFFC
FFFC
ENDCHAR
STARTCHAR 017D
ENCODING 381
SWIDTH 517 0
DWIDTH 23 0
BBX 20 37 2 0
BITMAP
040200
060600
030C00
039800
01F800
01F000
000000
000000
FFFFF0
FFFFF0
FFFFF0
FFFFF0
0001E0
0003C0
0003C0
000780
000F00
000F00
001E00
003C00
007800
007800
00F000
01E000
01E000
03C000
078000
078000
0F0000
1E0000
3C0000
3C0000
780000
F00000
FFFFF0
FFFFF0
FFFFF0
ENDCHAR
STARTCHAR 017E
ENCODING 382
SWIDTH 382 0
DWIDTH 17 0
BBX 14 29 2 0
BITMAP
6010
3030
1860
1CE0
0FC0
0FC0
0780
0000
0000
FFFC
FFFC
FFFC
0078
0078
00F0
01E0
01E0
03C0
0780
0780
0F00
1E00
3C00
3C00
7800
F000
FFFC
FFFC
FFFC
ENDCHAR
STARTCHAR 017F
ENCODING 383
SWIDTH 157 0
DWIDTH 7 0
BBX 10 38 2 -10
BITMAP
0F80
3FC0
7F80
7900
F000
E000
E000
E000
E000
E000
E000
E000
E000
E000
E000
E000
E000
E000
E000
E000
E000
E000
E000
E000
E000
E000
E000
E000
E000
E000
E000
E000
E000
E000
E000
E000
E000
6000
ENDCHAR
STARTCHAR 0180
ENCODING 384
SWIDTH 472 0
DWIDTH 21 0
BBX 21 29 -1 0
BITMAP
1C0000
1C0000
1C0000
1C0000
FFE000
FFE000
FFE000
1C0000
1C0000
1CFE00
1DFF80
1FFFC0
1FC3E0
1F01E0
1F00F0
1E0070
1E0070
1E0070
1C0078
1C0078
1E0070
1E0070
1E0070
1F00F0
1F01E0
1FC3E0
1FFFC0
1DFF80
1CFE00
ENDCHAR
STARTCHAR 0181
ENCODING 385
SWIDTH 697 0
DWIDTH 31 0
BBX 27 29 2 0
BITMAP
03FFF000
1FFFFC00
3FFFFF00
7FFFFF80
F0700780
F07003C0
E07003C0
F07001C0
707001C0
607003C0
007003C0
00700780
007FFF00
007FFE00
007FFF00
00701F80
007003C0
007001E0
007001E0
007000E0
007000E0
007000E0
007001E0
007001E0
007003C0
00700F80
007FFF80
007FFE00
007FF800
ENDCHAR
STARTCHAR 0182
ENCODING 386
SWIDTH 495 0
DWIDTH 22 0
BBX 18 29 2 0
BITMAP
FFFE00
FFFE00
FFFE00
FFFE00
E00000
E00000
E00000
E00000
E00000
E00000
E00000
E00000
FFF000
FFFE00
FFFF00
E01F80
E00780
E003C0
E001C0
E001C0
E001C0
E001C0
E001C0
E003C0
E00780
E01F80
FFFF00
FFFE00
FFF800
ENDCHAR
STARTCHAR 0183
ENCODING 387
SWIDTH 472 0
DWIDTH 21 0
BBX 18 29 2 0
BITMAP
FFFE00
FFFE00
FFFE00
FFFE00
E00000
E00000
E00000
E00000
E00000
E7F000
EFFC00
FFFE00
FE1F00
F80F00
F80780
F00380
F00380
F00380
E003C0
E003C0
F00380
F00380
F00380
F80780
F80F00
FE1F00
FFFE00
EFFC00
E7F000
ENDCHAR
STARTCHAR 0184
ENCODING 388
SWIDTH 675 0
DWIDTH 30 0
BBX 25 29 3 0
BITMAP
01C00000
03C00000
07C00000
0FC00000
1FC00000
3DC00000
79C00000
F1C00000
E1C00000
41C00000
01C00000
01C00000
01FFE000
01FFF800
01FFFC00
01C07E00
01C00F00
01C00780
01C00780
01C00380
01C00380
01C00380
01C00780
01C00780
01C00F00
01C03E00
01FFFE00
01FFF800
01FFE000
ENDCHAR
STARTCHAR 0185
ENCODING 389
SWIDTH 495 0
DWIDTH 22 0
BBX 19 20 2 0
BITMAP
078000
0F8000
1F8000
3F8000
7F8000
FB8000
738000
23F800
03FF00
03FF80
03FFC0
0383C0
0381E0
0381E0
0381E0
0381C0
0383C0
03FF80
03FF80
03FE00
ENDCHAR
STARTCHAR 0186
ENCODING 390
SWIDTH 585 0
DWIDTH 26 0
BBX 22 29 2 0
BITMAP
01FC00
07FF00
1FFF80
3F0FC0
3C03E0
7801F0
F000F0
200078
000038
000038
00003C
00001C
00001C
00001C
00001C
00001C
00001C
00001C
00003C
00003C
000038
200078
700070
7800F0
7C01E0
3E07C0
1FFF80
0FFF00
03FE00
ENDCHAR
STARTCHAR 0187
ENCODING 391
SWIDTH 585 0
DWIDTH 26 0
BBX 29 36 2 0
BITMAP
000003E0
000007F8
00000FF0
00001F20
00001E00
00001C00
00001C00
007F1C00
01FFDC00
07FFFC00
0FC3FC00
1F00FC00
1E007C00
3C003C00
38001800
78000000
70000000
70000000
F0000000
F0000000
E0000000
E0000000
E0000000
F0000000
F0000000
70000000
70000000
78000000
78001000
3C003C00
3E003C00
1F007800
0F81F000
07FFE000
03FFC000
00FF0000
ENDCHAR
STARTCHAR 0188
ENCODING 392
SWIDTH 450 0
DWIDTH 20 0
BBX 23 29 2 0
BITMAP
000010
0000FE
0001FE
0003FC
000380
000780
000700
000700
000700
07F700
0FFF00
1FFF00
3E1F00
780F00
780700
700000
F00000
F00000
E00000
E00000
F00000
F00000
700000
780700
780F00
3E1F00
1FFE00
0FFC00
07F000
ENDCHAR
STARTCHAR 0189
ENCODING 393
SWIDTH 630 0
DWIDTH 28 0
BBX 24 29 2 0
BITMAP
FFF800
FFFF80
FFFFC0
FFFFF0
1E00F0
1E0078
1E003C
1E001C
1E000E
1E000E
1E0007
1E0007
1E0007
FFF807
FFF807
FFF807
1E0007
1E0007
1E0007
1E000E
1E000E
1E001E
1E001C
1E003C
1E00F8
1E03F0
FFFFE0
FFFF80
FFFE00
ENDCHAR
STARTCHAR 018A
ENCODING 394
SWIDTH 742 0
DWIDTH 33 0
BBX 29 29 2 0
BITMAP
07FFE000
1FFFFC00
3FFFFF00
7FFFFF80
F07007C0
F07003E0
E07001E0
F07000F0
70700070
60700078
00700038
00700038
00700038
00700038
00700038
00700038
00700038
00700038
00700038
00700078
00700070
007000F0
007001F0
007003E0
007007C0
00701F80
03FFFF00
03FFFE00
03FFF800
ENDCHAR
STARTCHAR 018B
ENCODING 395
SWIDTH 495 0
DWIDTH 22 0
BBX 18 29 2 0
BITMAP
1FFFC0
1FFFC0
1FFFC0
1FFFC0
0001C0
0001C0
0001C0
0001C0
0001C0
0001C0
0001C0
0001C0
03FFC0
0FFFC0
1FFFC0
3F01C0
7801C0
7001C0
F001C0
F001C0
E001C0
F001C0
F001C0
7001C0
7801C0
3F01C0
1FFFC0
0FFFC0
03FFC0
ENDCHAR
STARTCHAR 018C
ENCODING 396
SWIDTH 472 0
DWIDTH 21 0
BBX 18 29 2 0
BITMAP
3FFFC0
3FFFC0
3FFFC0
3FFFC0
0003C0
0003C0
0003C0
0003C0
0003C0
07F3C0
0FFFC0
1FFFC0
3E1FC0
780FC0
7807C0
7003C0
F003C0
F003C0
E003C0
E003C0
F003C0
F003C0
7003C0
7807C0
780FC0
3E1FC0
1FFFC0
0FFFC0
07F3C0
ENDCHAR
STARTCHAR 018D
ENCODING 397
SWIDTH 472 0
DWIDTH 21 0
BBX 18 29 2 -9
BITMAP
07F000
0FFC00
1FFE00
3E1F00
780F00
780780
700380
F00380
F00380
E003C0
E003C0
F00380
F00380
780380
7C0780
3E0F00
1F1F00
0FFE00
07FC00
03F000
01F000
00F000
007800
707800
707800
7CF000
3FF000
1FE000
0F8000
ENDCHAR
STARTCHAR 018E
ENCODING 398
SWIDTH 495 0
DWIDTH 22 0
BBX 18 29 2 0
BITMAP
FFFFC0
FFFFC0
FFFFC0
FFFFC0
0001C0
0001C0
0001C0
0001C0
0001C0
0001C0
0001C0
0001C0
0001C0
1FFFC0
1FFFC0
1FFFC0
0001C0
0001C0
0001C0
0001C0
0001C0
0001C0
0001C0
0001C0
0001C0
0001C0
FFFFC0
FFFFC0
FFFFC0
ENDCHAR
STARTCHAR 018F
ENCODING 399
SWIDTH 630 0
DWIDTH 28 0
BBX 24 29 2 0
BITMAP
007F00
01FFC0
07FFE0
0FC3F0
1F00F8
060078
00003C
00001E
00001E
00000E
00000F
00000F
000007
FFFFFF
FFFFFF
FFFFFF
F00007
F00007
70000F
70000E
78000E
78001E
3C003C
3E003C
1F0078
0F81F0
07FFE0
03FFC0
00FF00
ENDCHAR
STARTCHAR 0190
ENCODING 400
SWIDTH 472 0
DWIDTH 21 0
BBX 20 29 1 0
BITMAP
03F800
07FE00
1FFF00
3F0F80
3C03C0
7801C0
7801C0
7001E0
780000
780000
3C0000
3E0000
1FF000
0FF000
1FF000
3F8000
7C0000
780000
F00000
F00000
E00000
E000F0
F000E0
7001E0
7801E0
3E07C0
3FFF80
0FFF00
07FC00
ENDCHAR
STARTCHAR 0191
ENCODING 401
SWIDTH 495 0
DWIDTH 22 0
BBX 25 38 -5 -9
BITMAP
01FFFF80
01FFFF80
01FFFF80
01FFFF80
01C00000
01C00000
01C00000
01C00000
01C00000
01C00000
01C00000
01C00000
01C00000
01FFFE00
01FFFE00
01FFFE00
01C00000
01C00000
01C00000
01C00000
01C00000
01C00000
01C00000
01C00000
01C00000
01C00000
01C00000
01C00000
01C00000
01C00000
01C00000
01C00000
01C00000
01C00000
23C00000
7F800000
FF000000
3E000000
ENDCHAR
STARTCHAR 0192
ENCODING 402
SWIDTH 315 0
DWIDTH 14 0
BBX 17 38 -1 -9
BITMAP
001F00
007F80
00FF00
00F200
01E000
01C000
01C000
01C000
01C000
01C000
01C000
1FFC00
1FFC00
1FFC00
01C000
01C000
01C000
01C000
01C000
01C000
01C000
01C000
01C000
01C000
01C000
01C000
01C000
01C000
01C000
01C000
01C000
01C000
01C000
01C000
23C000
7F8000
FF0000
3E0000
ENDCHAR
STARTCHAR 0193
ENCODING 403
SWIDTH 585 0
DWIDTH 26 0
BBX 29 36 2 0
BITMAP
000003E0
000007F8
00000FF0
00001F20
00001E00
00001C00
00001C00
007F1C00
01FFDC00
07FFFC00
0FC3FC00
1F00FC00
1E007C00
3C003C00
38001800
78000000
70000000
70000000
F0000000
F0000000
E0000000
E01FFC00
E01FFC00
F01FFC00
F0001C00
70001C00
70001C00
78001C00
78001C00
3C003C00
3E003C00
1F007800
0F81F000
07FFE000
03FFC000
00FF0000
ENDCHAR
STARTCHAR 0194
ENCODING 404
SWIDTH 630 0
DWIDTH 28 0
BBX 24 38 2 -9
BITMAP
F00007
700007
70000F
78000E
38000E
3C001E
3C001C
1C003C
1E003C
1E0038
0E0078
0F0070
070070
0700F0
0780E0
0380E0
03C1E0
03C1C0
01C3C0
01E3C0
00E380
00E780
00F700
007700
007F00
007E00
003E00
003E00
003C00
003E00
007E00
007F00
007F00
00F700
00F700
007F00
007E00
003C00
ENDCHAR
STARTCHAR 0195
ENCODING 405
SWIDTH 697 0
DWIDTH 31 0
BBX 27 29 2 0
BITMAP
E0000000
E0000000
E0000000
E0000000
E0000000
E0000000
E0000000
E0000000
E0000000
E3F800E0
EFFE00E0
FFFE00E0
FE0F00E0
FC0700E0
F80780E0
F00380E0
F00380E0
F00380E0
E003C0E0
E003C0E0
E003C0E0
E003C0E0
E003C0E0
E003C0E0
E003C0E0
E001E1E0
E001FFC0
E000FF80
E0007F00
ENDCHAR
STARTCHAR 0196
ENCODING 406
SWIDTH 360 0
DWIDTH 16 0
BBX 12 29 2 0
BITMAP
E000
E000
E000
E000
E000
E000
E000
E000
E000
E000
E000
E000
E000
E000
E000
E000
E000
E000
E000
E000
E000
E000
E000
E070
F070
70F0
7FE0
3FE0
1F80
ENDCHAR
STARTCHAR 0197
ENCODING 407
SWIDTH 315 0
DWIDTH 14 0
BBX 10 29 2 0
BITMAP
FFC0
FFC0
FFC0
FFC0
1E00
1E00
1E00
1E00
1E00
1E00
1E00
1E00
1E00
FFC0
FFC0
FFC0
1E00
1E00
1E00
1E00
1E00
1E00
1E00
1E00
1E00
1E00
FFC0
FFC0
FFC0
ENDCHAR
STARTCHAR 0198
ENCODING 408
SWIDTH 540 0
DWIDTH 24 0
BBX 20 36 2 0
BITMAP
0F8000
3FC000
7F8000
790000
F00000
E00000
E00000
E003C0
E00780
E00F00
E00F00
E01E00
E03C00
E07800
E07800
E0F000
E1E000
E1E000
E3C000
E78000
EF8000
EFC000
FFC000
FDE000
FCF000
F87800
F07800
F03C00
E01E00
E01E00
E00F00
E00780
E00780
E003C0
E001E0
E000F0
ENDCHAR
STARTCHAR 0199
ENCODING 409
SWIDTH 427 0
DWIDTH 19 0
BBX 15 36 2 0
BITMAP
0F80
3FC0
7F80
7900
F000
E000
E000
E000
E000
E000
E000
E000
E000
E000
E000
E000
E078
E0F0
E1E0
E1E0
E3C0
E780
E780
EF00
FE00
FF00
FF80
FF80
F3C0
F1E0
E0F0
E0F0
E078
E03C
E03C
E01E
ENDCHAR
STARTCHAR 019A
ENCODING 410
SWIDTH 315 0
DWIDTH 14 0
BBX 10 29 2 0
BITMAP
1E00
1E00
1E00
1E00
1E00
1E00
1E00
1E00
1E00
1E00
1E00
1E00
1E00
FFC0
FFC0
FFC0
1E00
1E00
1E00
1E00
1E00
1E00
1E00
1E00
1E00
1E00
1FC0
0FC0
07C0
ENDCHAR
STARTCHAR 019B
ENCODING 411
SWIDTH 495 0
DWIDTH 22 0
BBX 18 29 2 0
BITMAP
7C0000
3E0000
3F0C00
07BC00
03FC00
0FFC00
7FE000
7FC000
39E000
21E000
01E000
01F000
03F000
03F800
07F800
07B800
073C00
0F3C00
0E1C00
0E1E00
1E0E00
1C0E00
1C0F00
3C0700
380780
780780
780380
7003C0
F003C0
ENDCHAR
STARTCHAR 019C
ENCODING 412
SWIDTH 607 0
DWIDTH 27 0
BBX 23 29 2 0
BITMAP
E0380E
E0380E
E0380E
E0380E
E0380E
E0380E
E0380E
E0380E
E0380E
E0380E
E0380E
E0380E
E0380E
E0380E
E0380E
E0380E
E0380E
E0380E
E0380E
E0380E
E0380E
E0381E
F0781E
70781E
70FC3E
70FC7E
3FFFFE
3FCFFE
1F87EE
ENDCHAR
STARTCHAR 019D
ENCODING 413
SWIDTH 585 0
DWIDTH 26 0
BBX 30 38 -5 -9
BITMAP
01E0001C
01E0001C
01F0001C
01F8001C
01F8001C
01FC001C
01DE001C
01DE001C
01CF001C
01C7801C
01C3C01C
01C3C01C
01C1E01C
01C0F01C
01C0F01C
01C0781C
01C03C1C
01C03C1C
01C01E1C
01C00F1C
01C0079C
01C0079C
01C003DC
01C001FC
01C001FC
01C000FC
01C0007C
01C0007C
01C0003C
01C00000
01C00000
01C00000
01C00000
01C00000
23C00000
7F800000
FF000000
3E000000
ENDCHAR
STARTCHAR 019E
ENCODING 414
SWIDTH 472 0
DWIDTH 21 0
BBX 18 30 2 -10
BITMAP
E3F800
EFFE00
FFFE00
FE0F00
FC0700
F80780
F00380
F00380
F00380
E003C0
E003C0
E003C0
E003C0
E003C0
E003C0
E003C0
E003C0
E003C0
E003C0
E003C0
0003C0
0003C0
0003C0
0003C0
0003C0
0003C0
0003C0
0003C0
0000C0
000040
ENDCHAR
STARTCHAR 019F
ENCODING 415
SWIDTH 630 0
DWIDTH 28 0
BBX 24 29 2 0
BITMAP
007F00
01FFC0
07FFE0
0FC3F0
1F00F8
1E0078
3C003C
38001E
78001E
70000E
70000F
F0000F
F00007
FFFFFF
FFFFFF
FFFFFF
F00007
F00007
70000F
70000E
78000E
78001E
3C003C
3E003C
1F0078
0F81F0
07FFE0
03FFC0
00FF00
ENDCHAR
STARTCHAR 01A0
ENCODING 416
SWIDTH 697 0
DWIDTH 31 0
BBX 29 29 2 0
BITMAP
007F00F0
01FFC0F8
07FFE1F8
0FC3F0F8
1F00F868
1E007808
3C003C18
38001E18
78001E30
70000E60
70000FC0
F0000F00
F0000700
E0000700
E0000700
E0000700
F0000700
F0000700
70000F00
70000E00
78000E00
78001E00
3C003C00
3E003C00
1F007800
0F81F000
07FFE000
03FFC000
00FF0000
ENDCHAR
STARTCHAR 01A1
ENCODING 417
SWIDTH 517 0
DWIDTH 23 0
BBX 22 25 2 0
BITMAP
000060
0000F8
0000F8
0000FC
00007C
07F00C
0FFC0C
1FFE08
3E1F18
780F30
7807E0
700380
F00380
F00380
E003C0
E003C0
F00380
F00380
700380
780780
780F00
3E1F00
1FFE00
0FFC00
07F000
ENDCHAR
STARTCHAR 01A2
ENCODING 418
SWIDTH 697 0
DWIDTH 31 0
BBX 27 38 2 -9
BITMAP
007E3FE0
01FFFFE0
07FFFFE0
0FC3FFE0
1F00F8E0
1E0078E0
3C0038E0
380038E0
780038E0
700038E0
700038E0
F00038E0
F00038E0
E00038E0
E00038E0
E00038E0
F00038E0
F00038E0
700038E0
700038E0
780038E0
780038E0
3C0038E0
3E0038E0
1F0078E0
0F81F0E0
07FFE0E0
03FFC0E0
00FF00E0
000000E0
000000E0
000000E0
000000E0
000000E0
000000E0
000000E0
000000E0
000000E0
ENDCHAR
STARTCHAR 01A3
ENCODING 419
SWIDTH 540 0
DWIDTH 24 0
BBX 21 30 2 -10
BITMAP
07FFF8
0FFFF8
1FFFF8
3E1C38
781C38
781C38
701C38
F01C38
F01C38
E01C38
E01C38
F01C38
F01C38
701C38
781C38
781C38
3E1C38
1FFC38
0FFC38
07F038
000038
000038
000038
000038
000038
000038
000038
000038
000018
000008
ENDCHAR
STARTCHAR 01A4
ENCODING 420
SWIDTH 675 0
DWIDTH 30 0
BBX 26 29 2 0
BITMAP
03FFE000
1FFFFC00
3FFFFE00
7FFFFF00
F0700F80
F0700380
E07003C0
F07001C0
707001C0
607001C0
007003C0
00700380
00700F80
007FFF00
007FFE00
007FFC00
007FE000
00700000
00700000
00700000
00700000
00700000
00700000
00700000
00700000
00700000
00700000
00700000
00700000
ENDCHAR
STARTCHAR 01A5
ENCODING 421
SWIDTH 472 0
DWIDTH 21 0
BBX 18 38 2 -10
BITMAP
0F8000
3FC000
7F8000
790000
F00000
E00000
E00000
E00000
E00000
E7F000
EFFC00
FFFE00
FE1F00
F80F00
F80780
F00380
F00380
F00380
E003C0
E003C0
F00380
F00380
F00380
F80780
F80F00
FE1F00
FFFE00
EFFC00
E7F000
E00000
E00000
E00000
E00000
E00000
E00000
E00000
E00000
600000
ENDCHAR
STARTCHAR 01A6
ENCODING 422
SWIDTH 472 0
DWIDTH 21 0
BBX 18 36 2 -7
BITMAP
E00000
E00000
E00000
E00000
E00000
E00000
E00000
FFF800
FFFC00
FFFE00
E01F00
E00780
E00380
E00380
E00380
E00380
E00780
E00780
E03F00
FFFE00
FFFC00
FFF800
E03C00
E01C00
E01E00
E00E00
E00E00
E00F00
E00700
000700
000780
000780
000380
000380
000380
0003C0
ENDCHAR
STARTCHAR 01A7
ENCODING 423
SWIDTH 472 0
DWIDTH 21 0
BBX 18 29 2 0
BITMAP
03F000
0FFC00
1FFE00
3E1E00
3C0F00
780700
780700
780700
000700
000700
000F00
003E00
00FC00
03F800
0FF000
1FC000
3E0000
7C0000
780000
F00000
F00000
E003C0
F00380
F00380
780780
7C1F00
3FFE00
1FFC00
07F800
ENDCHAR
STARTCHAR 01A8
ENCODING 424
SWIDTH 382 0
DWIDTH 17 0
BBX 13 20 2 0
BITMAP
0FC0
3FE0
7FF0
78F0
7078
0078
0070
01F0
07E0
1FC0
7E00
7800
F000
E000
E038
F038
7878
7FF0
3FE0
1FC0
ENDCHAR
STARTCHAR 01A9
ENCODING 425
SWIDTH 495 0
DWIDTH 22 0
BBX 18 29 2 0
BITMAP
FFFFC0
FFFFC0
FFFFC0
FFFFC0
780000
780000
3C0000
1E0000
0F0000
0F0000
078000
03C000
03C000
01E000
00F000
01E000
01E000
03C000
078000
078000
0F0000
1E0000
3C0000
3C0000
780000
F00000
FFFFC0
FFFFC0
FFFFC0
ENDCHAR
STARTCHAR 01AA
ENCODING 426
SWIDTH 360 0
DWIDTH 16 0
BBX 19 38 2 -9
BITMAP
0F8000
3FC000
7FE000
78F000
F07000
E07000
E07000
F07000
78F000
7FF000
3FF000
0FF000
007000
007000
007000
007000
007000
007000
007000
007000
007000
007000
007000
007000
007000
007000
007000
007000
007000
007000
007000
007000
007000
007800
003C00
003FC0
001FE0
000FC0
ENDCHAR
STARTCHAR 01AB
ENCODING 427
SWIDTH 337 0
DWIDTH 15 0
BBX 11 34 2 -9
BITMAP
0200
0E00
0E00
0E00
0E00
FFE0
FFE0
FFE0
0E00
0E00
0E00
0E00
0E00
0E00
0E00
0E00
0E00
0E00
0E00
0E00
0E00
0E00
0FE0
0FE0
07E0
01E0
01E0
01E0
01E0
01C0
23C0
7FC0
7F80
3E00
ENDCHAR
STARTCHAR 01AC
ENCODING 428
SWIDTH 585 0
DWIDTH 26 0
BBX 22 29 2 0
BITMAP
03FFFC
1FFFFC
3FFFFC
7FFFFC
F01C00
F01C00
E01C00
F01C00
701C00
601C00
001C00
001C00
001C00
001C00
001C00
001C00
001C00
001C00
001C00
001C00
001C00
001C00
001C00
001C00
001C00
001C00
001C00
001C00
001C00
ENDCHAR
STARTCHAR 01AD
ENCODING 429
SWIDTH 337 0
DWIDTH 15 0
BBX 14 29 2 0
BITMAP
00F8
03FC
07F8
0790
0F00
0E00
0E00
0E00
0E00
FFE0
FFE0
FFE0
0E00
0E00
0E00
0E00
0E00
0E00
0E00
0E00
0E00
0E00
0E00
0E00
0E00
0E00
0FE0
0FE0
07E0
ENDCHAR
STARTCHAR 01AE
ENCODING 430
SWIDTH 495 0
DWIDTH 22 0
BBX 18 38 2 -9
BITMAP
FFFFC0
FFFFC0
FFFFC0
FFFFC0
00E000
00E000
00E000
00E000
00E000
00E000
00E000
00E000
00E000
00E000
00E000
00E000
00E000
00E000
00E000
00E000
00E000
00E000
00E000
00E000
00E000
00E000
00E000
00E000
00E000
00E000
00E000
00E000
00E000
00E000
00F100
007F80
003FC0
001F00
ENDCHAR
STARTCHAR 01AF
ENCODING 431
SWIDTH 675 0
DWIDTH 30 0
BBX 28 29 2 0
BITMAP
E0001DE0
E0001DF0
E0001FF0
E0001DF0
E0001CB0
E0001C10
E0001C30
E0001C30
E0001C60
E0001CC0
E0001F00
E0001C00
E0001C00
E0001C00
E0001C00
E0001C00
E0001C00
E0001C00
E0001C00
E0001C00
F0003C00
70003800
70003800
78007800
3C00F000
1F03E000
0FFFC000
07FF8000
03FE0000
ENDCHAR
STARTCHAR 01B0
ENCODING 432
SWIDTH 562 0
DWIDTH 25 0
BBX 24 25 2 0
BITMAP
000018
00003E
00003E
00003E
00003F
E003C3
E003C2
E003C6
E003C4
E003CC
E003F0
E003E0
E003C0
E003C0
E003C0
E003C0
E003C0
F003C0
7007C0
7007C0
780FC0
3C3FC0
3FFFC0
1FFBC0
0FF3C0
ENDCHAR
STARTCHAR 01B1
ENCODING 433
SWIDTH 630 0
DWIDTH 28 0
BBX 24 29 2 0
BITMAP
FFC1FF
FFC1FF
FFC1FF
FFC1FF
1F00F8
1E0078
3C003C
38001E
78001E
70000E
70000F
F0000F
F00007
E00007
E00007
E00007
F00007
F00007
70000F
70000E
78000E
78001E
3C003C
3E003C
1F0078
0F81F0
07FFE0
03FFC0
00FF00
ENDCHAR
STARTCHAR 01B2
ENCODING 434
SWIDTH 585 0
DWIDTH 26 0
BBX 22 29 2 0
BITMAP
F003E0
7003F0
7001F8
78007C
38003C
3C001C
3C001C
1C003C
1E003C
1E0038
0E0078
0F0070
070070
0700F0
0780E0
0380E0
03C1E0
03C1C0
01C3C0
01E3C0
00E380
00E780
00F700
007700
007F00
007E00
003E00
003E00
003C00
ENDCHAR
STARTCHAR 01B3
ENCODING 435
SWIDTH 630 0
DWIDTH 28 0
BBX 30 29 2 0
BITMAP
F00007C0
78000FF0
3C001FF8
3C003C78
1E00783C
0F007800
0F00F000
0781E000
03C3E000
01E3C000
01E78000
00FF0000
007F0000
007E0000
003C0000
001C0000
001C0000
001C0000
001C0000
001C0000
001C0000
001C0000
001C0000
001C0000
001C0000
001C0000
001C0000
001C0000
001C0000
ENDCHAR
STARTCHAR 01B4
ENCODING 436
SWIDTH 630 0
DWIDTH 28 0
BBX 24 29 2 -9
BITMAP
F000FC
7001FE
7803FF
780786
380780
3C0700
1C0F00
1C0E00
1E0E00
0E1E00
0E1C00
0F3C00
073C00
07B800
07F800
03F800
03F000
01F000
01E000
01E000
01E000
01C000
03C000
03C000
038000
078000
3F0000
3E0000
7C0000
ENDCHAR
STARTCHAR 01B5
ENCODING 437
SWIDTH 517 0
DWIDTH 23 0
BBX 20 29 2 0
BITMAP
FFFFF0
FFFFF0
FFFFF0
FFFFF0
0001E0
0003C0
0003C0
000780
000F00
000F00
001E00
003C00
007800
3FFFC0
3FFFC0
3FFFC0
01E000
03C000
078000
078000
0F0000
1E0000
3C0000
3C0000
780000
F00000
FFFFF0
FFFFF0
FFFFF0
ENDCHAR
STARTCHAR 01B6
ENCODING 438
SWIDTH 382 0
DWIDTH 17 0
BBX 14 20 2 0
BITMAP
FFFC
FFFC
FFFC
0078
0078
00F0
01E0
01E0
7FF0
7FF0
7FF0
7FF0
1E00
3C00
3C00
7800
F000
FFFC
FFFC
FFFC
ENDCHAR
STARTCHAR 01B7
ENCODING 439
SWIDTH 517 0
DWIDTH 23 0
BBX 20 29 2 0
BITMAP
FFFFF0
FFFFF0
FFFFF0
FFFFF0
0001E0
0003C0
0003C0
000780
000F00
000F00
001E00
003C00
007F00
007F80
000FC0
0003C0
0001E0
0000E0
0000F0
0000F0
0000F0
3000F0
F000E0
7801E0
7803E0
3E07C0
1FFF80
0FFF00
03FC00
ENDCHAR
STARTCHAR 01B8
ENCODING 440
SWIDTH 517 0
DWIDTH 23 0
BBX 20 29 2 0
BITMAP
FFFFF0
FFFFF0
FFFFF0
FFFFF0
780000
7C0000
3C0000
1E0000
0F0000
0F0000
078000
03C000
0FC000
1FE000
3E0000
7C0000
780000
700000
F00000
E00000
F00000
F000C0
F000E0
7001E0
7803E0
3E07C0
1FFF80
0FFF00
03FC00
ENDCHAR
STARTCHAR 01B9
ENCODING 441
SWIDTH 427 0
DWIDTH 19 0
BBX 15 29 2 -9
BITMAP
FFFE
FFFE
FFFE
F000
7800
3C00
3C00
1E00
0F00
0780
0780
0FC0
1FE0
3C00
7800
7000
F000
F000
E000
E000
E000
F000
7000
7800
7C0C
3E3E
1FFE
0FFC
03F0
ENDCHAR
STARTCHAR 01BA
ENCODING 442
SWIDTH 382 0
DWIDTH 17 0
BBX 14 29 2 -9
BITMAP
FFFC
FFFC
FFFC
0078
0078
00F0
01E0
01E0
03C0
07C0
07F0
0FF0
0078
0038
0078
00F8
01F0
0FE0
3F80
7E00
7800
F000
F000
F038
7038
78F8
3FF0
1FE0
0FC0
ENDCHAR
STARTCHAR 01BB
ENCODING 443
SWIDTH 427 0
DWIDTH 19 0
BBX 15 29 2 0
BITMAP
07E0
1FF0
3FFC
7C7C
781E
F00E
F00E
E00E
000E
000E
001E
001C
003C
FFFE
FFFE
FFFE
07C0
0F80
1F00
3E00
3C00
7800
7000
F000
F000
E000
FFFE
FFFE
FFFE
ENDCHAR
STARTCHAR 01BC
ENCODING 444
SWIDTH 450 0
DWIDTH 20 0
BBX 16 29 2 0
BITMAP
FFFE
FFFE
FFFE
FFFE
3800
3800
7800
7800
7000
7FE0
7FF8
7FFC
FC3E
F01E
700F
2007
0007
0007
0007
0007
0007
0007
0007
700F
F01E
783E
3FFC
1FF8
0FF0
ENDCHAR
STARTCHAR 01BD
ENCODING 445
SWIDTH 382 0
DWIDTH 17 0
BBX 13 20 2 0
BITMAP
FFF0
FFF0
FFF0
3800
3800
3F80
3FC0
7FE0
7FF0
7878
0038
0038
0038
3038
7038
7078
7870
3FF0
1FE0
0FC0
ENDCHAR
STARTCHAR 01BE
ENCODING 446
SWIDTH 450 0
DWIDTH 20 0
BBX 17 25 2 0
BITMAP
020000
0E0000
0E0000
0E0000
0E0000
FFE000
FFE000
FFE000
0E0000
0E0000
0E0000
0F0000
07C000
03F000
01FC00
007E00
001F00
000700
000780
0E0780
0E0700
0F0F00
07FF00
07FE00
01F800
ENDCHAR
STARTCHAR 01BF
ENCODING 447
SWIDTH 427 0
DWIDTH 19 0
BBX 15 29 2 -10
BITMAP
EFE0
FFF8
FFFC
FC3C
F01E
F00E
F00E
E00E
E00E
E00E
E01E
E03C
E07C
E0F8
E1F0
E3E0
E7C0
EF00
FE00
FC00
F800
F800
F000
F000
E000
E000
E000
E000
6000
ENDCHAR
STARTCHAR 01C0
ENCODING 448
SWIDTH 157 0
DWIDTH 7 0
BBX 3 38 2 -10
BITMAP
E0
E0
E0
E0
E0
E0
E0
E0
E0
E0
E0
E0
E0
E0
E0
E0
E0
E0
E0
E0
E0
E0
E0
E0
E0
E0
E0
E0
E0
E0
E0
E0
E0
E0
E0
E0
E0
60
ENDCHAR
STARTCHAR 01C1
ENCODING 449
SWIDTH 315 0
DWIDTH 14 0
BBX 10 38 2 -10
BITMAP
E1C0
E1C0
E1C0
E1C0
E1C0
E1C0
E1C0
E1C0
E1C0
E1C0
E1C0
E1C0
E1C0
E1C0
E1C0
E1C0
E1C0
E1C0
E1C0
E1C0
E1C0
E1C0
E1C0
E1C0
E1C0
E1C0
E1C0
E1C0
E1C0
E1C0
E1C0
E1C0
E1C0
E1C0
E1C0
E1C0
E1C0
60C0
ENDCHAR
STARTCHAR 01C2
ENCODING 450
SWIDTH 427 0
DWIDTH 19 0
BBX 15 29 2 0
BITMAP
0380
0380
0380
0380
0380
0380
0380
0380
0380
FFFE
FFFE
FFFE
0380
0380
0380
0380
0380
FFFE
FFFE
FFFE
0380
0380
0380
0380
0380
0380
0380
0380
0380
ENDCHAR
STARTCHAR 01C3
ENCODING 451
SWIDTH 157 0
DWIDTH 7 0
BBX 4 29 2 0
BITMAP
E0
E0
E0
E0
E0
E0
E0
E0
E0
E0
E0
E0
E0
E0
E0
E0
E0
E0
E0
E0
00
00
00
00
00
F0
F0
F0
F0
ENDCHAR
STARTCHAR 01C4
ENCODING 452
SWIDTH 1170 0
DWIDTH 52 0
BBX 48 37 2 0
BITMAP
000000004020
000000002060
0000000030C0
000000001DC0
000000001F80
000000000F80
000000000000
000000000000
FFF8000FFFFF
FFFF800FFFFF
FFFFC00FFFFF
FFFFF00FFFFF
1E01F000001E
1E007800001E
1E003C00003C
1E001C000078
1E001E0000F0
1E000E0000F0
1E000F0001E0
1E000F0003C0
1E00070003C0
1E0007000780
1E0007000F00
1E0007000F00
1E0007001E00
1E000F003C00
1E000F007800
1E000E007800
1E001E00F000
1E001E01E000
1E003C01E000
1E007C03C000
1E00F8078000
1E07F0078000
FFFFE00FFFFF
FFFF800FFFFF
FFFE000FFFFF
ENDCHAR
STARTCHAR 01C5
ENCODING 453
SWIDTH 1012 0
DWIDTH 45 0
BBX 42 29 2 0
BITMAP
FFF800020100
FFFF80030300
FFFFC0018600
FFFFF001CE00
1E01F000FC00
1E007800FC00
1E003C007800
1E001C000000
1E001E000000
1E000E0FFFC0
1E000F0FFFC0
1E000F0FFFC0
1E00070003C0
1E0007000780
1E0007000F00
1E0007000F00
1E0007001E00
1E000F003C00
1E000F007800
1E000E007800
1E001E00F000
1E001E01E000
1E003C01E000
1E007C03C000
1E00F8078000
1E07F0078000
FFFFE00FFFC0
FFFF800FFFC0
FFFE000FFFC0
ENDCHAR
STARTCHAR 01C6
ENCODING 454
SWIDTH 877 0
DWIDTH 39 0
BBX 35 29 2 0
BITMAP
0003C10040
0003C080C0
0003C0C180
0003C06300
0003C07700
0003C03E00
0003C03E00
0003C00000
0003C00000
07F3C3FFE0
0FFFC3FFE0
1FFFC3FFE0
3E1FC001E0
780FC003C0
7807C003C0
7003C00780
F003C00F00
F003C00F00
E003C01E00
E003C03C00
F003C03C00
F003C07800
7003C0F000
7807C1E000
780FC1E000
3E1FC3C000
1FFFC3FFE0
0FFFC3FFE0
07F3C3FFE0
ENDCHAR
STARTCHAR 01C7
ENCODING 455
SWIDTH 877 0
DWIDTH 39 0
BBX 35 29 2 0
BITMAP
E0000000E0
E0000000E0
E0000000E0
E0000000E0
E0000000E0
E0000000E0
E0000000E0
E0000000E0
E0000000E0
E0000000E0
E0000000E0
E0000000E0
E0000000E0
E0000000E0
E0000000E0
E0000000E0
E0000000E0
E0000000E0
E0000000E0
E0000000E0
E0000000E0
E0000000E0
E0000000E0
E00001C0E0
E00001C1E0
E00001E1E0
FFFFC0FFC0
FFFFC0FF80
FFFFC03F00
ENDCHAR
STARTCHAR 01C8
ENCODING 456
SWIDTH 697 0
DWIDTH 31 0
BBX 27 38 2 -9
BITMAP
E0000000
E00000C0
E00001E0
E00003E0
E00001E0
E00001C0
E0000000
E0000000
E0000000
E00001C0
E00001C0
E00001C0
E00001C0
E00001C0
E00001C0
E00001C0
E00001C0
E00001C0
E00001C0
E00001C0
E00001C0
E00001C0
E00001C0
E00001C0
E00001C0
E00001C0
FFFFC1C0
FFFFC1C0
FFFFC1C0
000001C0
000001C0
000001C0
000001C0
000001C0
000023C0
00007F80
0000FF00
00003E00
ENDCHAR
STARTCHAR 01C9
ENCODING 457
SWIDTH 427 0
DWIDTH 19 0
BBX 15 38 2 -9
BITMAP
E000
E00C
E01E
E03E
E03E
E01C
E000
E000
E000
E01C
E01C
E01C
E01C
E01C
E01C
E01C
E01C
E01C
E01C
E01C
E01C
E01C
E01C
E01C
E01C
E01C
FE1C
7E1C
7E1C
001C
001C
001C
001C
001C
023C
07F8
0FF0
07E0
ENDCHAR
STARTCHAR 01CA
ENCODING 458
SWIDTH 967 0
DWIDTH 43 0
BBX 39 29 2 0
BITMAP
F0000E000E
F0000E000E
F8000E000E
FC000E000E
FC000E000E
FE000E000E
EF000E000E
EF000E000E
E7800E000E
E3C00E000E
E1E00E000E
E1E00E000E
E0F00E000E
E0780E000E
E0780E000E
E03C0E000E
E01E0E000E
E01E0E000E
E00F0E000E
E0078E000E
E003CE000E
E003CE000E
E001EE000E
E000FE1C0E
E000FE1E0E
E0007E1E1E
E0003E0FFC
E0003E07FC
E0001E03F0
ENDCHAR
STARTCHAR 01CB
ENCODING 459
SWIDTH 787 0
DWIDTH 35 0
BBX 32 38 2 -9
BITMAP
F0000E00
F0000E0C
F8000E1E
FC000E1F
FC000E1F
FE000E0E
EF000E00
EF000E00
E7800E00
E3C00E0E
E1E00E0E
E1E00E0E
E0F00E0E
E0780E0E
E0780E0E
E03C0E0E
E01E0E0E
E01E0E0E
E00F0E0E
E0078E0E
E003CE0E
E003CE0E
E001EE0E
E000FE0E
E000FE0E
E0007E0E
E0003E0E
E0003E0E
E0001E0E
0000000E
0000000E
0000000E
0000000E
0000001E
0000013C
000003FC
000007F8
000003F0
ENDCHAR
STARTCHAR 01CC
ENCODING 460
SWIDTH 675 0
DWIDTH 30 0
BBX 26 37 2 -9
BITMAP
00000180
000003C0
000007C0
000007C0
00000380
00000000
00000000
00000000
E3F80380
EFFE0380
FFFE0380
FE0F0380
FC070380
F8078380
F0038380
F0038380
F0038380
E003C380
E003C380
E003C380
E003C380
E003C380
E003C380
E003C380
E003C380
E003C380
E003C380
E003C380
00000380
00000380
00000380
00000380
00000380
00004780
0000FF00
0001FE00
00007C00
ENDCHAR
STARTCHAR 01CD
ENCODING 461
SWIDTH 630 0
DWIDTH 28 0
BBX 24 37 2 0
BITMAP
018080
00C180
00E300
007700
007E00
003E00
000000
000000
001C00
003C00
003E00
007E00
007F00
007F00
00F700
00E780
00E380
01E380
01C3C0
01C1C0
03C1C0
0381E0
0780E0
07FFF0
07FFF0
0FFFF0
0E0078
0E0038
1E0038
1C003C
1C001C
3C001E
38001E
78000E
78000F
70000F
F00007
ENDCHAR
STARTCHAR 01CE
ENCODING 462
SWIDTH 405 0
DWIDTH 18 0
BBX 14 29 2 0
BITMAP
2010
3030
1860
1CE0
0FC0
0FC0
0780
0000
0000
0FC0
1FF0
3FF8
1C7C
003C
001C
001C
001C
0FFC
3FFC
7FFC
783C
F01C
E01C
E01C
F03C
787C
7FFC
3FFC
1FFC
ENDCHAR
STARTCHAR 01CF
ENCODING 463
SWIDTH 315 0
DWIDTH 14 0
BBX 10 37 2 0
BITMAP
8040
C0C0
6180
3380
3F00
1F00
0000
0000
FFC0
FFC0
FFC0
FFC0
1E00
1E00
1E00
1E00
1E00
1E00
1E00
1E00
1E00
1E00
1E00
1E00
1E00
1E00
1E00
1E00
1E00
1E00
1E00
1E00
1E00
1E00
FFC0
FFC0
FFC0
ENDCHAR
STARTCHAR 01D0
ENCODING 464
SWIDTH 157 0
DWIDTH 7 0
BBX 11 29 -2 0
BITMAP
8020
4060
60C0
31C0
3B80
1F80
0F00
0000
0000
0E00
0E00
0E00
0E00
0E00
0E00
0E00
0E00
0E00
0E00
0E00
0E00
0E00
0E00
0E00
0E00
0E00
0E00
0E00
0E00
ENDCHAR
STARTCHAR 01D1
ENCODING 465
SWIDTH 630 0
DWIDTH 28 0
BBX 24 37 2 0
BITMAP
010080
008180
00C300
006700
007E00
003E00
000000
000000
007F00
01FFC0
07FFE0
0FC3F0
1F00F8
1E0078
3C003C
38001E
78001E
70000E
70000F
F0000F
F00007
E00007
E00007
E00007
F00007
F00007
70000F
70000E
78000E
78001E
3C003C
3E003C
1F0078
0F81F0
07FFE0
03FFC0
00FF00
ENDCHAR
STARTCHAR 01D2
ENCODING 466
SWIDTH 472 0
DWIDTH 21 0
BBX 18 29 2 0
BITMAP
100400
080C00
0E1800
073800
03F000
03F000
01E000
000000
000000
07F000
0FFC00
1FFE00
3E1F00
780F00
780780
700380
F00380
F00380
E003C0
E003C0
F00380
F00380
700380
780780
780F00
3E1F00
1FFE00
0FFC00
07F000
ENDCHAR
STARTCHAR 01D3
ENCODING 467
SWIDTH 585 0
DWIDTH 26 0
BBX 22 37 2 0
BITMAP
020100
030300
018600
00CE00
00FC00
007C00
000000
000000
E0001C
E0001C
E0001C
E0001C
E0001C
E0001C
E0001C
E0001C
E0001C
E0001C
E0001C
E0001C
E0001C
E0001C
E0001C
E0001C
E0001C
E0001C
E0001C
E0001C
F0003C
700038
700038
780078
3C00F0
1F03E0
0FFFC0
07FF80
03FE00
ENDCHAR
STARTCHAR 01D4
ENCODING 468
SWIDTH 472 0
DWIDTH 21 0
BBX 18 29 2 0
BITMAP
100400
080C00
0E1800
073800
03F000
03F000
01E000
000000
000000
E003C0
E003C0
E003C0
E003C0
E003C0
E003C0
E003C0
E003C0
E003C0
E003C0
E003C0
E003C0
F003C0
7007C0
7007C0
780FC0
3C3FC0
3FFFC0
1FFBC0
0FF3C0
ENDCHAR
STARTCHAR 01D5
ENCODING 469
SWIDTH 585 0
DWIDTH 26 0
BBX 22 37 2 0
BITMAP
03FF00
03FF00
03FF00
010300
078780
07CF80
07CF80
038700
E0001C
E0001C
E0001C
E0001C
E0001C
E0001C
E0001C
E0001C
E0001C
E0001C
E0001C
E0001C
E0001C
E0001C
E0001C
E0001C
E0001C
E0001C
E0001C
E0001C
F0003C
700038
700038
780078
3C00F0
1F03E0
0FFFC0
07FF80
03FE00
ENDCHAR
STARTCHAR 01D6
ENCODING 470
SWIDTH 472 0
DWIDTH 21 0
BBX 18 34 2 0
BITMAP
1FFC00
1FFC00
1FFC00
1FFC00
000000
000000
0C1C00
1E3E00
1F3E00
1E3E00
0E1C00
000000
000000
000000
E003C0
E003C0
E003C0
E003C0
E003C0
E003C0
E003C0
E003C0
E003C0
E003C0
E003C0
E003C0
F003C0
7007C0
7007C0
780FC0
3C3FC0
3FFFC0
1FFBC0
0FF3C0
ENDCHAR
STARTCHAR 01D7
ENCODING 471
SWIDTH 585 0
DWIDTH 26 0
BBX 22 37 2 0
BITMAP
000F00
000C00
001800
001000
01E700
03CF00
03CF00
008000
E0001C
E0001C
E0001C
E0001C
E0001C
E0001C
E0001C
E0001C
E0001C
E0001C
E0001C
E0001C
E0001C
E0001C
E0001C
E0001C
E0001C
E0001C
E0001C
E0001C
F0003C
700038
700038
780078
3C00F0
1F03E0
0FFFC0
07FF80
03FE00
ENDCHAR
STARTCHAR 01D8
ENCODING 472
SWIDTH 472 0
DWIDTH 21 0
BBX 18 36 2 0
BITMAP
003C00
007800
00F000
00E000
018000
010000
020000
000000
0C1C00
1E3E00
1F3E00
1E3E00
0E1C00
000000
000000
000000
E003C0
E003C0
E003C0
E003C0
E003C0
E003C0
E003C0
E003C0
E003C0
E003C0
E003C0
E003C0
F003C0
7007C0
7007C0
780FC0
3C3FC0
3FFFC0
1FFBC0
0FF3C0
ENDCHAR
STARTCHAR 01D9
ENCODING 473
SWIDTH 585 0
DWIDTH 26 0
BBX 22 37 2 0
BITMAP
010200
008400
00CC00
007800
01FE00
03CF00
03CF00
018600
E0001C
E0001C
E0001C
E0001C
E0001C
E0001C
E0001C
E0001C
E0001C
E0001C
E0001C
E0001C
E0001C
E0001C
E0001C
E0001C
E0001C
E0001C
E0001C
E0001C
F0003C
700038
700038
780078
3C00F0
1F03E0
0FFFC0
07FF80
03FE00
ENDCHAR
STARTCHAR 01DA
ENCODING 474
SWIDTH 472 0
DWIDTH 21 0
BBX 18 36 2 0
BITMAP
080400
0C0C00
061800
073800
03F000
03F000
01E000
000000
0C1C00
1E3E00
1F3E00
1E3E00
0E1C00
000000
000000
000000
E003C0
E003C0
E003C0
E003C0
E003C0
E003C0
E003C0
E003C0
E003C0
E003C0
E003C0
E003C0
F003C0
7007C0
7007C0
780FC0
3C3FC0
3FFFC0
1FFBC0
0FF3C0
ENDCHAR
STARTCHAR 01DB
ENCODING 475
SWIDTH 585 0
DWIDTH 26 0
BBX 22 37 2 0
BITMAP
03C000
00C000
006000
002000
01DE00
03CF00
03CF00
000000
E0001C
E0001C
E0001C
E0001C
E0001C
E0001C
E0001C
E0001C
E0001C
E0001C
E0001C
E0001C
E0001C
E0001C
E0001C
E0001C
E0001C
E0001C
E0001C
E0001C
F0003C
700038
700038
780078
3C00F0
1F03E0
0FFFC0
07FF80
03FE00
ENDCHAR
STARTCHAR 01DC
ENCODING 476
SWIDTH 472 0
DWIDTH 21 0
BBX 18 36 2 0
BITMAP
0F0000
078000
038000
01C000
00C000
006000
002000
000000
0C1C00
1E3E00
1F3E00
1E3E00
0E1C00
000000
000000
000000
E003C0
E003C0
E003C0
E003C0
E003C0
E003C0
E003C0
E003C0
E003C0
E003C0
E003C0
E003C0
F003C0
7007C0
7007C0
780FC0
3C3FC0
3FFFC0
1FFBC0
0FF3C0
ENDCHAR
STARTCHAR 01DD
ENCODING 477
SWIDTH 472 0
DWIDTH 21 0
BBX 18 20 2 0
BITMAP
07F000
0FFC00
1FFE00
3E1F00
780F00
380780
000380
000380
000380
FFFFC0
FFFFC0
FFFF80
FFFF80
700380
780780
780F00
3E1F00
1FFE00
0FFC00
07F000
ENDCHAR
STARTCHAR 01DE
ENCODING 478
SWIDTH 630 0
DWIDTH 28 0
BBX 24 37 2 0
BITMAP
01FFC0
01FFC0
01FFC0
008180
01E3C0
03E3C0
03E3C0
01C3C0
001C00
003C00
003E00
007E00
007F00
007F00
00F700
00E780
00E380
01E380
01C3C0
01C1C0
03C1C0
0381E0
0780E0
07FFF0
07FFF0
0FFFF0
0E0078
0E0038
1E0038
1C003C
1C001C
3C001E
38001E
78000E
78000F
70000F
F00007
ENDCHAR
STARTCHAR 01DF
ENCODING 479
SWIDTH 405 0
DWIDTH 18 0
BBX 14 34 2 0
BITMAP
3FF0
3FF0
3FF0
3FF0
0000
0000
3030
7878
7CF8
7CF8
3870
0000
0000
0000
0FC0
1FF0
3FF8
1C7C
003C
001C
001C
001C
0FFC
3FFC
7FFC
783C
F01C
E01C
E01C
F03C
787C
7FFC
3FFC
1FFC
ENDCHAR
STARTCHAR 01E0
ENCODING 480
SWIDTH 630 0
DWIDTH 28 0
BBX 24 37 2 0
BITMAP
01FFC0
01FFC0
01FFC0
001C00
003E00
003E00
003C00
000000
001C00
003C00
003E00
007E00
007F00
007F00
00F700
00E780
00E380
01E380
01C3C0
01C1C0
03C1C0
0381E0
0780E0
07FFF0
07FFF0
0FFFF0
0E0078
0E0038
1E0038
1C003C
1C001C
3C001E
38001E
78000E
78000F
70000F
F00007
ENDCHAR
STARTCHAR 01E1
ENCODING 481
SWIDTH 405 0
DWIDTH 18 0
BBX 14 34 2 0
BITMAP
3FF0
3FF0
3FF0
3FF0
0000
0000
0300
0780
0780
0780
0300
0000
0000
0000
0FC0
1FF0
3FF8
1C7C
003C
001C
001C
001C
0FFC
3FFC
7FFC
783C
F01C
E01C
E01C
F03C
787C
7FFC
3FFC
1FFC
ENDCHAR
STARTCHAR 01E2
ENCODING 482
SWIDTH 720 0
DWIDTH 32 0
BBX 28 35 2 0
BITMAP
0007FF00
0007FF00
0007FF00
00000000
00000000
00000000
001FFFF0
003FFFF0
003FFFF0
007FFFF0
007BC000
0073C000
00F3C000
00E3C000
00E3C000
01E3C000
01C3C000
01C3C000
03C3C000
03FFFFC0
07FFFFC0
07FFFFC0
0703C000
0F03C000
0E03C000
0E03C000
1E03C000
1C03C000
1C03C000
3C03C000
3803C000
7803C000
7803FFF0
7003FFF0
F003FFF0
ENDCHAR
STARTCHAR 01E3
ENCODING 483
SWIDTH 720 0
DWIDTH 32 0
BBX 28 26 2 0
BITMAP
007FE000
007FE000
007FE000
00000000
00000000
00000000
0FC0FE00
1FF3FF00
3FFFFF80
1C7F83C0
003F01E0
001E01E0
001E00E0
001FFFF0
0FFFFFF0
3FFFFFF0
7FFFFFF0
783C0000
F01C0000
E01C0080
E03E01C0
F03F01E0
787F83C0
7FFFFF80
3FF3FF00
1FE0FE00
ENDCHAR
STARTCHAR 01E4
ENCODING 484
SWIDTH 652 0
DWIDTH 29 0
BBX 25 29 2 0
BITMAP
007F0000
01FFC000
07FFE000
0FC3F000
1F00F800
1E007800
3C003C00
38001800
78000000
70000000
70000000
F0000000
F0000000
E0000000
E01FFC00
E01FFC00
F01FFC00
F0001C00
70001C00
7001FF80
7801FF80
7801FF80
3C01FF80
3E003C00
1F007800
0F81F000
07FFE000
03FFC000
00FF0000
ENDCHAR
STARTCHAR 01E5
ENCODING 485
SWIDTH 495 0
DWIDTH 22 0
BBX 23 29 0 -9
BITMAP
01FE18
07FFBE
0FFFFC
1F03F8
1E01E0
3C00E0
3800E0
3800F0
3C00E0
1C01E0
1E03E0
0FFFC0
0FFF80
1FFF00
1CF800
1C0000
1F0000
0FF800
07FF80
00FFC0
0003E0
FFFFFE
FFFFFE
FFFFFE
1C01E0
1F07E0
0FFFC0
07FF80
01FE00
ENDCHAR
STARTCHAR 01E6
ENCODING 486
SWIDTH 585 0
DWIDTH 26 0
BBX 22 37 2 0
BITMAP
020100
010300
018600
00EE00
00FC00
007C00
000000
000000
007F00
01FFC0
07FFE0
0FC3F0
1F00F8
1E0078
3C003C
380018
780000
700000
700000
F00000
F00000
E00000
E01FFC
E01FFC
F01FFC
F0001C
70001C
70001C
78001C
78001C
3C003C
3E003C
1F0078
0F81F0
07FFE0
03FFC0
00FF00
ENDCHAR
STARTCHAR 01E7
ENCODING 487
SWIDTH 495 0
DWIDTH 22 0
BBX 21 38 2 -9
BITMAP
100400
080C00
0C1800
063800
077000
03F000
03E000
000000
000000
07F860
1FFEF8
3FFFF0
7C0FE0
780780
F00380
E00380
E003C0
F00380
700780
780F80
3FFF00
3FFE00
7FFC00
73E000
700000
7C0000
3FE000
1FFE00
03FF00
000F80
000380
0003C0
F00380
F00780
7C1F80
3FFF00
1FFE00
07F800
ENDCHAR
STARTCHAR 01E8
ENCODING 488
SWIDTH 540 0
DWIDTH 24 0
BBX 20 37 2 0
BITMAP
040200
060600
030C00
019C00
01F800
00F800
000000
000000
E003C0
E00780
E00F00
E00F00
E01E00
E03C00
E07800
E07800
E0F000
E1E000
E1E000
E3C000
E78000
EF8000
EFC000
FFC000
FDE000
FCF000
F87800
F07800
F03C00
E01E00
E01E00
E00F00
E00780
E00780
E003C0
E001E0
E000F0
ENDCHAR
STARTCHAR 01E9
ENCODING 489
SWIDTH 427 0
DWIDTH 19 0
BBX 15 37 2 0
BITMAP
1008
1818
0C30
0E60
07E0
07C0
03C0
0000
E000
E000
E000
E000
E000
E000
E000
E000
E000
E078
E0F0
E1E0
E1E0
E3C0
E780
E780
EF00
FE00
FF00
FF80
FF80
F3C0
F1E0
E0F0
E0F0
E078
E03C
E03C
E01E
ENDCHAR
STARTCHAR 01EA
ENCODING 490
SWIDTH 630 0
DWIDTH 28 0
BBX 24 37 2 -8
BITMAP
007F00
01FFC0
07FFE0
0FC3F0
1F00F8
1E0078
3C003C
38001E
78001E
70000E
70000F
F0000F
F00007
E00007
E00007
E00007
F00007
F00007
70000F
70000E
78000E
78001E
3C003C
3E003C
1F0078
0F81F0
07FFE0
03FFC0
00FF00
001800
001800
001800
001800
001C00
001F00
000FF0
0007C0
ENDCHAR
STARTCHAR 01EB
ENCODING 491
SWIDTH 472 0
DWIDTH 21 0
BBX 18 28 2 -8
BITMAP
07F000
0FFC00
1FFE00
3E1F00
780F00
780780
700380
F00380
F00380
E003C0
E003C0
F00380
F00380
700380
780780
780F00
3E1F00
1FFE00
0FFC00
07F800
008000
018000
01C000
01C000
01E000
00F880
007F00
003C00
ENDCHAR
STARTCHAR 01EC
ENCODING 492
SWIDTH 630 0
DWIDTH 28 0
BBX 24 43 2 -8
BITMAP
01FFC0
01FFC0
01FFC0
000000
000000
000000
007F00
01FFC0
07FFE0
0FC3F0
1F00F8
1E0078
3C003C
38001E
78001E
70000E
70000F
F0000F
F00007
E00007
E00007
E00007
F00007
F00007
70000F
70000E
78000E
78001E
3C003C
3E003C
1F0078
0F81F0
07FFE0
03FFC0
00FF00
001800
001800
001800
001800
001C00
001F00
000FF0
0007C0
ENDCHAR
STARTCHAR 01ED
ENCODING 493
SWIDTH 472 0
DWIDTH 21 0
BBX 18 34 2 -8
BITMAP
1FFC00
1FFC00
1FFC00
000000
000000
000000
07F000
0FFC00
1FFE00
3E1F00
780F00
780780
700380
F00380
F00380
E003C0
E003C0
F00380
F00380
700380
780780
780F00
3E1F00
1FFE00
0FFC00
07F800
008000
018000
01C000
01C000
01E000
00F880
007F00
003C00
ENDCHAR
STARTCHAR 01EE
ENCODING 494
SWIDTH 517 0
DWIDTH 23 0
BBX 20 37 2 0
BITMAP
040200
060600
030C00
039800
01F800
01F000
000000
000000
FFFFF0
FFFFF0
FFFFF0
FFFFF0
0001E0
0003C0
0003C0
000780
000F00
000F00
001E00
003C00
007F00
007F80
000FC0
0003C0
0001E0
0000E0
0000F0
0000F0
0000F0
3000F0
F000E0
7801E0
7803E0
3E07C0
1FFF80
0FFF00
03FC00
ENDCHAR
STARTCHAR 01EF
ENCODING 495
SWIDTH 427 0
DWIDTH 19 0
BBX 15 38 2 -9
BITMAP
2008
1818
1C30
0E70
07E0
07E0
03C0
0000
0000
FFFE
FFFE
FFFE
001E
001E
003C
0078
00F0
00F0
01E0
03C0
03F0
07F8
007C
003C
001E
000E
000E
000E
000E
000E
000E
001E
001E
203C
78F8
7FF8
3FF0
0FC0
ENDCHAR
STARTCHAR 01F0
ENCODING 496
SWIDTH 157 0
DWIDTH 7 0
BBX 14 38 -5 -9
BITMAP
1004
080C
0C18
0638
0770
03F0
03E0
0000
0000
01C0
01C0
01C0
01C0
01C0
01C0
01C0
01C0
01C0
01C0
01C0
01C0
01C0
01C0
01C0
01C0
01C0
01C0
01C0
01C0
01C0
01C0
01C0
01C0
01C0
23C0
7F80
FF00
3E00
ENDCHAR
STARTCHAR 01F1
ENCODING 497
SWIDTH 1170 0
DWIDTH 52 0
BBX 48 29 2 0
BITMAP
FFF8000FFFFF
FFFF800FFFFF
FFFFC00FFFFF
FFFFF00FFFFF
1E01F000001E
1E007800001E
1E003C00003C
1E001C000078
1E001E0000F0
1E000E0000F0
1E000F0001E0
1E000F0003C0
1E00070003C0
1E0007000780
1E0007000F00
1E0007000F00
1E0007001E00
1E000F003C00
1E000F007800
1E000E007800
1E001E00F000
1E001E01E000
1E003C01E000
1E007C03C000
1E00F8078000
1E07F0078000
FFFFE00FFFFF
FFFF800FFFFF
FFFE000FFFFF
ENDCHAR
STARTCHAR 01F2
ENCODING 498
SWIDTH 1012 0
DWIDTH 45 0
BBX 42 29 2 0
BITMAP
FFF800000000
FFFF80000000
FFFFC0000000
FFFFF0000000
1E01F0000000
1E0078000000
1E003C000000
1E001C000000
1E001E000000
1E000E0FFFC0
1E000F0FFFC0
1E000F0FFFC0
1E00070003C0
1E0007000780
1E0007000F00
1E0007000F00
1E0007001E00
1E000F003C00
1E000F007800
1E000E007800
1E001E00F000
1E001E01E000
1E003C01E000
1E007C03C000
1E00F8078000
1E07F0078000
FFFFE00FFFC0
FFFF800FFFC0
FFFE000FFFC0
ENDCHAR
STARTCHAR 01F3
ENCODING 499
SWIDTH 877 0
DWIDTH 39 0
BBX 35 29 2 0
BITMAP
0003C00000
0003C00000
0003C00000
0003C00000
0003C00000
0003C00000
0003C00000
0003C00000
0003C00000
07F3C3FFE0
0FFFC3FFE0
1FFFC3FFE0
3E1FC001E0
780FC003C0
7807C003C0
7003C00780
F003C00F00
F003C00F00
E003C01E00
E003C03C00
F003C03C00
F003C07800
7003C0F000
7807C1E000
780FC1E000
3E1FC3C000
1FFFC3FFE0
0FFFC3FFE0
07F3C3FFE0
ENDCHAR
STARTCHAR 01F4
ENCODING 500
SWIDTH 585 0
DWIDTH 26 0
BBX 22 37 2 0
BITMAP
000F00
001C00
001800
003000
006000
004000
000000
000000
007F00
01FFC0
07FFE0
0FC3F0
1F00F8
1E0078
3C003C
380018
780000
700000
700000
F00000
F00000
E00000
E01FFC
E01FFC
F01FFC
F0001C
70001C
70001C
78001C
78001C
3C003C
3E003C
1F0078
0F81F0
07FFE0
03FFC0
00FF00
ENDCHAR
STARTCHAR 01F5
ENCODING 501
SWIDTH 495 0
DWIDTH 22 0
BBX 21 38 2 -9
BITMAP
007C00
007800
00F000
00E000
01C000
018000
030000
000000
000000
07F860
1FFEF8
3FFFF0
7C0FE0
780780
F00380
E00380
E003C0
F00380
700780
780F80
3FFF00
3FFE00
7FFC00
73E000
700000
7C0000
3FE000
1FFE00
03FF00
000F80
000380
0003C0
F00380
F00780
7C1F80
3FFF00
1FFE00
07F800
ENDCHAR
STARTCHAR 01F6
ENCODING 502
SWIDTH 810 0
DWIDTH 36 0
BBX 33 29 2 0
BITMAP
E001C00000
E001C00000
E001C00000
E001C00000
E001C00000
E001C00000
E001C00000
E001C00000
E001C00000
E001C00780
E001C00780
E001C00780
E001C00780
FFFFC00780
FFFFC00780
FFFFC00780
E001C00780
E001C00780
E001C00780
E001C00780
E001C00780
E001E00700
E001E00700
E000E00F00
E000F00F00
E000783E00
E0007FFC00
E0003FF800
E0000FF000
ENDCHAR
STARTCHAR 01F7
ENCODING 503
SWIDTH 427 0
DWIDTH 19 0
BBX 15 38 2 -9
BITMAP
E7E0
FFF0
FFFC
FC7C
F81E
F00E
F00E
E00E
E00E
E00E
E01E
E01C
E03C
E078
E0F0
E3E0
E7C0
EF80
FF00
FE00
FC00
F800
F000
F000
F000
E000
E000
E000
E000
E000
E000
E000
E000
E000
E000
E000
E000
E000
ENDCHAR
STARTCHAR 01F8
ENCODING 504
SWIDTH 585 0
DWIDTH 26 0
BBX 23 37 2 0
BITMAP
01E000
00F000
007000
003800
001800
000C00
000000
000000
F0000E
F0000E
F8000E
FC000E
FC000E
FE000E
EF000E
EF000E
E7800E
E3C00E
E1E00E
E1E00E
E0F00E
E0780E
E0780E
E03C0E
E01E0E
E01E0E
E00F0E
E0078E
E003CE
E003CE
E001EE
E000FE
E000FE
E0007E
E0003E
E0003E
E0001E
ENDCHAR
STARTCHAR 01F9
ENCODING 505
SWIDTH 472 0
DWIDTH 21 0
BBX 18 29 2 0
BITMAP
0F0000
078000
038000
01C000
00C000
006000
002000
000000
000000
E3F800
EFFE00
FFFE00
FE0F00
FC0700
F80780
F00380
F00380
F00380
E003C0
E003C0
E003C0
E003C0
E003C0
E003C0
E003C0
E003C0
E003C0
E003C0
E003C0
ENDCHAR
STARTCHAR 01FA
ENCODING 506
SWIDTH 630 0
DWIDTH 28 0
BBX 24 37 2 0
BITMAP
000F00
000C00
001800
001000
002000
003C00
007E00
006700
006300
006300
007F00
007E00
007F00
007F00
00F700
00E780
00E380
01E380
01C3C0
01C1C0
03C1C0
0381E0
0780E0
07FFF0
07FFF0
0FFFF0
0E0078
0E0038
1E0038
1C003C
1C001C
3C001E
38001E
78000E
78000F
70000F
F00007
ENDCHAR
STARTCHAR 01FB
ENCODING 507
SWIDTH 405 0
DWIDTH 18 0
BBX 14 36 2 0
BITMAP
00F0
00E0
01C0
0180
0300
0200
0000
07C0
0FE0
0C60
0C60
0C60
0FE0
07C0
0000
0000
0FC0
1FF0
3FF8
1C7C
003C
001C
001C
001C
0FFC
3FFC
7FFC
783C
F01C
E01C
E01C
F03C
787C
7FFC
3FFC
1FFC
ENDCHAR
STARTCHAR 01FC
ENCODING 508
SWIDTH 720 0
DWIDTH 32 0
BBX 28 37 2 0
BITMAP
00007800
0000F000
0000E000
0001C000
00018000
00030000
00000000
00000000
001FFFF0
003FFFF0
003FFFF0
007FFFF0
007BC000
0073C000
00F3C000
00E3C000
00E3C000
01E3C000
01C3C000
01C3C000
03C3C000
03FFFFC0
07FFFFC0
07FFFFC0
0703C000
0F03C000
0E03C000
0E03C000
1E03C000
1C03C000
1C03C000
3C03C000
3803C000
7803C000
7803FFF0
7003FFF0
F003FFF0
ENDCHAR
STARTCHAR 01FD
ENCODING 509
SWIDTH 720 0
DWIDTH 32 0
BBX 28 29 2 0
BITMAP
0001E000
0003C000
00038000
00070000
00060000
000C0000
00080000
00000000
00000000
0FC0FE00
1FF3FF00
3FFFFF80
1C7F83C0
003F01E0
001E01E0
001E00E0
001FFFF0
0FFFFFF0
3FFFFFF0
7FFFFFF0
783C0000
F01C0000
E01C0080
E03E01C0
F03F01E0
787F83C0
7FFFFF80
3FF3FF00
1FE0FE00
ENDCHAR
STARTCHAR 01FE
ENCODING 510
SWIDTH 630 0
DWIDTH 28 0
BBX 24 39 2 -2
BITMAP
000780
000E00
001C00
001800
003000
002000
000004
000006
007F0F
01FFDE
07FFFE
0FC3FC
1F00F8
1E0078
3C00FC
3801FE
7803DE
7003CE
70078F
F00F0F
F00F07
E01E07
E03C07
E03C07
F07807
F0F007
71E00F
71E00E
7BC00E
7F801E
3F803C
3F003C
1F0078
1F81F0
3FFFE0
7BFFC0
F0FF00
700000
200000
ENDCHAR
STARTCHAR 01FF
ENCODING 511
SWIDTH 472 0
DWIDTH 21 0
BBX 18 31 2 -3
BITMAP
003C00
007800
007000
00E000
00C000
018000
030000
000180
0003C0
07F3C0
0FFF80
1FFF00
3E1F00
781F00
783F80
707B80
F07B80
F0F380
E1E3C0
E1E3C0
F3C380
F78380
7F0380
7F0780
7E0F00
3C1F00
3FFE00
7FFC00
F7F000
F00000
E00000
ENDCHAR
STARTCHAR 0200
ENCODING 512
SWIDTH 630 0
DWIDTH 28 0
BBX 24 37 2 0
BITMAP
1E7C00
0F1C00
070E00
038600
018300
00C100
000000
000000
001C00
003C00
003E00
007E00
007F00
007F00
00F700
00E780
00E380
01E380
01C3C0
01C1C0
03C1C0
0381E0
0780E0
07FFF0
07FFF0
0FFFF0
0E0078
0E0038
1E0038
1C003C
1C001C
3C001E
38001E
78000E
78000F
70000F
F00007
ENDCHAR
STARTCHAR 0201
ENCODING 513
SWIDTH 405 0
DWIDTH 18 0
BBX 16 29 0 0
BITMAP
F9E0
78F0
3C70
1C38
0E18
060C
0304
0000
0000
03F0
07FC
0FFE
071F
000F
0007
0007
0007
03FF
0FFF
1FFF
1E0F
3C07
3807
3807
3C0F
1E1F
1FFF
0FFF
07FF
ENDCHAR
STARTCHAR 0202
ENCODING 514
SWIDTH 630 0
DWIDTH 28 0
BBX 24 37 2 0
BITMAP
007E00
00FF80
01E380
01C1C0
0380C0
0380C0
000000
000000
001C00
003C00
003E00
007E00
007F00
007F00
00F700
00E780
00E380
01E380
01C3C0
01C1C0
03C1C0
0381E0
0780E0
07FFF0
07FFF0
0FFFF0
0E0078
0E0038
1E0038
1C003C
1C001C
3C001E
38001E
78000E
78000F
70000F
F00007
ENDCHAR
STARTCHAR 0203
ENCODING 515
SWIDTH 405 0
DWIDTH 18 0
BBX 14 29 2 0
BITMAP
0300
1FE0
3FF0
3870
7038
7038
0000
0000
0000
0FC0
1FF0
3FF8
1C7C
003C
001C
001C
001C
0FFC
3FFC
7FFC
783C
F01C
E01C
E01C
F03C
787C
7FFC
3FFC
1FFC
ENDCHAR
STARTCHAR 0204
ENCODING 516
SWIDTH 495 0
DWIDTH 22 0
BBX 18 37 2 0
BITMAP
79E000
38F000
1C7000
0C3800
061800
020C00
000000
000000
FFFFC0
FFFFC0
FFFFC0
FFFFC0
E00000
E00000
E00000
E00000
E00000
E00000
E00000
E00000
E00000
FFFF00
FFFF00
FFFF00
E00000
E00000
E00000
E00000
E00000
E00000
E00000
E00000
E00000
E00000
FFFFC0
FFFFC0
FFFFC0
ENDCHAR
STARTCHAR 0205
ENCODING 517
SWIDTH 472 0
DWIDTH 21 0
BBX 18 29 2 0
BITMAP
3CF000
1C7800
0E3800
061C00
030C00
010600
008200
000000
000000
07F000
0FFC00
1FFE00
3E1F00
780F00
780780
700380
FFFF80
FFFF80
FFFFC0
FFFFC0
F00000
F00000
700000
780700
780F00
3E1F00
1FFE00
0FFC00
07F000
ENDCHAR
STARTCHAR 0206
ENCODING 518
SWIDTH 495 0
DWIDTH 22 0
BBX 18 37 2 0
BITMAP
03F000
07FC00
0F1C00
0C0E00
1C0600
1C0600
000000
000000
FFFFC0
FFFFC0
FFFFC0
FFFFC0
E00000
E00000
E00000
E00000
E00000
E00000
E00000
E00000
E00000
FFFF00
FFFF00
FFFF00
E00000
E00000
E00000
E00000
E00000
E00000
E00000
E00000
E00000
E00000
FFFFC0
FFFFC0
FFFFC0
ENDCHAR
STARTCHAR 0207
ENCODING 519
SWIDTH 472 0
DWIDTH 21 0
BBX 18 29 2 0
BITMAP
00C000
07F000
0FF800
1E1C00
1C0E00
180E00
000000
000000
000000
07F000
0FFC00
1FFE00
3E1F00
780F00
780780
700380
FFFF80
FFFF80
FFFFC0
FFFFC0
F00000
F00000
700000
780700
780F00
3E1F00
1FFE00
0FFC00
07F000
ENDCHAR
STARTCHAR 0208
ENCODING 520
SWIDTH 315 0
DWIDTH 14 0
BBX 13 37 -1 0
BITMAP
F3C0
71E0
38E0
1870
0C30
0418
0000
0000
1FF8
1FF8
1FF8
1FF8
03C0
03C0
03C0
03C0
03C0
03C0
03C0
03C0
03C0
03C0
03C0
03C0
03C0
03C0
03C0
03C0
03C0
03C0
03C0
03C0
03C0
03C0
1FF8
1FF8
1FF8
ENDCHAR
STARTCHAR 0209
ENCODING 521
SWIDTH 157 0
DWIDTH 7 0
BBX 13 29 -5 0
BITMAP
F3C0
71E0
38E0
1870
0C30
0418
0208
0000
0000
01C0
01C0
01C0
01C0
01C0
01C0
01C0
01C0
01C0
01C0
01C0
01C0
01C0
01C0
01C0
01C0
01C0
01C0
01C0
01C0
ENDCHAR
STARTCHAR 020A
ENCODING 522
SWIDTH 315 0
DWIDTH 14 0
BBX 12 37 1 0
BITMAP
1F80
3FC0
79E0
E070
E070
E030
0000
0000
7FE0
7FE0
7FE0
7FE0
0F00
0F00
0F00
0F00
0F00
0F00
0F00
0F00
0F00
0F00
0F00
0F00
0F00
0F00
0F00
0F00
0F00
0F00
0F00
0F00
0F00
0F00
7FE0
7FE0
7FE0
ENDCHAR
STARTCHAR 020B
ENCODING 523
SWIDTH 157 0
DWIDTH 7 0
BBX 12 29 -2 0
BITMAP
0600
3F80
7FC0
F0E0
E070
C070
0000
0000
0000
0E00
0E00
0E00
0E00
0E00
0E00
0E00
0E00
0E00
0E00
0E00
0E00
0E00
0E00
0E00
0E00
0E00
0E00
0E00
0E00
ENDCHAR
STARTCHAR 020C
ENCODING 524
SWIDTH 630 0
DWIDTH 28 0
BBX 24 37 2 0
BITMAP
1E7C00
0F1C00
070E00
038600
018300
00C100
000000
000000
007F00
01FFC0
07FFE0
0FC3F0
1F00F8
1E0078
3C003C
38001E
78001E
70000E
70000F
F0000F
F00007
E00007
E00007
E00007
F00007
F00007
70000F
70000E
78000E
78001E
3C003C
3E003C
1F0078
0F81F0
07FFE0
03FFC0
00FF00
ENDCHAR
STARTCHAR 020D
ENCODING 525
SWIDTH 472 0
DWIDTH 21 0
BBX 18 29 2 0
BITMAP
F1E000
78E000
387000
1C3000
0C1800
060800
020400
000000
000000
07F000
0FFC00
1FFE00
3E1F00
780F00
780780
700380
F00380
F00380
E003C0
E003C0
F00380
F00380
700380
780780
780F00
3E1F00
1FFE00
0FFC00
07F000
ENDCHAR
STARTCHAR 020E
ENCODING 526
SWIDTH 630 0
DWIDTH 28 0
BBX 24 37 2 0
BITMAP
007E00
00FF00
01E780
0381C0
0381C0
0380C0
000000
000000
007F00
01FFC0
07FFE0
0FC3F0
1F00F8
1E0078
3C003C
38001E
78001E
70000E
70000F
F0000F
F00007
E00007
E00007
E00007
F00007
F00007
70000F
70000E
78000E
78001E
3C003C
3E003C
1F0078
0F81F0
07FFE0
03FFC0
00FF00
ENDCHAR
STARTCHAR 020F
ENCODING 527
SWIDTH 472 0
DWIDTH 21 0
BBX 18 29 2 0
BITMAP
00C000
07F000
0FF800
1E1C00
1C0E00
180E00
000000
000000
000000
07F000
0FFC00
1FFE00
3E1F00
780F00
780780
700380
F00380
F00380
E003C0
E003C0
F00380
F00380
700380
780780
780F00
3E1F00
1FFE00
0FFC00
07F000
ENDCHAR
STARTCHAR 0210
ENCODING 528
SWIDTH 517 0
DWIDTH 23 0
BBX 20 37 1 0
BITMAP
F9E000
38F000
1C7000
0C3800
061800
020C00
000000
000000
7FE000
7FFC00
7FFF00
7FFF00
700780
7003C0
7001C0
7001C0
7001C0
7001C0
7001C0
7003C0
700780
7FFF80
7FFF00
7FFC00
7FF800
703C00
701E00
701E00
700F00
700700
700780
7003C0
7003C0
7001E0
7001E0
7000F0
700070
ENDCHAR
STARTCHAR 0211
ENCODING 529
SWIDTH 337 0
DWIDTH 15 0
BBX 15 29 -2 0
BITMAP
F9E0
38F0
1C70
0C38
0618
020C
0104
0000
0000
0E3E
0EFE
0FFC
0FE0
0FC0
0F80
0F00
0F00
0F00
0E00
0E00
0E00
0E00
0E00
0E00
0E00
0E00
0E00
0E00
0E00
ENDCHAR
STARTCHAR 0212
ENCODING 530
SWIDTH 517 0
DWIDTH 23 0
BBX 19 37 2 0
BITMAP
07E000
1FF000
1E7800
381800
301C00
301C00
000000
000000
FFC000
FFF800
FFFE00
FFFE00
E00F00
E00780
E00380
E00380
E00380
E00380
E00380
E00780
E00F00
FFFF00
FFFE00
FFF800
FFF000
E07800
E03C00
E03C00
E01E00
E00E00
E00F00
E00780
E00780
E003C0
E003C0
E001E0
E000E0
ENDCHAR
STARTCHAR 0213
ENCODING 531
SWIDTH 337 0
DWIDTH 15 0
BBX 12 29 2 0
BITMAP
0400
3F80
7FC0
F0E0
E060
C070
0000
0000
0000
E3E0
EFE0
FFC0
FE00
FC00
F800
F000
F000
F000
E000
E000
E000
E000
E000
E000
E000
E000
E000
E000
E000
ENDCHAR
STARTCHAR 0214
ENCODING 532
SWIDTH 585 0
DWIDTH 26 0
BBX 22 37 2 0
BITMAP
1E7800
0E1C00
070C00
030600
018200
008100
000000
000000
E0001C
E0001C
E0001C
E0001C
E0001C
E0001C
E0001C
E0001C
E0001C
E0001C
E0001C
E0001C
E0001C
E0001C
E0001C
E0001C
E0001C
E0001C
E0001C
E0001C
F0003C
700038
700038
780078
3C00F0
1F03E0
0FFFC0
07FF80
03FE00
ENDCHAR
STARTCHAR 0215
ENCODING 533
SWIDTH 472 0
DWIDTH 21 0
BBX 18 29 2 0
BITMAP
F1E000
78E000
387000
1C3000
0C1800
060800
020400
000000
000000
E003C0
E003C0
E003C0
E003C0
E003C0
E003C0
E003C0
E003C0
E003C0
E003C0
E003C0
E003C0
F003C0
7007C0
7007C0
780FC0
3C3FC0
3FFFC0
1FFBC0
0FF3C0
ENDCHAR
STARTCHAR 0216
ENCODING 534
SWIDTH 585 0
DWIDTH 26 0
BBX 22 37 2 0
BITMAP
00FC00
01FE00
03CF00
070380
070380
070380
000000
000000
E0001C
E0001C
E0001C
E0001C
E0001C
E0001C
E0001C
E0001C
E0001C
E0001C
E0001C
E0001C
E0001C
E0001C
E0001C
E0001C
E0001C
E0001C
E0001C
E0001C
F0003C
700038
700038
780078
3C00F0
1F03E0
0FFFC0
07FF80
03FE00
ENDCHAR
STARTCHAR 0217
ENCODING 535
SWIDTH 472 0
DWIDTH 21 0
BBX 18 29 2 0
BITMAP
00C000
07F000
0FF800
1E1C00
1C0E00
180E00
000000
000000
000000
E003C0
E003C0
E003C0
E003C0
E003C0
E003C0
E003C0
E003C0
E003C0
E003C0
E003C0
E003C0
F003C0
7007C0
7007C0
780FC0
3C3FC0
3FFFC0
1FFBC0
0FF3C0
ENDCHAR
STARTCHAR 0218
ENCODING 536
SWIDTH 472 0
DWIDTH 21 0
BBX 18 43 2 -14
BITMAP
03F000
0FF800
1FFC00
3E3E00
3C0F00
780700
780700
780700
780000
780000
3C0000
3E0000
1F8000
0FE000
03F800
00FE00
003F00
000F00
000780
000380
000380
E003C0
F00380
700380
780780
3C0F00
3FFF00
1FFE00
07F800
000000
000000
01C000
03E000
03F000
03F000
01F000
003000
003000
002000
006000
00C000
018000
020000
ENDCHAR
STARTCHAR 0219
ENCODING 537
SWIDTH 382 0
DWIDTH 17 0
BBX 13 34 2 -14
BITMAP
1FC0
3FE0
7FF0
7870
7078
7000
7800
7E00
3F80
0FE0
03F0
00F8
0078
0038
E038
F038
7878
7FF0
3FE0
1FC0
0000
0000
0600
0F80
0F80
0FC0
07C0
00C0
00C0
0080
0180
0300
0600
1800
ENDCHAR
STARTCHAR 021A
ENCODING 538
SWIDTH 495 0
DWIDTH 22 0
BBX 18 43 2 -14
BITMAP
FFFFC0
FFFFC0
FFFFC0
FFFFC0
00E000
00E000
00E000
00E000
00E000
00E000
00E000
00E000
00E000
00E000
00E000
00E000
00E000
00E000
00E000
00E000
00E000
00E000
00E000
00E000
00E000
00E000
00E000
00E000
00E000
000000
000000
00C000
01E000
01F000
01F000
01F000
001000
001000
003000
002000
004000
018000
020000
ENDCHAR
STARTCHAR 021B
ENCODING 539
SWIDTH 337 0
DWIDTH 15 0
BBX 11 39 2 -14
BITMAP
0200
0E00
0E00
0E00
0E00
FFE0
FFE0
FFE0
0E00
0E00
0E00
0E00
0E00
0E00
0E00
0E00
0E00
0E00
0E00
0E00
0E00
0E00
0FE0
0FE0
07E0
0000
0000
0C00
1F00
1F00
1F80
0F80
0180
0180
0100
0300
0600
0C00
3000
ENDCHAR
STARTCHAR 021C
ENCODING 540
SWIDTH 472 0
DWIDTH 21 0
BBX 17 29 2 0
BITMAP
07F000
1FFC00
3FFE00
7C1F00
F00780
200780
000380
000380
000380
000380
000780
000F00
001F00
003E00
03FF00
3FFF00
3FE780
3F0380
000380
000380
000380
000780
000780
000F00
003E00
01FC00
3FF800
3FE000
3F8000
ENDCHAR
STARTCHAR 021D
ENCODING 541
SWIDTH 472 0
DWIDTH 21 0
BBX 16 29 3 -9
BITMAP
1FF0
7FF8
FFFC
F03E
E00F
4007
0007
0007
0007
0007
000F
001E
003E
00FC
3FFE
7FEF
7F8F
7807
0007
0007
0007
000F
001E
003E
00FC
07F8
7FE0
7FC0
7E00
ENDCHAR
STARTCHAR 021E
ENCODING 542
SWIDTH 495 0
DWIDTH 22 0
BBX 18 37 2 0
BITMAP
0C0400
060C00
071800
03B800
03F000
01F000
000000
000000
E001C0
E001C0
E001C0
E001C0
E001C0
E001C0
E001C0
E001C0
E001C0
E001C0
E001C0
E001C0
E001C0
FFFFC0
FFFFC0
FFFFC0
E001C0
E001C0
E001C0
E001C0
E001C0
E001C0
E001C0
E001C0
E001C0
E001C0
E001C0
E001C0
E001C0
ENDCHAR
STARTCHAR 021F
ENCODING 543
SWIDTH 472 0
DWIDTH 21 0
BBX 18 37 2 0
BITMAP
080400
0C0800
061800
077000
03F000
03E000
000000
000000
E00000
E00000
E00000
E00000
E00000
E00000
E00000
E00000
E00000
E3F800
EFFE00
FFFE00
FE0F00
FC0700
F80780
F00380
F00380
F00380
E003C0
E003C0
E003C0
E003C0
E003C0
E003C0
E003C0
E003C0
E003C0
E003C0
E003C0
ENDCHAR
STARTCHAR 0220
ENCODING 544
SWIDTH 585 0
DWIDTH 26 0
BBX 22 38 2 -9
BITMAP
E1FE00
E7FF80
EFFFC0
FF87E0
FE01F0
FC00F8
F80078
F00038
F0003C
F0003C
E0001C
E0001C
E0001C
E0001C
E0001C
E0001C
E0001C
E0001C
E0001C
E0001C
E0001C
E0001C
E0001C
E0001C
E0001C
E0001C
E0001C
E0001C
E0001C
00001C
00001C
00001C
00001C
00001C
00001C
00001C
00001C
00001C
ENDCHAR
STARTCHAR 0221
ENCODING 545
SWIDTH 697 0
DWIDTH 31 0
BBX 27 38 2 -9
BITMAP
0003C000
0003C000
0003C000
0003C000
0003C000
0003C000
0003C000
0003C000
0003C000
07F3C000
0FFFC000
1FFFC000
3E1FC000
780FC000
7807C000
7003C000
F003C000
F003C000
E003C000
E003C000
F003C0E0
F003C120
7003C220
7807C260
780FC640
3E1FC6C0
1FFFC780
0FFDFF00
07F0FC00
00000400
00000C00
00000C00
00000C00
00020800
00070800
00071800
00033000
0001C000
ENDCHAR
STARTCHAR 0222
ENCODING 546
SWIDTH 472 0
DWIDTH 21 0
BBX 18 29 2 0
BITMAP
E00380
E003C0
E00380
F00380
700380
700780
780700
3C0F00
3F3E00
1FFC00
0FFC00
1FFE00
3E1F00
780F00
780780
700380
F00380
F00380
E003C0
E003C0
F00380
F00380
700380
780780
780F00
3E1F00
1FFE00
0FFC00
07F000
ENDCHAR
STARTCHAR 0223
ENCODING 547
SWIDTH 427 0
DWIDTH 19 0
BBX 15 29 2 0
BITMAP
781E
701E
F00E
F00E
E00E
E00E
F00E
F00E
701E
783C
3E7C
1FF8
1FF0
3FF8
3C7C
781C
701E
F00E
F00E
E00E
E00E
F00E
F00E
701E
781E
3C3C
3FF8
1FF0
0FE0
ENDCHAR
STARTCHAR 0224
ENCODING 548
SWIDTH 517 0
DWIDTH 23 0
BBX 20 38 2 -9
BITMAP
FFFFF0
FFFFF0
FFFFF0
FFFFF0
0001E0
0003C0
0003C0
000780
000F00
000F00
001E00
003C00
007800
007800
00F000
01E000
01E000
03C000
078000
078000
0F0000
1E0000
3C0000
3C0000
780000
F00000
FFFFF0
FFFFF0
FFFFF0
0000F0
0000F0
0000F0
0000F0
0000F0
0001E0
001FE0
003FC0
001F00
ENDCHAR
STARTCHAR 0225
ENCODING 549
SWIDTH 382 0
DWIDTH 17 0
BBX 14 29 2 -9
BITMAP
FFFC
FFFC
FFFC
0078
0078
00F0
01E0
01E0
03C0
0780
0780
0F00
1E00
3C00
3C00
7800
F000
FFFC
FFFC
FFFC
003C
003C
003C
003C
0038
0478
07F8
0FF0
07C0
ENDCHAR
STARTCHAR 0226
ENCODING 550
SWIDTH 630 0
DWIDTH 28 0
BBX 24 36 2 0
BITMAP
003C00
003E00
003E00
001C00
000000
000000
000000
001C00
003C00
003E00
007E00
007F00
007F00
00F700
00E780
00E380
01E380
01C3C0
01C1C0
03C1C0
0381E0
0780E0
07FFF0
07FFF0
0FFFF0
0E0078
0E0038
1E0038
1C003C
1C001C
3C001E
38001E
78000E
78000F
70000F
F00007
ENDCHAR
STARTCHAR 0227
ENCODING 551
SWIDTH 405 0
DWIDTH 18 0
BBX 14 28 2 0
BITMAP
0300
0780
0780
0780
0300
0000
0000
0000
0FC0
1FF0
3FF8
1C7C
003C
001C
001C
001C
0FFC
3FFC
7FFC
783C
F01C
E01C
E01C
F03C
787C
7FFC
3FFC
1FFC
ENDCHAR
STARTCHAR 0228
ENCODING 552
SWIDTH 495 0
DWIDTH 22 0
BBX 18 38 2 -9
BITMAP
FFFFC0
FFFFC0
FFFFC0
FFFFC0
E00000
E00000
E00000
E00000
E00000
E00000
E00000
E00000
E00000
FFFF00
FFFF00
FFFF00
E00000
E00000
E00000
E00000
E00000
E00000
E00000
E00000
E00000
E00000
FFFFC0
FFFFC0
FFFFC0
00E000
00F000
00F800
001C00
000C00
000C00
021C00
03F800
03F000
ENDCHAR
STARTCHAR 0229
ENCODING 553
SWIDTH 472 0
DWIDTH 21 0
BBX 18 29 2 -9
BITMAP
07F000
0FFC00
1FFE00
3E1F00
780F00
780780
700380
FFFF80
FFFF80
FFFFC0
FFFFC0
F00000
F00000
700000
780700
780F00
3E1F00
1FFE00
0FFC00
07F800
01C000
01E000
01F000
003800
001800
001800
043800
07F000
07E000
ENDCHAR
STARTCHAR 022A
ENCODING 554
SWIDTH 630 0
DWIDTH 28 0
BBX 24 37 2 0
BITMAP
01FFC0
01FFC0
01FFC0
008180
03C3C0
03E7C0
03E3C0
01C380
007F00
01FFC0
07FFE0
0FC3F0
1F00F8
1E0078
3C003C
38001E
78001E
70000E
70000F
F0000F
F00007
E00007
E00007
E00007
F00007
F00007
70000F
70000E
78000E
78001E
3C003C
3E003C
1F0078
0F81F0
07FFE0
03FFC0
00FF00
ENDCHAR
STARTCHAR 022B
ENCODING 555
SWIDTH 472 0
DWIDTH 21 0
BBX 18 34 2 0
BITMAP
1FFC00
1FFC00
1FFC00
1FFC00
000000
000000
0C1C00
1E3E00
1F3E00
1E3E00
0E1C00
000000
000000
000000
07F000
0FFC00
1FFE00
3E1F00
780F00
780780
700380
F00380
F00380
E003C0
E003C0
F00380
F00380
700380
780780
780F00
3E1F00
1FFE00
0FFC00
07F000
ENDCHAR
STARTCHAR 022C
ENCODING 556
SWIDTH 630 0
DWIDTH 28 0
BBX 24 37 2 0
BITMAP
01FFC0
01FFC0
01FFC0
03F030
07F860
063FE0
060FE0
040380
007F00
01FFC0
07FFE0
0FC3F0
1F00F8
1E0078
3C003C
38001E
78001E
70000E
70000F
F0000F
F00007
E00007
E00007
E00007
F00007
F00007
70000F
70000E
78000E
78001E
3C003C
3E003C
1F0078
0F81F0
07FFE0
03FFC0
00FF00
ENDCHAR
STARTCHAR 022D
ENCODING 557
SWIDTH 472 0
DWIDTH 21 0
BBX 18 34 2 0
BITMAP
1FFC00
1FFC00
1FFC00
000000
000000
000000
1E0300
3F8300
3BE300
60FF00
603E00
000000
000000
000000
07F000
0FFC00
1FFE00
3E1F00
780F00
780780
700380
F00380
F00380
E003C0
E003C0
F00380
F00380
700380
780780
780F00
3E1F00
1FFE00
0FFC00
07F000
ENDCHAR
STARTCHAR 022E
ENCODING 558
SWIDTH 630 0
DWIDTH 28 0
BBX 24 36 2 0
BITMAP
003C00
003C00
003C00
003C00
000000
000000
000000
007F00
01FFC0
07FFE0
0FC3F0
1F00F8
1E0078
3C003C
38001E
78001E
70000E
70000F
F0000F
F00007
E00007
E00007
E00007
F00007
F00007
70000F
70000E
78000E
78001E
3C003C
3E003C
1F0078
0F81F0
07FFE0
03FFC0
00FF00
ENDCHAR
STARTCHAR 022F
ENCODING 559
SWIDTH 472 0
DWIDTH 21 0
BBX 18 28 2 0
BITMAP
00C000
01E000
03E000
01E000
01C000
000000
000000
000000
07F000
0FFC00
1FFE00
3E1F00
780F00
780780
700380
F00380
F00380
E003C0
E003C0
F00380
F00380
700380
780780
780F00
3E1F00
1FFE00
0FFC00
07F000
ENDCHAR
STARTCHAR 0230
ENCODING 560
SWIDTH 630 0
DWIDTH 28 0
BBX 24 37 2 0
BITMAP
01FFC0
01FFC0
01FFC0
003C00
003C00
003C00
003C00
000000
007F00
01FFC0
07FFE0
0FC3F0
1F00F8
1E0078
3C003C
38001E
78001E
70000E
70000F
F0000F
F00007
E00007
E00007
E00007
F00007
F00007
70000F
70000E
78000E
78001E
3C003C
3E003C
1F0078
0F81F0
07FFE0
03FFC0
00FF00
ENDCHAR
STARTCHAR 0231
ENCODING 561
SWIDTH 472 0
DWIDTH 21 0
BBX 18 34 2 0
BITMAP
1FFC00
1FFC00
1FFC00
1FFC00
000000
000000
00C000
01E000
03E000
01E000
01C000
000000
000000
000000
07F000
0FFC00
1FFE00
3E1F00
780F00
780780
700380
F00380
F00380
E003C0
E003C0
F00380
F00380
700380
780780
780F00
3E1F00
1FFE00
0FFC00
07F000
ENDCHAR
STARTCHAR 0232
ENCODING 562
SWIDTH 630 0
DWIDTH 28 0
BBX 24 35 2 0
BITMAP
01FFC0
01FFC0
01FFC0
000000
000000
000000
F0000F
78001E
3C001E
3C003C
1E0078
0F0078
0F00F0
0781E0
03C1E0
01E3C0
01E780
00FF00
007F00
007E00
003C00
001C00
001C00
001C00
001C00
001C00
001C00
001C00
001C00
001C00
001C00
001C00
001C00
001C00
001C00
ENDCHAR
STARTCHAR 0233
ENCODING 563
SWIDTH 495 0
DWIDTH 22 0
BBX 18 35 2 -9
BITMAP
0FFE00
0FFE00
0FFE00
000000
000000
000000
F001C0
7003C0
780380
780780
380780
3C0700
1C0F00
1C0E00
1E0E00
0E1E00
0E1C00
0F3C00
073C00
07B800
07F800
03F800
03F000
01F000
01E000
01E000
01E000
01C000
01C000
03C000
038000
078000
3F0000
3E0000
7C0000
ENDCHAR
STARTCHAR 0234
ENCODING 564
SWIDTH 382 0
DWIDTH 17 0
BBX 14 38 1 -9
BITMAP
7000
7000
7000
7000
7000
7000
7000
7000
7000
7000
7000
7000
7000
7000
7000
7000
7000
7000
7000
7000
701C
7024
7044
704C
70C8
78D8
78F0
3FE0
1F80
0180
0180
0180
0180
4100
E100
E300
E600
3800
ENDCHAR
STARTCHAR 0235
ENCODING 565
SWIDTH 697 0
DWIDTH 31 0
BBX 27 29 2 -9
BITMAP
E3F80000
EFFE0000
FFFE0000
FE0F0000
FC070000
F8078000
F0038000
F0038000
F0038000
E003C000
E003C000
E003C0E0
E003C120
E003C220
E003C260
E003C640
E003C6C0
E001C780
E001FF00
E000FC00
00000400
00000C00
00000C00
00000C00
00020800
00070800
00071800
00033000
0001C000
ENDCHAR
STARTCHAR 0236
ENCODING 566
SWIDTH 450 0
DWIDTH 20 0
BBX 17 33 2 -9
BITMAP
0E0000
0E0000
0E0000
0E0000
FFE000
FFE000
FFE000
0E0000
0E0000
0E0000
0E0000
0E0000
0E0000
0E0000
0E0000
0E0380
0E0480
0E0880
0E1900
0E1900
0E1B00
0F1E00
07FC00
03F000
003000
003000
003000
003000
182000
1C2000
1C4000
1CC000
070000
ENDCHAR
STARTCHAR 0237
ENCODING 567
SWIDTH 157 0
DWIDTH 7 0
BBX 10 29 -5 -9
BITMAP
01C0
01C0
01C0
01C0
01C0
01C0
01C0
01C0
01C0
01C0
01C0
01C0
01C0
01C0
01C0
01C0
01C0
01C0
01C0
01C0
01C0
01C0
01C0
01C0
01C0
23C0
7F80
FF00
3E00
ENDCHAR
STARTCHAR 0238
ENCODING 568
SWIDTH 787 0
DWIDTH 35 0
BBX 32 29 2 0
BITMAP
0003C000
0003C000
0003C000
0003C000
0003C000
0003C000
0003C000
0003C000
0003C000
07F3DFE0
0FFFFFF0
1FFFFFF8
3E1FF87C
780FF03C
7807E01E
7003C00E
F003C00E
F003C00F
E003C00F
E003C00F
F003C00F
F003C00E
7003C00E
7807E01E
780FE03C
3E1FF87C
1FFFFFF8
0FFFFFF0
07F3DFE0
ENDCHAR
STARTCHAR 0239
ENCODING 569
SWIDTH 787 0
DWIDTH 35 0
BBX 32 30 2 -10
BITMAP
07F3DFE0
0FFFFFF0
1FFFFFF8
3E1FF87C
780FF03C
7807E01E
7003C00E
F003C00E
F003C00F
E003C00F
E003C00F
F003C00F
F003C00E
7003C00E
7807E01E
780FE03C
3E1FF87C
1FFFFFF8
0FFFFFF0
07F3DFE0
0003C000
0003C000
0003C000
0003C000
0003C000
0003C000
0003C000
0003C000
0000C000
00004000
ENDCHAR
STARTCHAR 023A
ENCODING 570
SWIDTH 630 0
DWIDTH 28 0
BBX 24 32 2 -1
BITMAP
000006
001C0F
003C0F
003E1E
007E3C
007F78
007F78
00F7F0
00E7E0
00E3E0
01E3C0
01C7C0
01C7C0
03CFE0
039FE0
07BCE0
07FFF0
07FFF0
0FFFF0
0EF078
0FE038
1FC038
1FC03C
1F801C
3F001E
3E001E
7E000E
7C000F
78000F
F80007
700000
200000
ENDCHAR
STARTCHAR 023B
ENCODING 571
SWIDTH 585 0
DWIDTH 26 0
BBX 24 33 2 -2
BITMAP
000004
000006
007E0F
01FFDE
07FFFE
0FC3FC
1F00F8
1E0078
3C00FC
3801F8
7803C0
7003C0
700780
F00F00
F00F00
E01E00
E03C00
E03C00
F07800
F0F000
F1E000
71E000
7BC000
7F8010
3F803C
3F003C
1F0078
1F81F0
3FFFE0
7BFFC0
F0FF00
700000
200000
ENDCHAR
STARTCHAR 023C
ENCODING 572
SWIDTH 450 0
DWIDTH 20 0
BBX 18 24 2 -2
BITMAP
000180
0003C0
07F3C0
0FFF80
1FFF00
3E1F00
781F00
783F00
707800
F07800
F0F000
E1E000
E1E000
F3C000
F78000
7F0000
7F0700
7E0F00
3C1F00
3FFE00
7FFC00
F7F000
F00000
E00000
ENDCHAR
STARTCHAR 023D
ENCODING 573
SWIDTH 562 0
DWIDTH 25 0
BBX 22 29 2 0
BITMAP
1E0000
1E0000
1E0000
1E0000
1E0000
1E0000
1E0000
1E0000
1E0000
1E0000
1E0000
1E0000
1E0000
FFE000
FFE000
FFE000
1E0000
1E0000
1E0000
1E0000
1E0000
1E0000
1E0000
1E0000
1E0000
1E0000
1FFFFC
1FFFFC
1FFFFC
ENDCHAR
STARTCHAR 023E
ENCODING 574
SWIDTH 495 0
DWIDTH 22 0
BBX 23 32 0 -1
BITMAP
00000C
3FFFFE
3FFFFE
3FFFFC
3FFFF8
0038F0
0038F0
0039E0
003BC0
003BC0
003F80
003F00
003F00
003E00
003C00
007800
007800
00F800
01F800
01F800
03F800
07B800
07B800
0F3800
1E3800
3C3800
3C3800
783800
F03800
F03800
E00000
400000
ENDCHAR
STARTCHAR 023F
ENCODING 575
SWIDTH 382 0
DWIDTH 17 0
BBX 22 30 2 -10
BITMAP
0FC000
3FE000
7FF000
78F000
707800
700000
780000
7C0000
3F8000
0FE000
03F000
00F800
007800
003800
E03800
F03800
787800
7FF000
3FE000
1FE000
01F000
007800
007800
003C00
003C00
001E00
001E18
000FFC
0007F8
0003F0
ENDCHAR
STARTCHAR 0240
ENCODING 576
SWIDTH 382 0
DWIDTH 17 0
BBX 20 30 2 -10
BITMAP
FFFC00
FFFC00
FFFC00
007800
007800
00F000
01E000
01E000
03C000
078000
078000
0F0000
1E0000
3C0000
3C0000
780000
F00000
FF0000
FF8000
FFC000
01E000
01E000
00F000
00F000
007800
007800
003EF0
001FF0
000FE0
0007C0
ENDCHAR
STARTCHAR 0241
ENCODING 577
SWIDTH 472 0
DWIDTH 21 0
BBX 18 29 2 0
BITMAP
03F000
0FF800
1FFE00
3E3E00
3C0F00
780780
700780
F00380
F00380
E00380
0003C0
000380
000380
000380
000780
000700
000F00
007E00
01FC00
01F800
01E000
01C000
01C000
01C000
01C000
01C000
01C000
01C000
01C000
ENDCHAR
STARTCHAR 0242
ENCODING 578
SWIDTH 360 0
DWIDTH 16 0
BBX 12 20 2 0
BITMAP
1F80
3FC0
7FE0
F8F0
F070
0070
0070
00F0
00E0
01E0
03C0
0380
0780
0700
0700
0700
0700
0700
0700
0700
ENDCHAR
STARTCHAR 0243
ENCODING 579
SWIDTH 562 0
DWIDTH 25 0
BBX 22 29 2 0
BITMAP
1FFE00
1FFF80
1FFFC0
1FFFE0
1E00F0
1E0070
1E0070
1E0078
1E0078
1E0070
1E00F0
1E01F0
1FFFE0
1FFFC0
1FFFE0
1E03F0
1E00F8
1E0078
1E0038
FFE03C
FFE03C
FFE03C
1E0038
1E0078
1E00F8
1E03F0
1FFFE0
1FFFC0
1FFF00
ENDCHAR
STARTCHAR 0244
ENCODING 580
SWIDTH 675 0
DWIDTH 30 0
BBX 26 29 2 0
BITMAP
3C000700
3C000700
3C000700
3C000700
3C000700
3C000700
3C000700
3C000700
3C000700
3C000700
3C000700
3C000700
3C000700
FFFFFFC0
FFFFFFC0
FFFFFFC0
3C000700
3C000700
3C000700
3C000700
3C000700
1C000F00
1E000E00
1E001E00
0F003C00
07C0FC00
03FFF800
01FFE000
007FC000
ENDCHAR
STARTCHAR 0245
ENCODING 581
SWIDTH 630 0
DWIDTH 28 0
BBX 24 29 2 0
BITMAP
001C00
003C00
003E00
007E00
007F00
007F00
00F700
00E780
00E380
01E380
01C3C0
01C1C0
03C1C0
0381E0
0780E0
0780F0
0700F0
0F0070
0E0078
0E0038
1E0038
1C003C
1C001C
3C001E
38001E
78000E
78000F
70000F
F00007
ENDCHAR
STARTCHAR 0246
ENCODING 582
SWIDTH 495 0
DWIDTH 22 0
BBX 23 32 0 -1
BITMAP
00000C
3FFFFE
3FFFFE
3FFFFC
3FFFF8
3800F0
3800F0
3801E0
3803C0
3803C0
380780
380F00
380F00
381E00
3FFFC0
3FFFC0
3FFFC0
38F000
39E000
39E000
3BC000
3F8000
3F8000
3F0000
3E0000
3C0000
3C0000
7FFFF0
FFFFF0
FFFFF0
E00000
400000
ENDCHAR
STARTCHAR 0247
ENCODING 583
SWIDTH 472 0
DWIDTH 21 0
BBX 18 24 2 -2
BITMAP
000180
0003C0
07F3C0
0FFF80
1FFF00
3E1F00
781F00
783F80
707B80
FFFF80
FFFF80
FFFFC0
FFFFC0
F3C000
F78000
7F0000
7F0700
7E0F00
3E1F00
3FFE00
7FFC00
F7F000
F00000
E00000
ENDCHAR
STARTCHAR 0248
ENCODING 584
SWIDTH 427 0
DWIDTH 19 0
BBX 16 29 2 0
BITMAP
0070
0070
0070
0070
0070
0070
0070
0070
0070
0070
0070
0070
0070
07FF
07FF
07FF
0070
0070
0070
0070
0070
0070
0070
E070
F070
70F0
7FE0
3FE0
1F80
ENDCHAR
STARTCHAR 0249
ENCODING 585
SWIDTH 337 0
DWIDTH 15 0
BBX 13 37 0 -9
BITMAP
0180
03C0
03C0
03C0
0180
0000
0000
0000
01C0
01C0
01C0
01C0
01C0
01C0
01C0
01C0
3FF8
3FF8
3FF8
3FF8
01C0
01C0
01C0
01C0
01C0
01C0
01C0
01C0
01C0
01C0
01C0
03C0
03C0
0780
7F80
FF00
7C00
ENDCHAR
STARTCHAR 024A
ENCODING 586
SWIDTH 630 0
DWIDTH 28 0
BBX 31 38 2 -9
BITMAP
007F0700
01FFC700
07FFE700
0FC3F700
1F00FF00
1E007F00
3C003F00
38001F00
78001F00
70000F00
70000F00
F0000F00
F0000700
E0000700
E0000700
E0000700
F0000700
F0000700
70000F00
70000F00
78000F00
78001F00
3C003F00
3E003F00
1F007F00
0F81F700
07FFE700
03FFC700
00FF0700
00000700
00000700
00000700
00000700
00000700
000007C8
000003FC
000001FE
000000F8
ENDCHAR
STARTCHAR 024B
ENCODING 587
SWIDTH 472 0
DWIDTH 21 0
BBX 24 29 2 -9
BITMAP
07F3C0
0FFFC0
1FFFC0
3E1FC0
780FC0
7807C0
7003C0
F003C0
F003C0
E003C0
E003C0
F003C0
F003C0
7003C0
7807C0
780FC0
3E1FC0
1FFFC0
0FFFC0
07F3C0
0003C0
0003C0
0003C0
0003C0
0003C0
0001E0
0001FE
0000FF
00003E
ENDCHAR
STARTCHAR 024C
ENCODING 588
SWIDTH 607 0
DWIDTH 27 0
BBX 23 29 2 0
BITMAP
1FFC00
1FFF00
1FFFC0
1FFFE0
1E01E0
1E00F0
1E0070
1E0070
1E0078
1E0078
1E0070
1E00F0
1E01E0
FFFFE0
FFFFC0
FFFF00
FFFF00
1E0700
1E0780
1E0380
1E03C0
1E01E0
1E01E0
1E00F0
1E0070
1E0078
1E003C
1E003C
1E001E
ENDCHAR
STARTCHAR 024D
ENCODING 589
SWIDTH 405 0
DWIDTH 18 0
BBX 14 20 2 0
BITMAP
1E7C
1FFC
1FFC
1FC0
1F80
1F00
1F00
1E00
FFE0
FFE0
FFE0
FFE0
1E00
1E00
1E00
1E00
1E00
1E00
1E00
1E00
ENDCHAR
STARTCHAR 024E
ENCODING 590
SWIDTH 630 0
DWIDTH 28 0
BBX 24 29 2 0
BITMAP
F0000F
78001E
3C001E
3C003C
1E0078
FFFFFF
FFFFFF
FFFFFF
03C1E0
01E3C0
01E780
00FF00
007F00
007E00
003C00
001C00
001C00
001C00
001C00
001C00
001C00
001C00
001C00
001C00
001C00
001C00
001C00
001C00
001C00
ENDCHAR
STARTCHAR 024F
ENCODING 591
SWIDTH 495 0
DWIDTH 22 0
BBX 18 29 2 -9
BITMAP
F001C0
7003C0
780380
780780
380780
3C0700
1C0F00
1C0E00
FFFFC0
FFFFC0
FFFFC0
FFFFC0
073C00
07B800
07F800
03F800
03F000
01F000
01E000
01E000
01E000
01C000
01C000
03C000
038000
078000
3F0000
3E0000
7C0000
ENDCHAR
STARTCHAR 0250
ENCODING 592
SWIDTH 405 0
DWIDTH 18 0
BBX 14 20 2 0
BITMAP
FFC0
FFF0
FFF8
F878
F03C
E01C
E01C
E03C
E078
FFF8
FFF0
FFC0
E000
E000
E000
F000
F860
7FF0
3FE0
1FC0
ENDCHAR
STARTCHAR 0251
ENCODING 593
SWIDTH 472 0
DWIDTH 21 0
BBX 18 20 2 0
BITMAP
07F3C0
0FFFC0
1FFFC0
3E1FC0
780FC0
7807C0
7003C0
F003C0
F003C0
E003C0
E003C0
F003C0
F003C0
7003C0
7807C0
780FC0
3E1FC0
1FFFC0
0FFFC0
07F3C0
ENDCHAR
STARTCHAR 0252
ENCODING 594
SWIDTH 472 0
DWIDTH 21 0
BBX 18 20 2 0
BITMAP
E7F000
EFFC00
FFFE00
FE1F00
F80F00
F80780
F00380
F00380
F00380
E003C0
E003C0
F00380
F00380
F00380
F80780
F80F00
FE1F00
FFFE00
EFFC00
E7F000
ENDCHAR
STARTCHAR 0253
ENCODING 595
SWIDTH 472 0
DWIDTH 21 0
BBX 18 29 2 0
BITMAP
0F8000
3FC000
7F8000
790000
F00000
E00000
E00000
E00000
E00000
E7F000
EFFC00
FFFE00
FE1F00
F80F00
F80780
F00380
F00380
F00380
E003C0
E003C0
F00380
F00380
F00380
F80780
F80F00
FE1F00
FFFE00
EFFC00
E7F000
ENDCHAR
STARTCHAR 0254
ENCODING 596
SWIDTH 450 0
DWIDTH 20 0
BBX 16 20 2 0
BITMAP
0FE0
1FF8
3FFC
7C3E
F01E
700F
200F
0007
0007
0007
0007
0007
0007
200F
700F
F01E
783E
3FFC
1FF8
0FE0
ENDCHAR
STARTCHAR 0255
ENCODING 597
SWIDTH 450 0
DWIDTH 20 0
BBX 17 29 2 -9
BITMAP
07F000
0FFC00
1FFE00
3E1F00
780F00
780700
700000
F00000
F00000
E00000
E00000
F00380
F00480
700880
780980
781900
3E1B00
1FFE00
0FFC00
07F800
001000
003000
003000
003000
082000
1C2000
1C6000
1C4000
0F8000
ENDCHAR
STARTCHAR 0256
ENCODING 598
SWIDTH 472 0
DWIDTH 21 0
BBX 24 38 2 -9
BITMAP
0003C0
0003C0
0003C0
0003C0
0003C0
0003C0
0003C0
0003C0
0003C0
07F3C0
0FFFC0
1FFFC0
3E1FC0
780FC0
7807C0
7003C0
F003C0
F003C0
E003C0
E003C0
F003C0
F003C0
7003C0
7807C0
780FC0
3E1FC0
1FFFC0
0FFFC0
07F3C0
0003C0
0003C0
0003C0
0003C0
0003C0
0001E0
0001FE
0000FF
00003E
ENDCHAR
STARTCHAR 0257
ENCODING 599
SWIDTH 472 0
DWIDTH 21 0
BBX 24 29 2 0
BITMAP
00003E
0000FF
0001FE
0001E0
0003C0
0003C0
0003C0
0003C0
0003C0
07F3C0
0FFFC0
1FFFC0
3E1FC0
780FC0
7807C0
7003C0
F003C0
F003C0
E003C0
E003C0
F003C0
F003C0
7003C0
7807C0
780FC0
3E1FC0
1FFFC0
0FFFC0
07F3C0
ENDCHAR
STARTCHAR 0258
ENCODING 600
SWIDTH 472 0
DWIDTH 21 0
BBX 18 20 2 0
BITMAP
07F000
0FFC00
1FFE00
3E1F00
780F00
780780
700380
FFFF80
FFFF80
FFFFC0
FFFFC0
000380
000380
000380
380780
780F00
3E1F00
1FFE00
0FFC00
07F000
ENDCHAR
STARTCHAR 0259
ENCODING 601
SWIDTH 472 0
DWIDTH 21 0
BBX 18 20 2 0
BITMAP
07F000
0FFC00
1FFE00
3E1F00
780F00
380780
000380
000380
000380
FFFFC0
FFFFC0
FFFF80
FFFF80
700380
780780
780F00
3E1F00
1FFE00
0FFC00
07F000
ENDCHAR
STARTCHAR 025A
ENCODING 602
SWIDTH 675 0
DWIDTH 30 0
BBX 27 20 2 0
BITMAP
07F00000
0FFC0000
1FFE0000
3E1F0000
780F0000
38078000
000380C0
000380C0
0003B8E0
FFFFF8E0
FFFFF8C0
FFFF98C0
FFFF9FC0
70038F80
78078000
780F0000
3E1F0000
1FFE0000
0FFC0000
07F00000
ENDCHAR
STARTCHAR 025B
ENCODING 603
SWIDTH 382 0
DWIDTH 17 0
BBX 13 20 2 0
BITMAP
0FC0
3FE0
3FF0
78F0
7870
7000
7800
3F00
3F00
3F00
7F00
7800
F000
E000
E038
F038
7878
7FF0
3FE0
1FC0
ENDCHAR
STARTCHAR 025C
ENCODING 604
SWIDTH 382 0
DWIDTH 17 0
BBX 13 20 2 0
BITMAP
0FC0
3FE0
3FF0
78F0
7870
0070
00F0
07F0
07E0
07E0
07F0
0078
0038
0038
E038
F038
7878
7FF0
3FE0
1FC0
ENDCHAR
STARTCHAR 025D
ENCODING 605
SWIDTH 562 0
DWIDTH 25 0
BBX 21 20 2 0
BITMAP
0FC000
3FE000
3FF018
78F218
787E18
007E18
00F718
07F338
07E3F0
07E1E0
07F000
007800
003800
003800
E03800
F03800
787800
7FF000
3FE000
1FC000
ENDCHAR
STARTCHAR 025E
ENCODING 606
SWIDTH 427 0
DWIDTH 19 0
BBX 15 20 2 0
BITMAP
07F0
0FF8
1FFC
3E3C
781C
781C
701C
F0FC
F0F8
E0FC
E0FC
F01E
F00E
700E
780E
780E
3E1E
1FFC
0FF8
07F0
ENDCHAR
STARTCHAR 025F
ENCODING 607
SWIDTH 337 0
DWIDTH 15 0
BBX 14 29 -1 -9
BITMAP
01C0
01C0
01C0
01C0
01C0
01C0
01C0
01C0
01C0
01C0
01C0
01C0
01C0
01C0
01C0
1FFC
1FFC
1FFC
01C0
01C0
01C0
01C0
01C0
01C0
03C0
27C0
7F80
FF00
7E00
ENDCHAR
STARTCHAR 0260
ENCODING 608
SWIDTH 472 0
DWIDTH 21 0
BBX 24 38 2 -9
BITMAP
000008
00007F
0000FF
0001FE
0001C0
0003C0
0003C0
0003C0
0003C0
07F3C0
0FFFC0
1FFFC0
3E1FC0
780FC0
7807C0
7003C0
F003C0
F003C0
E003C0
E003C0
F003C0
F003C0
7003C0
7807C0
780FC0
3E1FC0
1FFFC0
0FFFC0
07F3C0
0003C0
0003C0
0003C0
000380
380780
7E1F00
3FFF00
1FFC00
07F000
ENDCHAR
STARTCHAR 0261
ENCODING 609
SWIDTH 472 0
DWIDTH 21 0
BBX 18 29 2 -9
BITMAP
07F3C0
0FFFC0
1FFFC0
3E1FC0
780FC0
7807C0
7003C0
F003C0
F003C0
E003C0
E003C0
F003C0
F003C0
7003C0
7807C0
780FC0
3E1FC0
1FFFC0
0FFFC0
07F3C0
0003C0
0003C0
0003C0
000380
380780
7E1F00
3FFF00
1FFC00
07F000
ENDCHAR
STARTCHAR 0262
ENCODING 610
SWIDTH 450 0
DWIDTH 20 0
BBX 16 20 2 0
BITMAP
07F0
0FFC
1FFE
3E1F
780F
7807
7000
F000
F000
E07F
E07F
F07F
F007
7007
7807
780F
3E1F
1FFE
0FFC
07F0
ENDCHAR
STARTCHAR 0263
ENCODING 611
SWIDTH 495 0
DWIDTH 22 0
BBX 18 29 2 -9
BITMAP
F001C0
7003C0
780380
780780
380780
3C0700
1C0F00
1C0E00
1E0E00
0E1E00
0E1C00
0F1C00
073C00
07B800
07F800
03F800
03F000
01F000
01E000
01E000
01F000
03F000
03F800
07F800
07B800
07B800
07F800
03F000
01E000
ENDCHAR
STARTCHAR 0264
ENCODING 612
SWIDTH 630 0
DWIDTH 28 0
BBX 24 20 2 0
BITMAP
3F80FC
7FC1FE
FFE3FF
31E786
00F700
00F700
007F00
007E00
007E00
003E00
003C00
003E00
007E00
007E00
007F00
00F700
00F700
00FF00
007F00
003E00
ENDCHAR
STARTCHAR 0265
ENCODING 613
SWIDTH 472 0
DWIDTH 21 0
BBX 18 30 2 -10
BITMAP
E003C0
E003C0
E003C0
E003C0
E003C0
E003C0
E003C0
E003C0
E003C0
E003C0
E003C0
E003C0
F003C0
7007C0
7007C0
780FC0
3C3FC0
3FFFC0
1FFBC0
0FF3C0
0003C0
0003C0
0003C0
0003C0
0003C0
0003C0
0003C0
0003C0
0000C0
000040
ENDCHAR
STARTCHAR 0266
ENCODING 614
SWIDTH 472 0
DWIDTH 21 0
BBX 18 29 2 0
BITMAP
0F8000
3FC000
7F8000
790000
F00000
E00000
E00000
E00000
E00000
E3F800
EFFE00
FFFE00
FE0F00
FC0700
F80780
F00380
F00380
F00380
E003C0
E003C0
E003C0
E003C0
E003C0
E003C0
E003C0
E003C0
E003C0
E003C0
E003C0
ENDCHAR
STARTCHAR 0267
ENCODING 615
SWIDTH 472 0
DWIDTH 21 0
BBX 18 38 2 -9
BITMAP
0F8000
3FC000
7F8000
790000
F00000
E00000
E00000
E00000
E00000
E3F800
EFFE00
FFFE00
FE0F00
FC0700
F80780
F00380
F00380
F00380
E003C0
E003C0
E003C0
E003C0
E003C0
E003C0
E003C0
E003C0
E003C0
E003C0
E003C0
0003C0
0003C0
0003C0
0003C0
000380
004780
00FF00
00FF00
007C00
ENDCHAR
STARTCHAR 0268
ENCODING 616
SWIDTH 315 0
DWIDTH 14 0
BBX 10 28 2 0
BITMAP
0C00
1E00
1E00
1E00
0E00
0000
0000
0000
1E00
1E00
1E00
1E00
1E00
1E00
1E00
1E00
FFC0
FFC0
FFC0
FFC0
1E00
1E00
1E00
1E00
1E00
1E00
1E00
1E00
ENDCHAR
STARTCHAR 0269
ENCODING 617
SWIDTH 225 0
DWIDTH 10 0
BBX 7 20 2 0
BITMAP
E0
E0
E0
E0
E0
E0
E0
E0
E0
E0
E0
E0
E0
E0
E0
E0
E0
FE
FE
7E
ENDCHAR
STARTCHAR 026A
ENCODING 618
SWIDTH 315 0
DWIDTH 14 0
BBX 10 20 2 0
BITMAP
FFC0
FFC0
FFC0
1E00
1E00
1E00
1E00
1E00
1E00
1E00
1E00
1E00
1E00
1E00
1E00
1E00
1E00
FFC0
FFC0
FFC0
ENDCHAR
STARTCHAR 026B
ENCODING 619
SWIDTH 427 0
DWIDTH 19 0
BBX 15 29 2 0
BITMAP
0380
0380
0380
0380
0380
0380
0380
0380
0380
0380
0380
0380
3F86
7F86
7FC6
C3FE
C3FC
0380
0380
0380
0380
0380
0380
0380
0380
0380
03F8
03F8
01F8
ENDCHAR
STARTCHAR 026C
ENCODING 620
SWIDTH 427 0
DWIDTH 19 0
BBX 15 29 2 0
BITMAP
01C0
01C0
01C0
01C0
01C0
01C0
01C0
3FC0
7FC0
7FC0
F3C0
F1C0
E1CE
F1CE
F1DE
79FC
7FFC
1FF8
0FE0
01C0
01C0
01C0
01C0
01C0
01C0
01C0
01F8
01F8
00F8
ENDCHAR
STARTCHAR 026D
ENCODING 621
SWIDTH 157 0
DWIDTH 7 0
BBX 10 38 2 -9
BITMAP
E000
E000
E000
E000
E000
E000
E000
E000
E000
E000
E000
E000
E000
E000
E000
E000
E000
E000
E000
E000
E000
E000
E000
E000
E000
E000
E000
E000
E000
E000
E000
E000
E000
F000
7800
7F80
3FC0
0F80
ENDCHAR
STARTCHAR 026E
ENCODING 622
SWIDTH 472 0
DWIDTH 21 0
BBX 18 38 2 -9
BITMAP
E00000
E00000
E00000
E00000
E00000
E00000
E00000
E00000
E00000
FFFFC0
FFFFC0
FFFFC0
E00780
E00780
E00F00
E01E00
E01E00
E03C00
E07800
E0F800
E0FC00
E1FE00
E01F00
E00F00
E00780
E00380
E00380
E00380
E003C0
000380
000380
000380
000780
0C0F00
1E3F00
1FFE00
0FFC00
03F000
ENDCHAR
STARTCHAR 026F
ENCODING 623
SWIDTH 607 0
DWIDTH 27 0
BBX 23 20 2 0
BITMAP
E0380E
E0380E
E0380E
E0380E
E0380E
E0380E
E0380E
E0380E
E0380E
E0380E
E0380E
E0380E
E0381E
F0781E
70781E
70FC3E
70FC7E
3FFFFE
3FCFFE
1F87EE
ENDCHAR
STARTCHAR 0270
ENCODING 624
SWIDTH 607 0
DWIDTH 27 0
BBX 23 29 2 -10
BITMAP
E0380E
E0380E
E0380E
E0380E
E0380E
E0380E
E0380E
E0380E
E0380E
E0380E
E0380E
E0380E
E0381E
F0781E
70781E
70FC3E
70FC7E
3FFFFE
3FCFFE
1F87EE
00000E
00000E
00000E
00000E
00000E
00000E
00000E
00000E
000006
ENDCHAR
STARTCHAR 0271
ENCODING 625
SWIDTH 607 0
DWIDTH 27 0
BBX 23 29 2 -9
BITMAP
E7C3F0
FFE7F8
FFFFFC
FC7F1C
F87E1C
F03C1C
F03C1E
F0380E
F0380E
E0380E
E0380E
E0380E
E0380E
E0380E
E0380E
E0380E
E0380E
E0380E
E0380E
E0380E
00000E
00000E
00000E
00000E
00001E
00013C
0003FC
0007F8
0003F0
ENDCHAR
STARTCHAR 0272
ENCODING 626
SWIDTH 472 0
DWIDTH 21 0
BBX 25 29 -5 -9
BITMAP
01C7F000
01DFFC00
01FFFC00
01FC1E00
01F80E00
01F00F00
01E00700
01E00700
01E00700
01C00780
01C00780
01C00780
01C00780
01C00780
01C00780
01C00780
01C00780
01C00780
01C00780
01C00780
01C00000
01C00000
01C00000
01C00000
01C00000
23C00000
7F800000
FF000000
3E000000
ENDCHAR
STARTCHAR 0273
ENCODING 627
SWIDTH 472 0
DWIDTH 21 0
BBX 24 29 2 -9
BITMAP
E3F800
EFFE00
FFFE00
FE0F00
FC0700
F80780
F00380
F00380
F00380
E003C0
E003C0
E003C0
E003C0
E003C0
E003C0
E003C0
E003C0
E003C0
E003C0
E003C0
0003C0
0003C0
0003C0
0003C0
0003C0
0001E0
0001FE
0000FF
00003E
ENDCHAR
STARTCHAR 0274
ENCODING 628
SWIDTH 450 0
DWIDTH 20 0
BBX 17 20 2 0
BITMAP
F00780
F00780
F80780
FC0780
FE0780
FE0780
EF0780
E78780
E78780
E3C780
E1E780
E1E780
E0F780
E07F80
E03F80
E03F80
E01F80
E00F80
E00F80
E00780
ENDCHAR
STARTCHAR 0275
ENCODING 629
SWIDTH 472 0
DWIDTH 21 0
BBX 18 20 2 0
BITMAP
07F000
0FFC00
1FFE00
3E1F00
780F00
780780
700380
F00380
FFFF80
FFFFC0
FFFFC0
FFFF80
F00380
700380
780780
780F00
3E1F00
1FFE00
0FFC00
07F000
ENDCHAR
STARTCHAR 0276
ENCODING 630
SWIDTH 720 0
DWIDTH 32 0
BBX 28 20 2 0
BITMAP
07F3FFF0
0FFFFFF0
1FFFFFF0
3E1FC000
780FC000
7807C000
7003C000
F003C000
F003FFC0
E003FFC0
E003FFC0
F003FFC0
F003C000
7003C000
7807C000
780FC000
3E1FC000
1FFFFFF0
0FFFFFF0
07F3FFF0
ENDCHAR
STARTCHAR 0277
ENCODING 631
SWIDTH 607 0
DWIDTH 27 0
BBX 23 20 2 0
BITMAP
0FFFE0
1FFFF0
3FFFF8
3C0038
78003C
70001C
70001E
F0001E
E0000E
E0000E
E0380E
E0380E
F0381E
703C1E
707C1C
787C3C
38FE3C
3FEFF8
1FE7F0
0F83E0
ENDCHAR
STARTCHAR 0278
ENCODING 632
SWIDTH 472 0
DWIDTH 21 0
BBX 18 38 2 -10
BITMAP
01C000
01C000
01C000
01C000
01C000
01C000
01C000
01C000
01C000
07F000
0FFC00
1FFE00
3FDF00
79CF00
79C780
71C380
F1C380
F1C380
E1C3C0
E1C3C0
F1C380
F1C380
71C380
79C780
79CF00
3FDF00
1FFE00
0FFC00
07F000
01C000
01C000
01C000
01C000
01C000
01C000
01C000
01C000
004000
ENDCHAR
STARTCHAR 0279
ENCODING 633
SWIDTH 337 0
DWIDTH 15 0
BBX 11 20 2 0
BITMAP
00E0
00E0
00E0
00E0
00E0
00E0
00E0
00E0
00E0
00E0
00E0
00E0
01E0
01E0
03E0
03E0
0FE0
7FE0
7EE0
FCE0
ENDCHAR
STARTCHAR 027A
ENCODING 634
SWIDTH 337 0
DWIDTH 15 0
BBX 11 29 2 0
BITMAP
00E0
00E0
00E0
00E0
00E0
00E0
00E0
00E0
00E0
00E0
00E0
00E0
00E0
00E0
00E0
00E0
00E0
00E0
00E0
00E0
00E0
01E0
01E0
03E0
03E0
0FE0
7FE0
7EE0
FCE0
ENDCHAR
STARTCHAR 027B
ENCODING 635
SWIDTH 337 0
DWIDTH 15 0
BBX 18 29 2 -9
BITMAP
00E000
00E000
00E000
00E000
00E000
00E000
00E000
00E000
00E000
00E000
00E000
00E000
01E000
01E000
03E000
03E000
0FE000
7FE000
7EE000
FCE000
00E000
00E000
00E000
00E000
00E000
00F100
007F80
003FC0
001F00
ENDCHAR
STARTCHAR 027C
ENCODING 636
SWIDTH 337 0
DWIDTH 15 0
BBX 11 29 2 -10
BITMAP
E3E0
EFE0
FFC0
FE00
FC00
F800
F000
F000
F000
E000
E000
E000
E000
E000
E000
E000
E000
E000
E000
E000
E000
E000
E000
E000
E000
E000
E000
E000
6000
ENDCHAR
STARTCHAR 027D
ENCODING 637
SWIDTH 337 0
DWIDTH 15 0
BBX 11 29 2 -9
BITMAP
E3E0
EFE0
FFC0
FE00
FC00
F800
F000
F000
F000
E000
E000
E000
E000
E000
E000
E000
E000
E000
E000
E000
E000
E000
E000
E000
F000
7800
7F80
3FC0
0F80
ENDCHAR
STARTCHAR 027E
ENCODING 638
SWIDTH 315 0
DWIDTH 14 0
BBX 10 20 2 0
BITMAP
1F80
3FC0
7F80
7000
F000
E000
E000
E000
E000
E000
E000
E000
E000
E000
E000
E000
E000
E000
E000
E000
ENDCHAR
STARTCHAR 027F
ENCODING 639
SWIDTH 315 0
DWIDTH 14 0
BBX 9 29 3 -10
BITMAP
FC00
FF00
FF00
0780
0380
0380
0380
0380
0380
0380
0380
0380
0380
0380
0380
0380
0380
0380
0380
0380
0380
0380
0380
0380
0380
0380
0380
0380
0180
ENDCHAR
STARTCHAR 0280
ENCODING 640
SWIDTH 405 0
DWIDTH 18 0
BBX 14 20 2 0
BITMAP
FF00
FFC0
FFE0
E1F0
E0F0
E070
E070
E0F0
E0F0
FFE0
FFC0
FF80
E3C0
E1E0
E1E0
E0F0
E070
E078
E038
E03C
ENDCHAR
STARTCHAR 0281
ENCODING 641
SWIDTH 405 0
DWIDTH 18 0
BBX 14 20 2 0
BITMAP
E03C
E038
E078
E0F0
E0F0
E1E0
E1E0
E3C0
FF80
FFC0
FFE0
E1F0
E0F0
E070
E070
E0F0
E1F0
FFE0
FFC0
FF80
ENDCHAR
STARTCHAR 0282
ENCODING 642
SWIDTH 382 0
DWIDTH 17 0
BBX 13 29 2 -9
BITMAP
0FC0
3FE0
7FF0
78F0
7078
7000
7800
7C00
3F80
0FE0
03F0
00F8
0078
0038
E038
F038
F878
FFF0
FFE0
FFC0
E000
E000
E000
E000
F000
7800
7F80
3FC0
0F80
ENDCHAR
STARTCHAR 0283
ENCODING 643
SWIDTH 157 0
DWIDTH 7 0
BBX 17 38 -5 -9
BITMAP
001F00
007F80
00FF00
00F200
01E000
01C000
01C000
01C000
01C000
01C000
01C000
01C000
01C000
01C000
01C000
01C000
01C000
01C000
01C000
01C000
01C000
01C000
01C000
01C000
01C000
01C000
01C000
01C000
01C000
01C000
01C000
01C000
01C000
01C000
23C000
7F8000
FF0000
3E0000
ENDCHAR
STARTCHAR 0284
ENCODING 644
SWIDTH 157 0
DWIDTH 7 0
BBX 17 38 -5 -9
BITMAP
001F00
007F80
00FF00
00F200
01E000
01C000
01C000
01C000
01C000
01C000
01C000
01C000
01C000
01C000
01C000
01C000
01C000
01C000
01C000
01C000
01C000
01C000
01C000
01C000
01C000
01C000
3FFE00
3FFE00
3FFE00
01C000
01C000
01C000
01C000
01C000
23C000
7F8000
FF0000
3E0000
ENDCHAR
STARTCHAR 0285
ENCODING 645
SWIDTH 315 0
DWIDTH 14 0
BBX 16 29 3 -9
BITMAP
FC00
FF00
FF00
0780
0380
0380
0380
0380
0380
0380
0380
0380
0380
0380
0380
0380
0380
0380
0380
0380
0380
0380
0380
0380
03C0
03E4
01FE
00FF
007E
ENDCHAR
STARTCHAR 0286
ENCODING 646
SWIDTH 450 0
DWIDTH 20 0
BBX 17 38 1 -9
BITMAP
003F00
007F80
00FF00
01F200
01C000
01C000
01C000
01C000
01C000
01C000
01C000
01C000
01C000
01C000
01C000
01C000
01C000
01C000
01C000
01C000
01C000
01C000
01C000
01C000
01C000
01C000
0FE000
3FF800
7FFC00
79FC00
F1DE00
E1CE00
E1CE00
F1C000
F3C000
7F8000
3F8000
1E0000
ENDCHAR
STARTCHAR 0287
ENCODING 647
SWIDTH 337 0
DWIDTH 15 0
BBX 11 25 2 -5
BITMAP
7C00
7E00
7E00
0E00
0E00
0E00
0E00
0E00
0E00
0E00
0E00
0E00
0E00
0E00
0E00
0E00
0E00
FFE0
FFE0
FFE0
0E00
0E00
0E00
0E00
0800
ENDCHAR
STARTCHAR 0288
ENCODING 648
SWIDTH 337 0
DWIDTH 15 0
BBX 14 33 2 -9
BITMAP
0E00
0E00
0E00
0E00
FFE0
FFE0
FFE0
0E00
0E00
0E00
0E00
0E00
0E00
0E00
0E00
0E00
0E00
0E00
0E00
0E00
0E00
0E00
0E00
0E00
0E00
0E00
0E00
0E00
0F00
0780
07F8
03FC
01F8
ENDCHAR
STARTCHAR 0289
ENCODING 649
SWIDTH 630 0
DWIDTH 28 0
BBX 24 20 2 0
BITMAP
1E0038
1E0038
1E0038
1E0038
1E0038
1E0038
1E0038
1E0038
FFFFFF
FFFFFF
FFFFFF
FFFFFF
0E0078
0E0078
0F00F8
0F01F8
0783F8
03FFF8
03FFB8
00FE38
ENDCHAR
STARTCHAR 028A
ENCODING 650
SWIDTH 472 0
DWIDTH 21 0
BBX 18 20 2 0
BITMAP
FE1FC0
FE1FC0
FE1FC0
3E1F00
780F00
780780
700380
F00380
F00380
E003C0
E003C0
F00380
F00380
700380
780780
780F00
3E1F00
1FFE00
0FFC00
07F000
ENDCHAR
STARTCHAR 028B
ENCODING 651
SWIDTH 427 0
DWIDTH 19 0
BBX 16 20 2 0
BITMAP
F0F8
70FC
78FE
781E
380F
3C0F
1C0F
1C0E
1E0E
0E1E
0E1C
0F1C
073C
07B8
07F8
03F8
03F0
01F0
01E0
01E0
ENDCHAR
STARTCHAR 028C
ENCODING 652
SWIDTH 495 0
DWIDTH 22 0
BBX 18 20 2 0
BITMAP
01E000
01E000
01F000
03F000
03F800
07F800
07B800
073C00
0F1C00
0E1C00
0E1E00
1E0E00
1C0E00
1C0F00
3C0700
380780
780780
780380
7003C0
F001C0
ENDCHAR
STARTCHAR 028D
ENCODING 653
SWIDTH 652 0
DWIDTH 29 0
BBX 25 20 2 0
BITMAP
0780F000
0780F000
07C0F000
07C1F800
0FC1F800
0FC1F800
0FE3F800
0EE3FC00
1EE39C00
1CE39C00
1CF79C00
3C779E00
3C770E00
387F0E00
387F0F00
783E0F00
783E0700
703E0700
703E0780
F01C0780
ENDCHAR
STARTCHAR 028E
ENCODING 654
SWIDTH 495 0
DWIDTH 22 0
BBX 18 29 2 0
BITMAP
000F80
001F80
003F00
007C00
007800
007000
00F000
00E000
00E000
01E000
01E000
01F000
03F000
03F800
07F800
07B800
073C00
0F1C00
0E1C00
0E1E00
1E0E00
1C0E00
1C0F00
3C0700
380780
780780
780380
7003C0
F003C0
ENDCHAR
STARTCHAR 028F
ENCODING 655
SWIDTH 495 0
DWIDTH 22 0
BBX 18 20 2 0
BITMAP
F003C0
780780
3C0F00
1E0F00
1E1E00
0F3C00
07BC00
07F800
03F000
01F000
00E000
00E000
00E000
00E000
00E000
00E000
00E000
00E000
00E000
00E000
ENDCHAR
STARTCHAR 0290
ENCODING 656
SWIDTH 382 0
DWIDTH 17 0
BBX 20 29 2 -9
BITMAP
FFFC00
FFFC00
FFFC00
007800
007800
00F000
01E000
01E000
03C000
078000
078000
0F0000
1E0000
3C0000
3C0000
780000
F00000
FFFC00
FFFC00
FFFC00
003C00
003C00
003C00
003C00
003C00
001E20
001FE0
000FF0
0003E0
ENDCHAR
STARTCHAR 0291
ENCODING 657
SWIDTH 427 0
DWIDTH 19 0
BBX 15 29 2 -9
BITMAP
FFFC
FFFC
FFFC
0078
0078
00F0
01E0
01E0
03C0
0780
0780
0F0E
1E12
3C12
3C22
7826
F06C
FFF8
FFF0
FFE0
0060
0060
0040
0040
30C0
70C0
7080
3900
1E00
ENDCHAR
STARTCHAR 0292
ENCODING 658
SWIDTH 427 0
DWIDTH 19 0
BBX 15 29 2 -9
BITMAP
FFFE
FFFE
FFFE
001E
001E
003C
0078
00F0
00F0
01E0
03C0
03F0
07F8
007C
003C
001E
000E
000E
000E
000E
000E
000E
001E
001E
203C
78F8
7FF8
3FF0
0FC0
ENDCHAR
STARTCHAR 0293
ENCODING 659
SWIDTH 427 0
DWIDTH 19 0
BBX 17 37 0 -17
BITMAP
3FFF80
3FFF80
3FFF80
000780
000780
000F00
001E00
003C00
003C00
007800
00F000
00FC00
01FE00
001F00
000F00
000780
000380
000380
000380
C00380
B00380
880380
C80780
4C0780
6C0F00
363E00
3FFE00
0FFC00
07F000
040000
060000
060000
060000
021C00
021C00
011C00
00F800
ENDCHAR
STARTCHAR 0294
ENCODING 660
SWIDTH 427 0
DWIDTH 19 0
BBX 15 29 2 0
BITMAP
07E0
1FF0
3FFC
7C7C
781E
F00E
F00E
E00E
000E
000E
000E
001E
003C
007C
00F8
01F0
01E0
01C0
03C0
03C0
0380
0380
0380
0380
0380
0380
0380
0380
0380
ENDCHAR
STARTCHAR 0295
ENCODING 661
SWIDTH 427 0
DWIDTH 19 0
BBX 15 29 2 0
BITMAP
07E0
1FF0
3FF8
7C7C
781E
F00E
F00E
E00E
E000
F000
F000
7800
7800
3C00
1E00
0F00
0780
0780
0380
0380
0380
0380
0380
0380
0380
0380
0380
0380
0380
ENDCHAR
STARTCHAR 0296
ENCODING 662
SWIDTH 427 0
DWIDTH 19 0
BBX 15 29 2 0
BITMAP
0380
0380
0380
0380
0380
0380
0380
0380
0380
0380
03C0
01C0
01E0
01E0
00F0
0078
003C
001E
001E
000E
000E
000E
E00E
F00E
701E
783C
3FFC
1FF8
0FE0
ENDCHAR
STARTCHAR 0297
ENCODING 663
SWIDTH 472 0
DWIDTH 21 0
BBX 16 29 2 -9
BITMAP
03F0
07FC
0FFE
1E1F
3C0F
3807
7800
7800
7000
7000
F000
F000
E000
F000
E000
E000
F000
F000
F000
7000
7000
7800
3806
3C07
1C0F
1E1E
0FFE
07F8
03F0
ENDCHAR
STARTCHAR 0298
ENCODING 664
SWIDTH 472 0
DWIDTH 21 0
BBX 18 29 2 0
BITMAP
03E000
07F800
0FFC00
1F3C00
1C1E00
3C0F00
380700
780700
700780
700380
F00380
F00380
F0C380
E1E380
E3E3C0
E1E3C0
E1C380
F00380
F00380
700380
700380
700780
780700
380F00
3C0E00
1E1E00
0FFC00
0FF800
03F000
ENDCHAR
STARTCHAR 0299
ENCODING 665
SWIDTH 405 0
DWIDTH 18 0
BBX 14 20 2 0
BITMAP
FFC0
FFF0
FFF0
E078
E038
E038
E038
FFF8
FFF0
FFF8
FFF8
E03C
E01C
E01C
E01C
E03C
E07C
FFF8
FFF0
FFC0
ENDCHAR
STARTCHAR 029A
ENCODING 666
SWIDTH 427 0
DWIDTH 19 0
BBX 15 20 2 0
BITMAP
0FC0
3FF0
3FF8
7878
783C
701E
781E
3F0E
3F0E
3F0E
7F0E
780E
F00E
E01E
E01E
F03C
787C
7FF8
3FF0
1FC0
ENDCHAR
STARTCHAR 029B
ENCODING 667
SWIDTH 450 0
DWIDTH 20 0
BBX 23 29 2 0
BITMAP
00007C
0001FE
0003FC
0003C0
000780
000780
000700
000700
000700
07F700
0FFF00
1FFF00
3E1F00
780F00
780700
700300
F00000
F00000
E07F00
E07F00
F07F00
F00700
700700
780700
780F00
3E1F00
1FFE00
0FFC00
07F000
ENDCHAR
STARTCHAR 029C
ENCODING 668
SWIDTH 427 0
DWIDTH 19 0
BBX 15 20 2 0
BITMAP
E00E
E00E
E00E
E00E
E00E
E00E
E00E
E00E
FFFE
FFFE
FFFE
FFFE
E00E
E00E
E00E
E00E
E00E
E00E
E00E
E00E
ENDCHAR
STARTCHAR 029D
ENCODING 669
SWIDTH 427 0
DWIDTH 19 0
BBX 15 37 2 -9
BITMAP
01C0
03E0
03E0
03E0
01C0
0000
0000
0000
01C0
01C0
01C0
01C0
01C0
01C0
01C0
01C0
01C0
01C0
01C0
01C0
01C0
01C0
01C0
01C0
01C0
0FF0
3FF8
7FFC
79FC
F1DE
E1CE
E1CE
F1C0
F3C0
7F80
3F80
1E00
ENDCHAR
STARTCHAR 029E
ENCODING 670
SWIDTH 427 0
DWIDTH 19 0
BBX 15 29 2 -9
BITMAP
F00E
780E
3C0E
1E0E
1E0E
0F0E
078E
079E
03FE
01FE
01FE
00FE
00FE
01EE
03CE
078E
078E
0F0E
1E0E
1E0E
000E
000E
000E
000E
000E
000E
000E
000E
000E
ENDCHAR
STARTCHAR 029F
ENCODING 671
SWIDTH 360 0
DWIDTH 16 0
BBX 12 20 2 0
BITMAP
E000
E000
E000
E000
E000
E000
E000
E000
E000
E000
E000
E000
E000
E000
E000
E000
E000
FFF0
FFF0
FFF0
ENDCHAR
STARTCHAR 02A0
ENCODING 672
SWIDTH 472 0
DWIDTH 21 0
BBX 24 39 2 -10
BITMAP
000008
00007F
0000FF
0001FE
0001C0
0003C0
0003C0
0003C0
0003C0
07F3C0
0FFFC0
1FFFC0
3E1FC0
780FC0
7807C0
7003C0
F003C0
F003C0
E003C0
E003C0
F003C0
F003C0
7003C0
7807C0
780FC0
3E1FC0
1FFFC0
0FFFC0
07F3C0
0003C0
0003C0
0003C0
0003C0
0003C0
0003C0
0003C0
0003C0
0000C0
000040
ENDCHAR
STARTCHAR 02A1
ENCODING 673
SWIDTH 427 0
DWIDTH 19 0
BBX 15 29 2 0
BITMAP
07E0
1FF0
3FFC
7C7C
781E
F00E
F00E
E00E
000E
000E
000E
001E
003C
007C
00F8
01F0
01E0
3FF8
3FF8
3FF8
3FF8
0380
0380
0380
0380
0380
0380
0380
0380
ENDCHAR
STARTCHAR 02A2
ENCODING 674
SWIDTH 427 0
DWIDTH 19 0
BBX 15 29 2 0
BITMAP
07E0
1FF0
3FF8
7C7C
781E
F00E
F00E
E00E
F000
F000
F000
7800
7800
3C00
1E00
0F00
0780
3FF8
3FF8
3FF8
3FF8
0380
0380
0380
0380
0380
0380
0380
0380
ENDCHAR
STARTCHAR 02A3
ENCODING 675
SWIDTH 787 0
DWIDTH 35 0
BBX 31 29 2 0
BITMAP
0003C000
0003C000
0003C000
0003C000
0003C000
0003C000
0003C000
0003C000
0003C000
07F3FFFE
0FFFFFFE
1FFFFFFE
3E1FC01E
780FC03C
7807C078
7003C078
F003C0F0
F003C1E0
E003C1E0
E003C3C0
F003C780
F003CF80
7003CF00
7807DE00
780FFC00
3E1FFC00
1FFFFFFE
0FFFFFFE
07F3FFFE
ENDCHAR
STARTCHAR 02A4
ENCODING 676
SWIDTH 765 0
DWIDTH 34 0
BBX 31 38 2 -9
BITMAP
0003C000
0003C000
0003C000
0003C000
0003C000
0003C000
0003C000
0003C000
0003C000
07F3FFFE
0FFFFFFE
1FFFFFFE
3E1FC03C
780FC03C
7807C078
7003C0F0
F003C0F0
F003C1E0
E003C3C0
E003C7C0
F003C7E0
F003CFF0
7003C0F8
7807C078
780FC03C
3E1FC01C
1FFFC01C
0FFFC01E
07F3C01E
0000001C
0000001C
0000001C
0000003C
00006078
0000F1F8
0000FFF0
00007FE0
00001F80
ENDCHAR
STARTCHAR 02A5
ENCODING 677
SWIDTH 810 0
DWIDTH 36 0
BBX 33 38 2 -9
BITMAP
0003C00000
0003C00000
0003C00000
0003C00000
0003C00000
0003C00000
0003C00000
0003C00000
0003C00000
07F3FFFE00
0FFFFFFE00
1FFFFFFE00
3E1FC01E00
780FC03C00
7807C07800
7003C07800
F003C0F000
F003C1E000
E003C1E000
E003C3C000
F003C78380
F003CF8480
7003CF0880
7807DE1900
780FFC1900
3E1FFC1300
1FFFFFFE00
0FFFFFFC00
07F3FFF000
0000003000
0000003000
0000003000
0000003000
0000182000
00001C2000
00001C4000
00001CC000
0000070000
ENDCHAR
STARTCHAR 02A6
ENCODING 678
SWIDTH 630 0
DWIDTH 28 0
BBX 24 25 2 0
BITMAP
020000
0E0000
0E0000
0E0000
0E0000
FFE1F0
FFE7FC
FFEFFE
0E0F1E
0E0E0E
0E0E00
0E0F00
0E0F80
0E07F0
0E03FC
0E007E
0E001E
0E000F
0E0007
0E0007
0E000F
0E001F
0FFFFE
0FFFFC
07FFF0
ENDCHAR
STARTCHAR 02A7
ENCODING 679
SWIDTH 450 0
DWIDTH 20 0
BBX 23 38 2 -9
BITMAP
00007C
0001FE
0003FC
0003C0
020780
0E0700
0E0700
0E0700
0E0700
FFE700
FFE700
FFE700
0E0700
0E0700
0E0700
0E0700
0E0700
0E0700
0E0700
0E0700
0E0700
0E0700
0E0700
0E0700
0E0700
0E0700
0FFF00
0FFF00
07FF00
000700
000700
000700
000700
000700
008F00
01FE00
03FC00
00F800
ENDCHAR
STARTCHAR 02A8
ENCODING 680
SWIDTH 697 0
DWIDTH 31 0
BBX 28 34 2 -9
BITMAP
02000000
0E000000
0E000000
0E000000
0E000000
FFE0FE00
FFE1FF80
FFE3FFC0
0E0783C0
0E0F01E0
0E0F00E0
0E1E0080
0E1E0000
0E1C0000
0E1C0000
0E1C0000
0E1C0070
0E1E0090
0E1E0110
0E0E0130
0E0F0320
0E078360
0FFFFEC0
0FFFFF80
07FFFF00
00000600
00000600
00000600
00000600
00010400
00038400
00038C00
00038800
0001E000
ENDCHAR
STARTCHAR 02A9
ENCODING 681
SWIDTH 720 0
DWIDTH 32 0
BBX 28 38 2 -9
BITMAP
00F80000
03FC0000
07F80000
07900000
0F000000
0E000000
0E000000
0E000000
0E000000
0E1C7F00
0E1DFF80
FFFFFFC0
FFFFC1E0
FFFF80E0
0E1F00F0
0E1E0070
0E1E0070
0E1C0070
0E1C0070
0E1C0070
0E1C0070
0E1C0070
0E1C0070
0E1C0070
0E1C0070
0E1C0070
0E1C0070
0E1C0070
0E1C0070
00000070
00000070
00000070
00000070
00000070
000008F0
00001FE0
00003FC0
00000F80
ENDCHAR
STARTCHAR 02AA
ENCODING 682
SWIDTH 472 0
DWIDTH 21 0
BBX 18 29 2 0
BITMAP
E00000
E00000
E00000
E00000
E00000
E00000
E00000
E00000
E00000
E0FC00
E1FE00
E3FF00
E7C780
E70380
E70000
E78000
E3E000
E3F800
E0FE00
E03F00
E00F80
E00380
E003C0
E003C0
E00380
E00F80
FFFF00
FFFE00
7FFC00
ENDCHAR
STARTCHAR 02AB
ENCODING 683
SWIDTH 517 0
DWIDTH 23 0
BBX 20 29 2 0
BITMAP
E00000
E00000
E00000
E00000
E00000
E00000
E00000
E00000
E00000
E3FFF0
E3FFF0
E3FFF0
E000F0
E001E0
E003C0
E00780
E00780
E00F00
E01E00
E01E00
E03C00
E07800
E07800
E0F000
E1E000
E3C000
FFFFF0
FFFFF0
7FFFF0
ENDCHAR
STARTCHAR 02AC
ENCODING 684
SWIDTH 382 0
DWIDTH 17 0
BBX 13 22 2 0
BITMAP
E318
E718
6738
67B8
77B0
3FB0
3DF0
3DF0
3CE0
1CE0
18E0
E318
E718
67B8
67B8
77B0
3FB0
3DF0
3DF0
3CE0
1CE0
18E0
ENDCHAR
STARTCHAR 02AD
ENCODING 685
SWIDTH 427 0
DWIDTH 19 0
BBX 15 20 2 0
BITMAP
FFFE
FFFE
FFFE
E00E
E00E
E00E
E00E
0000
0000
0000
0000
0000
0000
FFFE
FFFE
FFFE
FFFE
E00E
E00E
E00E
ENDCHAR
STARTCHAR 02AE
ENCODING 686
SWIDTH 630 0
DWIDTH 28 0
BBX 23 29 3 -10
BITMAP
FC000E
FF000E
FF000E
07800E
03800E
03800E
03800E
03800E
03800E
03800E
03800E
03800E
03800E
03C01E
01C03E
01E03E
01F0FE
00FFFE
007FEE
003FCE
00000E
00000E
00000E
00000E
00000E
00000E
00000E
00000E
000006
ENDCHAR
STARTCHAR 02AF
ENCODING 687
SWIDTH 630 0
DWIDTH 28 0
BBX 30 29 3 -9
BITMAP
FC000E00
FF000E00
FF000E00
07800E00
03800E00
03800E00
03800E00
03800E00
03800E00
03800E00
03800E00
03800E00
03800E00
03C01E00
01C03E00
01E03E00
01F0FE00
00FFFE00
007FEE00
003FCE00
00000E00
00000E00
00000E00
00000E00
00000F00
00000780
000007F8
000003FC
000001F8
ENDCHAR
STARTCHAR 02B0
ENCODING 688
SWIDTH 292 0
DWIDTH 13 0
BBX 10 15 2 20
BITMAP
C000
C000
C000
C000
C000
FF00
FF80
F180
E180
E180
C1C0
C1C0
C1C0
C1C0
C1C0
ENDCHAR
STARTCHAR 02B1
ENCODING 689
SWIDTH 292 0
DWIDTH 13 0
BBX 10 15 2 20
BITMAP
3800
7C00
E800
C000
C000
FF00
FF80
F180
E180
E180
C1C0
C1C0
C1C0
C1C0
C1C0
ENDCHAR
STARTCHAR 02B2
ENCODING 690
SWIDTH 225 0
DWIDTH 10 0
BBX 5 19 3 15
BITMAP
18
38
18
00
18
18
18
18
18
18
18
18
18
18
18
18
B8
F0
E0
ENDCHAR
STARTCHAR 02B3
ENCODING 691
SWIDTH 225 0
DWIDTH 10 0
BBX 6 10 2 20
BITMAP
FC
FC
E0
E0
C0
C0
C0
C0
C0
C0
ENDCHAR
STARTCHAR 02B4
ENCODING 692
SWIDTH 225 0
DWIDTH 10 0
BBX 6 11 2 19
BITMAP
0C
0C
0C
0C
0C
0C
0C
1C
7C
FC
60
ENDCHAR
STARTCHAR 02B5
ENCODING 693
SWIDTH 315 0
DWIDTH 14 0
BBX 10 15 2 15
BITMAP
0C00
0C00
0C00
0C00
0C00
0C00
0C00
1C00
7C00
FC00
6C00
0C00
0E80
07C0
0380
ENDCHAR
STARTCHAR 02B6
ENCODING 694
SWIDTH 270 0
DWIDTH 12 0
BBX 8 10 2 20
BITMAP
C7
CE
CE
DC
F8
FC
FE
CE
FE
FC
ENDCHAR
STARTCHAR 02B7
ENCODING 695
SWIDTH 382 0
DWIDTH 17 0
BBX 13 10 2 20
BITMAP
E718
6718
67B8
77B0
7FB0
3FB0
3DF0
3CE0
1CE0
18E0
ENDCHAR
STARTCHAR 02B8
ENCODING 696
SWIDTH 315 0
DWIDTH 14 0
BBX 10 15 2 15
BITMAP
E1C0
6180
7180
3380
3300
3B00
1F00
1E00
1E00
0E00
0C00
1C00
5800
7800
7000
ENDCHAR
STARTCHAR 02B9
ENCODING 697
SWIDTH 225 0
DWIDTH 10 0
BBX 7 13 2 18
BITMAP
3E
3C
3C
38
78
70
70
70
60
60
40
C0
80
ENDCHAR
STARTCHAR 02BA
ENCODING 698
SWIDTH 382 0
DWIDTH 17 0
BBX 13 13 2 18
BITMAP
3EF8
3CF8
3CF0
38F0
78E0
70E0
70C0
71C0
61C0
6180
4180
C100
8100
ENDCHAR
STARTCHAR 02BB
ENCODING 699
SWIDTH 202 0
DWIDTH 9 0
BBX 7 12 1 17
BITMAP
06
18
30
60
40
C0
C0
F8
FC
7C
7C
18
ENDCHAR
STARTCHAR 02BC
ENCODING 700
SWIDTH 202 0
DWIDTH 9 0
BBX 6 11 2 17
BITMAP
70
F8
FC
FC
7C
0C
0C
08
18
30
C0
ENDCHAR
STARTCHAR 02BD
ENCODING 701
SWIDTH 202 0
DWIDTH 9 0
BBX 7 12 1 17
BITMAP
38
7C
FC
FC
D8
C0
C0
40
20
30
0C
02
ENDCHAR
STARTCHAR 02BE
ENCODING 702
SWIDTH 180 0
DWIDTH 8 0
BBX 4 7 2 22
BITMAP
C0
E0
70
30
30
E0
E0
ENDCHAR
STARTCHAR 02BF
ENCODING 703
SWIDTH 180 0
DWIDTH 8 0
BBX 4 7 2 22
BITMAP
30
70
E0
C0
E0
70
70
ENDCHAR
STARTCHAR 02C0
ENCODING 704
SWIDTH 270 0
DWIDTH 12 0
BBX 8 15 2 20
BITMAP
1C
7E
77
E3
C3
03
07
0F
0E
1C
1C
18
18
18
18
ENDCHAR
STARTCHAR 02C1
ENCODING 705
SWIDTH 270 0
DWIDTH 12 0
BBX 8 15 2 20
BITMAP
1C
7E
77
E3
C3
E0
E0
70
38
18
18
18
18
18
18
ENDCHAR
STARTCHAR 02C2
ENCODING 706
SWIDTH 382 0
DWIDTH 17 0
BBX 13 17 2 6
BITMAP
0008
0010
0070
00E0
03E0
07C0
1FC0
3F80
FF80
7F80
1FC0
0FC0
03E0
01E0
0070
0030
0008
ENDCHAR
STARTCHAR 02C3
ENCODING 707
SWIDTH 382 0
DWIDTH 17 0
BBX 13 17 2 6
BITMAP
8000
4000
7000
3800
3E00
1F00
1FC0
0FE0
0FF8
0FF0
0FC0
1F80
1E00
3C00
3000
6000
8000
ENDCHAR
STARTCHAR 02C4
ENCODING 708
SWIDTH 472 0
DWIDTH 21 0
BBX 16 12 3 9
BITMAP
0180
0380
03C0
07E0
0FE0
0FF0
1FF8
3FF8
3E7C
781E
E006
8001
ENDCHAR
STARTCHAR 02C5
ENCODING 709
SWIDTH 472 0
DWIDTH 21 0
BBX 17 13 2 8
BITMAP
800000
600180
380700
3E1E00
1FFE00
0FFC00
0FF800
07F800
03F000
03E000
01E000
00C000
008000
ENDCHAR
STARTCHAR 02C6
ENCODING 710
SWIDTH 337 0
DWIDTH 15 0
BBX 11 7 2 22
BITMAP
1F00
1F00
3F80
3980
70C0
6040
C020
ENDCHAR
STARTCHAR 02C7
ENCODING 711
SWIDTH 337 0
DWIDTH 15 0
BBX 11 7 2 22
BITMAP
8020
4060
60C0
31C0
3B80
1F00
1F00
ENDCHAR
STARTCHAR 02C8
ENCODING 712
SWIDTH 135 0
DWIDTH 6 0
BBX 2 11 2 22
BITMAP
C0
C0
C0
C0
C0
C0
C0
C0
C0
C0
C0
ENDCHAR
STARTCHAR 02C9
ENCODING 713
SWIDTH 337 0
DWIDTH 15 0
BBX 11 3 2 23
BITMAP
FFE0
FFE0
FFE0
ENDCHAR
STARTCHAR 02CA
ENCODING 714
SWIDTH 247 0
DWIDTH 11 0
BBX 8 7 2 22
BITMAP
1F
1E
3C
38
70
60
C0
ENDCHAR
STARTCHAR 02CB
ENCODING 715
SWIDTH 247 0
DWIDTH 11 0
BBX 8 7 2 22
BITMAP
F0
78
3C
1C
0E
06
03
ENDCHAR
STARTCHAR 02CC
ENCODING 716
SWIDTH 135 0
DWIDTH 6 0
BBX 2 11 2 -13
BITMAP
C0
C0
C0
C0
C0
C0
C0
C0
C0
C0
C0
ENDCHAR
STARTCHAR 02CD
ENCODING 717
SWIDTH 337 0
DWIDTH 15 0
BBX 11 4 2 -8
BITMAP
FFE0
FFE0
FFE0
FFE0
ENDCHAR
STARTCHAR 02CE
ENCODING 718
SWIDTH 247 0
DWIDTH 11 0
BBX 8 7 2 -9
BITMAP
F8
38
1C
0C
06
02
01
ENDCHAR
STARTCHAR 02CF
ENCODING 719
SWIDTH 247 0
DWIDTH 11 0
BBX 7 7 2 -9
BITMAP
1E
1C
38
30
60
40
80
ENDCHAR
STARTCHAR 02D0
ENCODING 720
SWIDTH 225 0
DWIDTH 10 0
BBX 6 20 2 0
BITMAP
FC
7C
78
38
38
10
10
00
00
00
00
00
00
10
10
30
38
78
7C
FC
ENDCHAR
STARTCHAR 02D1
ENCODING 721
SWIDTH 225 0
DWIDTH 10 0
BBX 6 7 2 13
BITMAP
FC
7C
78
38
38
10
10
ENDCHAR
STARTCHAR 02D2
ENCODING 722
SWIDTH 180 0
DWIDTH 8 0
BBX 4 7 2 11
BITMAP
C0
E0
70
30
30
E0
E0
ENDCHAR
STARTCHAR 02D3
ENCODING 723
SWIDTH 180 0
DWIDTH 8 0
BBX 4 7 2 11
BITMAP
30
70
E0
C0
E0
70
70
ENDCHAR
STARTCHAR 02D4
ENCODING 724
SWIDTH 427 0
DWIDTH 19 0
BBX 15 9 2 13
BITMAP
0380
0380
0380
0380
0380
0380
FFFE
FFFE
FFFE
ENDCHAR
STARTCHAR 02D5
ENCODING 725
SWIDTH 427 0
DWIDTH 19 0
BBX 15 9 2 7
BITMAP
FFFE
FFFE
FFFE
0380
0380
0380
0380
0380
0380
ENDCHAR
STARTCHAR 02D6
ENCODING 726
SWIDTH 427 0
DWIDTH 19 0
BBX 15 15 2 7
BITMAP
0380
0380
0380
0380
0380
0380
FFFE
FFFE
FFFE
0380
0380
0380
0380
0380
0380
ENDCHAR
STARTCHAR 02D7
ENCODING 727
SWIDTH 427 0
DWIDTH 19 0
BBX 15 3 2 13
BITMAP
FFFE
FFFE
FFFE
ENDCHAR
STARTCHAR 02D8
ENCODING 728
SWIDTH 360 0
DWIDTH 16 0
BBX 12 6 2 23
BITMAP
E030
E030
6070
78E0
3FE0
1F80
ENDCHAR
STARTCHAR 02D9
ENCODING 729
SWIDTH 202 0
DWIDTH 9 0
BBX 5 5 2 23
BITMAP
70
F8
F8
F8
70
ENDCHAR
STARTCHAR 02DA
ENCODING 730
SWIDTH 247 0
DWIDTH 11 0
BBX 8 7 2 22
BITMAP
3C
7E
E7
C3
E7
7E
3C
ENDCHAR
STARTCHAR 02DB
ENCODING 731
SWIDTH 292 0
DWIDTH 13 0
BBX 10 9 2 -8
BITMAP
2000
4000
C000
E000
E000
F000
7840
3F80
1E00
ENDCHAR
STARTCHAR 02DC
ENCODING 732
SWIDTH 427 0
DWIDTH 19 0
BBX 15 5 2 23
BITMAP
3C06
7F06
7FC6
C1FE
C07C
ENDCHAR
STARTCHAR 02DD
ENCODING 733
SWIDTH 405 0
DWIDTH 18 0
BBX 14 7 2 22
BITMAP
1F3C
1E78
3C70
38E0
70C0
6180
C100
ENDCHAR
STARTCHAR 02DE
ENCODING 734
SWIDTH 247 0
DWIDTH 11 0
BBX 10 8 0 6
BITMAP
0180
0180
71C0
F1C0
F180
3180
3F80
1F00
ENDCHAR
STARTCHAR 02DF
ENCODING 735
SWIDTH 337 0
DWIDTH 15 0
BBX 9 9 3 21
BITMAP
4100
E380
7700
3E00
1C00
3E00
7700
E380
4100
ENDCHAR
STARTCHAR 02E0
ENCODING 736
SWIDTH 315 0
DWIDTH 14 0
BBX 10 15 2 15
BITMAP
E1C0
6180
7180
3380
3300
3B00
1F00
1E00
1E00
0E00
1E00
1E00
1E00
1E00
0C00
ENDCHAR
STARTCHAR 02E1
ENCODING 737
SWIDTH 180 0
DWIDTH 8 0
BBX 4 15 2 20
BITMAP
C0
C0
C0
C0
C0
C0
C0
C0
C0
C0
C0
C0
C0
F0
F0
ENDCHAR
STARTCHAR 02E2
ENCODING 738
SWIDTH 247 0
DWIDTH 11 0
BBX 7 11 2 19
BITMAP
7C
7E
E6
70
7C
1E
06
E6
7E
7C
18
ENDCHAR
STARTCHAR 02E3
ENCODING 739
SWIDTH 315 0
DWIDTH 14 0
BBX 9 10 3 20
BITMAP
E380
E700
7600
3E00
1C00
1C00
3E00
7600
E700
E380
ENDCHAR
STARTCHAR 02E4
ENCODING 740
SWIDTH 270 0
DWIDTH 12 0
BBX 8 15 2 20
BITMAP
1C
7E
77
E3
C3
E0
E0
70
38
18
18
18
18
18
18
ENDCHAR
STARTCHAR 02E5
ENCODING 741
SWIDTH 337 0
DWIDTH 15 0
BBX 11 29 2 0
BITMAP
7FE0
FFE0
FFE0
3FE0
00E0
00E0
00E0
00E0
00E0
00E0
00E0
00E0
00E0
00E0
00E0
00E0
00E0
00E0
00E0
00E0
00E0
00E0
00E0
00E0
00E0
00E0
00E0
00E0
00E0
ENDCHAR
STARTCHAR 02E6
ENCODING 742
SWIDTH 337 0
DWIDTH 15 0
BBX 11 29 2 0
BITMAP
00E0
00E0
00E0
00E0
00E0
00E0
00E0
FFE0
FFE0
7FE0
00E0
00E0
00E0
00E0
00E0
00E0
00E0
00E0
00E0
00E0
00E0
00E0
00E0
00E0
00E0
00E0
00E0
00E0
00E0
ENDCHAR
STARTCHAR 02E7
ENCODING 743
SWIDTH 337 0
DWIDTH 15 0
BBX 11 29 2 0
BITMAP
00E0
00E0
00E0
00E0
00E0
00E0
00E0
00E0
00E0
00E0
00E0
00E0
00E0
7FE0
FFE0
FFE0
00E0
00E0
00E0
00E0
00E0
00E0
00E0
00E0
00E0
00E0
00E0
00E0
00E0
ENDCHAR
STARTCHAR 02E8
ENCODING 744
SWIDTH 337 0
DWIDTH 15 0
BBX 11 29 2 0
BITMAP
00E0
00E0
00E0
00E0
00E0
00E0
00E0
00E0
00E0
00E0
00E0
00E0
00E0
00E0
00E0
00E0
00E0
00E0
00E0
3FE0
FFE0
FFE0
7FE0
00E0
00E0
00E0
00E0
00E0
00E0
ENDCHAR
STARTCHAR 02E9
ENCODING 745
SWIDTH 337 0
DWIDTH 15 0
BBX 11 29 2 0
BITMAP
00E0
00E0
00E0
00E0
00E0
00E0
00E0
00E0
00E0
00E0
00E0
00E0
00E0
00E0
00E0
00E0
00E0
00E0
00E0
00E0
00E0
00E0
00E0
00E0
00E0
00E0
FFE0
FFE0
7FE0
ENDCHAR
STARTCHAR 02EA
ENCODING 746
SWIDTH 315 0
DWIDTH 14 0
BBX 10 20 2 0
BITMAP
E000
E000
E000
E000
E000
E000
E000
E000
E000
E000
E000
E000
E000
E000
E000
E000
E000
FFC0
FFC0
FFC0
ENDCHAR
STARTCHAR 02EB
ENCODING 747
SWIDTH 315 0
DWIDTH 14 0
BBX 10 20 2 0
BITMAP
E000
E000
E000
E000
E000
E000
E000
E000
FFC0
FFC0
FFC0
FFC0
E000
E000
E000
E000
E000
E000
E000
E000
ENDCHAR
STARTCHAR 02EC
ENCODING 748
SWIDTH 337 0
DWIDTH 15 0
BBX 11 7 2 -9
BITMAP
8020
4040
70C0
3980
3F80
1F00
1F00
ENDCHAR
STARTCHAR 02ED
ENCODING 749
SWIDTH 315 0
DWIDTH 14 0
BBX 11 6 2 24
BITMAP
FFE0
FFE0
0000
0000
FFE0
FFE0
ENDCHAR
STARTCHAR 02EE
ENCODING 750
SWIDTH 360 0
DWIDTH 16 0
BBX 13 11 2 17
BITMAP
70E0
F9F0
FDF8
FDF8
7CD8
0C18
0C18
0810
1830
3060
C180
ENDCHAR
STARTCHAR 02EF
ENCODING 751
SWIDTH 292 0
DWIDTH 13 0
BBX 9 7 2 -9
BITMAP
8080
6300
3E00
3E00
1C00
0800
0800
ENDCHAR
STARTCHAR 02F0
ENCODING 752
SWIDTH 292 0
DWIDTH 13 0
BBX 9 7 2 -9
BITMAP
0800
0800
1C00
3E00
3E00
6300
8080
ENDCHAR
STARTCHAR 02F1
ENCODING 753
SWIDTH 225 0
DWIDTH 10 0
BBX 7 8 2 -11
BITMAP
02
04
1C
38
F8
38
18
04
ENDCHAR
STARTCHAR 02F2
ENCODING 754
SWIDTH 225 0
DWIDTH 10 0
BBX 7 9 2 -11
BITMAP
80
40
70
38
3E
38
70
40
80
ENDCHAR
STARTCHAR 02F3
ENCODING 755
SWIDTH 247 0
DWIDTH 11 0
BBX 8 7 2 -9
BITMAP
3C
7E
E7
C3
E7
7E
3C
ENDCHAR
STARTCHAR 02F4
ENCODING 756
SWIDTH 247 0
DWIDTH 11 0
BBX 8 7 2 11
BITMAP
F0
78
38
1C
0E
06
03
ENDCHAR
STARTCHAR 02F5
ENCODING 757
SWIDTH 405 0
DWIDTH 18 0
BBX 14 7 2 11
BITMAP
F1E0
78E0
3870
1C38
0E18
060C
0304
ENDCHAR
STARTCHAR 02F6
ENCODING 758
SWIDTH 405 0
DWIDTH 18 0
BBX 14 7 2 11
BITMAP
0F3C
1E78
3C70
38E0
70C0
6180
C100
ENDCHAR
STARTCHAR 02F7
ENCODING 759
SWIDTH 427 0
DWIDTH 19 0
BBX 15 5 2 -8
BITMAP
3E06
7F06
67CE
C1FC
C07C
ENDCHAR
STARTCHAR 02F8
ENCODING 760
SWIDTH 202 0
DWIDTH 9 0
BBX 5 21 2 8
BITMAP
70
F8
F8
F8
30
00
00
00
00
00
00
00
00
00
00
00
70
F8
F8
F8
70
ENDCHAR
STARTCHAR 02F9
ENCODING 761
SWIDTH 315 0
DWIDTH 14 0
BBX 10 13 2 16
BITMAP
FFC0
FFC0
FFC0
FFC0
E000
E000
E000
E000
E000
E000
E000
E000
E000
ENDCHAR
STARTCHAR 02FA
ENCODING 762
SWIDTH 315 0
DWIDTH 14 0
BBX 10 13 2 16
BITMAP
FFC0
FFC0
FFC0
FFC0
01C0
01C0
01C0
01C0
01C0
01C0
01C0
01C0
01C0
ENDCHAR
STARTCHAR 02FB
ENCODING 763
SWIDTH 315 0
DWIDTH 14 0
BBX 10 13 2 0
BITMAP
E000
E000
E000
E000
E000
E000
E000
E000
E000
E000
FFC0
FFC0
FFC0
ENDCHAR
STARTCHAR 02FC
ENCODING 764
SWIDTH 315 0
DWIDTH 14 0
BBX 10 13 2 0
BITMAP
01C0
01C0
01C0
01C0
01C0
01C0
01C0
01C0
01C0
01C0
FFC0
FFC0
FFC0
ENDCHAR
STARTCHAR 02FD
ENCODING 765
SWIDTH 337 0
DWIDTH 15 0
BBX 11 6 2 -7
BITMAP
C060
C060
C060
FFE0
FFE0
FFE0
ENDCHAR
STARTCHAR 02FE
ENCODING 766
SWIDTH 337 0
DWIDTH 15 0
BBX 11 6 2 -7
BITMAP
C000
C000
C000
FFE0
FFE0
FFE0
ENDCHAR
STARTCHAR 02FF
ENCODING 767
SWIDTH 472 0
DWIDTH 21 0
BBX 17 8 3 -8
BITMAP
080000
180000
700000
FFFF80
FFFF80
300000
180000
080000
ENDCHAR
STARTCHAR 0300
ENCODING 768
SWIDTH 0 0
DWIDTH 0 0
BBX 8 7 -5 22
BITMAP
F0
78
38
1C
0C
06
03
ENDCHAR
STARTCHAR 0301
ENCODING 769
SWIDTH 0 0
DWIDTH 0 0
BBX 8 7 -3 22
BITMAP
0F
1E
1C
38
30
60
C0
ENDCHAR
STARTCHAR 0302
ENCODING 770
SWIDTH 0 0
DWIDTH 0 0
BBX 10 7 -5 22
BITMAP
1E00
3F00
3F00
7380
6180
C0C0
8040
ENDCHAR
STARTCHAR 0303
ENCODING 771
SWIDTH 0 0
DWIDTH 0 0
BBX 16 5 -8 23
BITMAP
3C03
7F06
77C6
61FE
C07C
ENDCHAR
STARTCHAR 0304
ENCODING 772
SWIDTH 0 0
DWIDTH 0 0
BBX 10 3 -5 23
BITMAP
FFC0
FFC0
FFC0
ENDCHAR
STARTCHAR 0306
ENCODING 774
SWIDTH 0 0
DWIDTH 0 0
BBX 12 6 -6 23
BITMAP
E070
E070
E070
70E0
3FC0
1F80
ENDCHAR
STARTCHAR 0307
ENCODING 775
SWIDTH 0 0
DWIDTH 0 0
BBX 4 5 -2 23
BITMAP
60
F0
F0
F0
60
ENDCHAR
STARTCHAR 0308
ENCODING 776
SWIDTH 0 0
DWIDTH 0 0
BBX 12 5 -6 23
BITMAP
6060
F0F0
F9F0
F9F0
70E0
ENDCHAR
STARTCHAR 0309
ENCODING 777
SWIDTH 0 0
DWIDTH 0 0
BBX 8 9 -4 22
BITMAP
7E
C7
C3
C7
07
0E
0C
08
10
ENDCHAR
STARTCHAR 030A
ENCODING 778
SWIDTH 0 0
DWIDTH 0 0
BBX 8 7 -4 22
BITMAP
3C
7E
E7
C3
E7
7E
3C
ENDCHAR
STARTCHAR 030B
ENCODING 779
SWIDTH 0 0
DWIDTH 0 0
BBX 14 7 -5 22
BITMAP
1F3C
1E78
3C70
38E0
70C0
4180
8100
ENDCHAR
STARTCHAR 030C
ENCODING 780
SWIDTH 0 0
DWIDTH 0 0
BBX 10 7 -5 22
BITMAP
8040
C0C0
6180
7380
3F00
3F00
1E00
ENDCHAR
STARTCHAR 030D
ENCODING 781
SWIDTH 0 0
DWIDTH 0 0
BBX 2 11 -1 22
BITMAP
C0
C0
C0
C0
C0
C0
C0
C0
C0
C0
C0
ENDCHAR
STARTCHAR 030E
ENCODING 782
SWIDTH 0 0
DWIDTH 0 0
BBX 6 11 -3 22
BITMAP
CC
CC
CC
CC
CC
CC
CC
CC
CC
CC
CC
ENDCHAR
STARTCHAR 030F
ENCODING 783
SWIDTH 0 0
DWIDTH 0 0
BBX 14 7 -9 22
BITMAP
F3E0
79E0
38F0
1C70
0C18
0618
0204
ENDCHAR
STARTCHAR 0310
ENCODING 784
SWIDTH 0 0
DWIDTH 0 0
BBX 12 8 -6 23
BITMAP
0600
0F00
EF70
EF70
E670
70E0
3FC0
1F80
ENDCHAR
STARTCHAR 0311
ENCODING 785
SWIDTH 0 0
DWIDTH 0 0
BBX 12 6 -6 23
BITMAP
0600
3FC0
7FE0
70E0
E070
E070
ENDCHAR
STARTCHAR 0312
ENCODING 786
SWIDTH 0 0
DWIDTH 0 0
BBX 6 11 -3 22
BITMAP
0C
10
60
40
C0
C0
C0
F8
FC
FC
78
ENDCHAR
STARTCHAR 0313
ENCODING 787
SWIDTH 0 0
DWIDTH 0 0
BBX 5 9 -2 21
BITMAP
E0
F0
F0
78
10
10
30
60
80
ENDCHAR
STARTCHAR 0314
ENCODING 788
SWIDTH 0 0
DWIDTH 0 0
BBX 5 9 -3 21
BITMAP
38
78
78
F0
C0
40
60
30
08
ENDCHAR
STARTCHAR 0315
ENCODING 789
SWIDTH 0 0
DWIDTH 0 0
BBX 6 11 4 17
BITMAP
70
F8
FC
FC
6C
0C
0C
08
18
30
C0
ENDCHAR
STARTCHAR 0316
ENCODING 790
SWIDTH 0 0
DWIDTH 0 0
BBX 8 7 -5 -9
BITMAP
F8
78
3C
0C
06
02
01
ENDCHAR
STARTCHAR 0317
ENCODING 791
SWIDTH 0 0
DWIDTH 0 0
BBX 8 7 -3 -9
BITMAP
1F
1E
3C
38
60
40
80
ENDCHAR
STARTCHAR 0318
ENCODING 792
SWIDTH 0 0
DWIDTH 0 0
BBX 6 11 -5 -13
BITMAP
0C
0C
0C
0C
0C
FC
FC
0C
0C
0C
0C
ENDCHAR
STARTCHAR 0319
ENCODING 793
SWIDTH 0 0
DWIDTH 0 0
BBX 6 11 -1 -13
BITMAP
C0
C0
C0
C0
C0
FC
FC
C0
C0
C0
C0
ENDCHAR
STARTCHAR 031A
ENCODING 794
SWIDTH 0 0
DWIDTH 0 0
BBX 10 9 -5 22
BITMAP
FFC0
FFC0
00C0
00C0
00C0
00C0
00C0
00C0
00C0
ENDCHAR
STARTCHAR 031B
ENCODING 795
SWIDTH 0 0
DWIDTH 0 0
BBX 7 11 -3 12
BITMAP
78
7C
7C
7E
06
04
0C
0C
18
30
C0
ENDCHAR
STARTCHAR 031C
ENCODING 796
SWIDTH 0 0
DWIDTH 0 0
BBX 4 8 -2 -9
BITMAP
30
70
E0
C0
C0
F0
70
10
ENDCHAR
STARTCHAR 031D
ENCODING 797
SWIDTH 0 0
DWIDTH 0 0
BBX 10 7 -5 -9
BITMAP
0C00
0C00
0C00
0C00
0C00
FFC0
FFC0
ENDCHAR
STARTCHAR 031E
ENCODING 798
SWIDTH 0 0
DWIDTH 0 0
BBX 10 6 -5 -13
BITMAP
FFC0
FFC0
0C00
0C00
0C00
0C00
ENDCHAR
STARTCHAR 031F
ENCODING 799
SWIDTH 0 0
DWIDTH 0 0
BBX 10 11 -5 -13
BITMAP
0C00
0C00
0C00
0C00
0C00
FFC0
FFC0
0C00
0C00
0C00
0C00
ENDCHAR
STARTCHAR 0320
ENCODING 800
SWIDTH 0 0
DWIDTH 0 0
BBX 10 2 -5 -9
BITMAP
FFC0
FFC0
ENDCHAR
STARTCHAR 0321
ENCODING 801
SWIDTH 0 0
DWIDTH 0 0
BBX 10 15 -12 -9
BITMAP
01C0
01C0
01C0
01C0
01C0
01C0
01C0
01C0
01C0
01C0
03C0
0780
7F80
FF00
7C00
ENDCHAR
STARTCHAR 0322
ENCODING 802
SWIDTH 0 0
DWIDTH 0 0
BBX 10 15 -5 -9
BITMAP
E000
E000
E000
E000
E000
E000
E000
E000
E000
E000
E000
F100
7F80
3FC0
1F00
ENDCHAR
STARTCHAR 0323
ENCODING 803
SWIDTH 0 0
DWIDTH 0 0
BBX 4 5 -2 -8
BITMAP
60
F0
F0
F0
60
ENDCHAR
STARTCHAR 0324
ENCODING 804
SWIDTH 0 0
DWIDTH 0 0
BBX 12 4 -6 -7
BITMAP
F0F0
F9F0
F9F0
F0F0
ENDCHAR
STARTCHAR 0325
ENCODING 805
SWIDTH 0 0
DWIDTH 0 0
BBX 8 7 -4 -9
BITMAP
3C
7E
E7
C3
E7
7E
3C
ENDCHAR
STARTCHAR 0326
ENCODING 806
SWIDTH 0 0
DWIDTH 0 0
BBX 6 12 -3 -14
BITMAP
30
F8
FC
FC
7C
0C
0C
0C
18
30
60
80
ENDCHAR
STARTCHAR 0327
ENCODING 807
SWIDTH 0 0
DWIDTH 0 0
BBX 8 9 -4 -9
BITMAP
38
3C
3E
07
03
03
87
FE
FC
ENDCHAR
STARTCHAR 0328
ENCODING 808
SWIDTH 0 0
DWIDTH 0 0
BBX 10 9 -2 -8
BITMAP
2000
6000
6000
E000
E000
7000
7C40
3F80
1F00
ENDCHAR
STARTCHAR 0329
ENCODING 809
SWIDTH 0 0
DWIDTH 0 0
BBX 2 11 -1 -13
BITMAP
C0
C0
C0
C0
C0
C0
C0
C0
C0
C0
C0
ENDCHAR
STARTCHAR 032A
ENCODING 810
SWIDTH 0 0
DWIDTH 0 0
BBX 10 6 -5 -8
BITMAP
FFC0
FFC0
C0C0
C0C0
C0C0
C0C0
ENDCHAR
STARTCHAR 032B
ENCODING 811
SWIDTH 0 0
DWIDTH 0 0
BBX 14 7 -7 -9
BITMAP
4008
C30C
C30C
C30C
6798
7FF8
1860
ENDCHAR
STARTCHAR 032C
ENCODING 812
SWIDTH 0 0
DWIDTH 0 0
BBX 10 7 -5 -9
BITMAP
8040
C0C0
6180
7380
3F00
3F00
1E00
ENDCHAR
STARTCHAR 032D
ENCODING 813
SWIDTH 0 0
DWIDTH 0 0
BBX 10 7 -5 -9
BITMAP
1E00
3F00
3F00
7380
6180
C0C0
8040
ENDCHAR
STARTCHAR 032E
ENCODING 814
SWIDTH 0 0
DWIDTH 0 0
BBX 12 6 -6 -8
BITMAP
E070
E070
E070
79E0
3FC0
1F80
ENDCHAR
STARTCHAR 032F
ENCODING 815
SWIDTH 0 0
DWIDTH 0 0
BBX 12 6 -6 -8
BITMAP
0F00
3FC0
7FE0
70E0
E070
E070
ENDCHAR
STARTCHAR 0330
ENCODING 816
SWIDTH 0 0
DWIDTH 0 0
BBX 16 5 -8 -8
BITMAP
3E03
7F86
77E6
61FE
C07C
ENDCHAR
STARTCHAR 0331
ENCODING 817
SWIDTH 0 0
DWIDTH 0 0
BBX 10 4 -5 -7
BITMAP
FFC0
FFC0
FFC0
FFC0
ENDCHAR
STARTCHAR 0334
ENCODING 820
SWIDTH 0 0
DWIDTH 0 0
BBX 16 6 -8 7
BITMAP
0803
3F03
7F86
63FE
E0FC
C018
ENDCHAR
STARTCHAR 0335
ENCODING 821
SWIDTH 0 0
DWIDTH 0 0
BBX 10 4 -5 8
BITMAP
FFC0
FFC0
FFC0
FFC0
ENDCHAR
STARTCHAR 0336
ENCODING 822
SWIDTH 0 0
DWIDTH 0 0
BBX 30 4 -15 8
BITMAP
FFFFFFFC
FFFFFFFC
FFFFFFFC
FFFFFFFC
ENDCHAR
STARTCHAR 0337
ENCODING 823
SWIDTH 0 0
DWIDTH 0 0
BBX 18 24 -9 -2
BITMAP
0001C0
0003C0
0003C0
000780
000F00
000F00
001E00
003C00
007800
007800
00F000
01E000
01E000
03C000
078000
078000
0F0000
1E0000
3C0000
3C0000
780000
F00000
F00000
E00000
ENDCHAR
STARTCHAR 0338
ENCODING 824
SWIDTH 0 0
DWIDTH 0 0
BBX 24 32 -12 -6
BITMAP
000004
00000F
00001E
00001E
00003C
000078
000078
0000F0
0001E0
0001E0
0003C0
000780
000F00
000F00
001E00
003C00
003C00
007800
00F000
00F000
01E000
03C000
078000
078000
0F0000
1E0000
1E0000
3C0000
780000
780000
F00000
200000
ENDCHAR
STARTCHAR 0339
ENCODING 825
SWIDTH 0 0
DWIDTH 0 0
BBX 4 8 -2 -9
BITMAP
C0
E0
70
30
30
F0
E0
80
ENDCHAR
STARTCHAR 033A
ENCODING 826
SWIDTH 0 0
DWIDTH 0 0
BBX 10 6 -5 -8
BITMAP
C0C0
C0C0
C0C0
FFC0
FFC0
FFC0
ENDCHAR
STARTCHAR 033B
ENCODING 827
SWIDTH 0 0
DWIDTH 0 0
BBX 10 8 -5 -10
BITMAP
FFC0
FFC0
C0C0
C0C0
C0C0
C0C0
FFC0
FFC0
ENDCHAR
STARTCHAR 033C
ENCODING 828
SWIDTH 0 0
DWIDTH 0 0
BBX 16 6 -8 -8
BITMAP
1818
7E7E
7FFE
47E2
C1C3
0080
ENDCHAR
STARTCHAR 033D
ENCODING 829
SWIDTH 0 0
DWIDTH 0 0
BBX 10 9 -5 21
BITMAP
4080
E1C0
7380
3F00
1E00
1E00
3F00
7380
6180
ENDCHAR
STARTCHAR 033E
ENCODING 830
SWIDTH 0 0
DWIDTH 0 0
BBX 6 15 -3 22
BITMAP
3C
7C
E0
E0
E0
60
70
38
38
18
1C
1C
38
F8
E0
ENDCHAR
STARTCHAR 0340
ENCODING 832
SWIDTH 0 0
DWIDTH 0 0
BBX 8 7 -5 22
BITMAP
F0
78
38
1C
0C
06
03
ENDCHAR
STARTCHAR 0341
ENCODING 833
SWIDTH 0 0
DWIDTH 0 0
BBX 8 7 -3 22
BITMAP
0F
1E
1C
38
30
60
C0
ENDCHAR
STARTCHAR 0342
ENCODING 834
SWIDTH 0 0
DWIDTH 0 0
BBX 16 5 -8 23
BITMAP
3C03
7F06
77C6
61FE
C07C
ENDCHAR
STARTCHAR 0343
ENCODING 835
SWIDTH 0 0
DWIDTH 0 0
BBX 5 9 -2 21
BITMAP
E0
F0
F0
78
10
10
30
60
80
ENDCHAR
STARTCHAR 0344
ENCODING 836
SWIDTH 0 0
DWIDTH 0 0
BBX 12 9 -6 23
BITMAP
00F0
01E0
01C0
0380
63E0
F7F0
FDF0
F1F0
70E0
ENDCHAR
STARTCHAR 0345
ENCODING 837
SWIDTH 0 0
DWIDTH 0 0
BBX 7 9 -2 -11
BITMAP
F0
F0
F0
F0
F0
F0
FE
7E
3E
ENDCHAR
STARTCHAR 0346
ENCODING 838
SWIDTH 0 0
DWIDTH 0 0
BBX 10 6 -5 22
BITMAP
FFC0
FFC0
FFC0
C0C0
C0C0
C0C0
ENDCHAR
STARTCHAR 0347
ENCODING 839
SWIDTH 0 0
DWIDTH 0 0
BBX 10 7 -5 -11
BITMAP
FFC0
FFC0
FFC0
0000
0000
FFC0
FFC0
ENDCHAR
STARTCHAR 0348
ENCODING 840
SWIDTH 0 0
DWIDTH 0 0
BBX 6 11 -3 -13
BITMAP
CC
CC
CC
CC
CC
CC
CC
CC
CC
CC
CC
ENDCHAR
STARTCHAR 0349
ENCODING 841
SWIDTH 0 0
DWIDTH 0 0
BBX 10 9 -5 -11
BITMAP
FFC0
FFC0
00C0
00C0
00C0
00C0
00C0
00C0
00C0
ENDCHAR
STARTCHAR 034A
ENCODING 842
SWIDTH 0 0
DWIDTH 0 0
BBX 16 9 -8 23
BITMAP
0060
00E0
3EC3
7FC6
63E6
63FE
C37C
0600
0E00
ENDCHAR
STARTCHAR 034B
ENCODING 843
SWIDTH 0 0
DWIDTH 0 0
BBX 16 14 -8 21
BITMAP
0180
03C0
03C0
03C0
03C0
3E03
7F86
63EE
E0FE
C1B8
03C0
03C0
03C0
03C0
ENDCHAR
STARTCHAR 034C
ENCODING 844
SWIDTH 0 0
DWIDTH 0 0
BBX 16 10 -8 22
BITMAP
3E03
7F86
63EE
E0FE
C038
3C03
7F06
7FC6
61FE
C07C
ENDCHAR
STARTCHAR 034D
ENCODING 845
SWIDTH 0 0
DWIDTH 0 0
BBX 18 9 -9 -11
BITMAP
021000
040800
1C0E00
380700
FFFFC0
380700
1C0E00
040800
021000
ENDCHAR
STARTCHAR 034E
ENCODING 846
SWIDTH 0 0
DWIDTH 0 0
BBX 8 8 -4 -10
BITMAP
18
3C
3C
7E
DB
18
18
18
ENDCHAR
STARTCHAR 034F
ENCODING 847
SWIDTH 0 0
DWIDTH 0 0
BBX 0 0 0 0
BITMAP
ENDCHAR
STARTCHAR 0350
ENCODING 848
SWIDTH 0 0
DWIDTH 0 0
BBX 6 7 -3 23
BITMAP
C0
60
78
3C
78
60
C0
ENDCHAR
STARTCHAR 0351
ENCODING 849
SWIDTH 0 0
DWIDTH 0 0
BBX 4 7 -2 22
BITMAP
30
70
E0
C0
E0
70
70
ENDCHAR
STARTCHAR 0352
ENCODING 850
SWIDTH 0 0
DWIDTH 0 0
BBX 12 8 -6 23
BITMAP
1F80
3FC0
7FE0
E0F0
EF70
EF70
0F00
0F00
ENDCHAR
STARTCHAR 0353
ENCODING 851
SWIDTH 0 0
DWIDTH 0 0
BBX 10 9 -5 -12
BITMAP
4080
E1C0
7380
3F00
1E00
1E00
3F00
7380
6180
ENDCHAR
STARTCHAR 0354
ENCODING 852
SWIDTH 0 0
DWIDTH 0 0
BBX 6 7 -3 -10
BITMAP
0C
18
78
F0
78
18
0C
ENDCHAR
STARTCHAR 0355
ENCODING 853
SWIDTH 0 0
DWIDTH 0 0
BBX 6 7 -3 -10
BITMAP
C0
60
78
3C
78
60
C0
ENDCHAR
STARTCHAR 0356
ENCODING 854
SWIDTH 0 0
DWIDTH 0 0
BBX 15 8 -6 -11
BITMAP
0020
C060
6070
78F8
3DF8
790C
6202
C000
ENDCHAR
STARTCHAR 0357
ENCODING 855
SWIDTH 0 0
DWIDTH 0 0
BBX 3 7 -1 22
BITMAP
C0
E0
60
60
60
E0
C0
ENDCHAR
STARTCHAR 0358
ENCODING 856
SWIDTH 0 0
DWIDTH 0 0
BBX 5 5 3 23
BITMAP
30
78
F8
F8
70
ENDCHAR
STARTCHAR 0359
ENCODING 857
SWIDTH 0 0
DWIDTH 0 0
BBX 10 11 -5 -13
BITMAP
1E00
0C00
CC80
EDC0
FFC0
1E00
7F80
FFC0
CCC0
0C00
1E00
ENDCHAR
STARTCHAR 035A
ENCODING 858
SWIDTH 0 0
DWIDTH 0 0
BBX 12 7 -6 -9
BITMAP
39C0
7FE0
C630
C630
C630
7FE0
1080
ENDCHAR
STARTCHAR 035B
ENCODING 859
SWIDTH 0 0
DWIDTH 0 0
BBX 10 11 -5 23
BITMAP
0300
0700
0E00
1C00
3FC0
7F80
FF00
0E00
1C00
3800
3000
ENDCHAR
STARTCHAR 035C
ENCODING 860
SWIDTH 0 0
DWIDTH 0 0
BBX 38 7 -19 -16
BITMAP
8000000004
E00000001C
FE000000FC
FFF0003FFC
1FFFFFFFE0
03FFFFFF00
003FFFF000
ENDCHAR
STARTCHAR 035D
ENCODING 861
SWIDTH 0 0
DWIDTH 0 0
BBX 38 7 -19 29
BITMAP
C00000000C
F00000003C
FF000003FC
7FFE00FFF8
1FFFFFFFC0
01FFFFFE00
000FFFC000
ENDCHAR
STARTCHAR 035E
ENCODING 862
SWIDTH 0 0
DWIDTH 0 0
BBX 38 3 -19 31
BITMAP
FFFFFFFFFC
FFFFFFFFFC
FFFFFFFFFC
ENDCHAR
STARTCHAR 035F
ENCODING 863
SWIDTH 0 0
DWIDTH 0 0
BBX 38 3 -19 -14
BITMAP
FFFFFFFFFC
FFFFFFFFFC
FFFFFFFFFC
ENDCHAR
STARTCHAR 0360
ENCODING 864
SWIDTH 0 0
DWIDTH 0 0
BBX 38 8 -19 29
BITMAP
0080000000
1FFF000000
3FFFE0003C
7FFFFC003C
7807FFC078
F0007FFFF8
F0000FFFF0
000001FFC0
ENDCHAR
STARTCHAR 0361
ENCODING 865
SWIDTH 0 0
DWIDTH 0 0
BBX 38 7 -19 29
BITMAP
003FFFF000
03FFFFFF00
1FFFFFFFE0
FFF0003FFC
FE000001FC
E00000003C
8000000004
ENDCHAR
STARTCHAR 0362
ENCODING 866
SWIDTH 0 0
DWIDTH 0 0
BBX 37 9 -19 -17
BITMAP
0000000200
0000000180
00000001C0
FFFFFFFFF0
FFFFFFFFF8
FFFFFFFFF0
00000001E0
0000000180
0000000100
ENDCHAR
STARTCHAR 0363
ENCODING 867
SWIDTH 0 0
DWIDTH 0 0
BBX 8 10 -4 23
BITMAP
7E
7F
07
07
7F
7F
E7
E7
7F
3F
ENDCHAR
STARTCHAR 0364
ENCODING 868
SWIDTH 0 0
DWIDTH 0 0
BBX 10 11 -5 22
BITMAP
0C00
3F00
7F80
6180
FFC0
FFC0
E000
6100
7380
7F80
3F00
ENDCHAR
STARTCHAR 0365
ENCODING 869
SWIDTH 0 0
DWIDTH 0 0
BBX 2 14 -1 22
BITMAP
C0
C0
00
00
C0
C0
C0
C0
C0
C0
C0
C0
C0
C0
ENDCHAR
STARTCHAR 0366
ENCODING 870
SWIDTH 0 0
DWIDTH 0 0
BBX 10 11 -5 22
BITMAP
0C00
3F00
7F80
6180
E1C0
E1C0
E1C0
6180
7380
7F80
3F00
ENDCHAR
STARTCHAR 0367
ENCODING 871
SWIDTH 0 0
DWIDTH 0 0
BBX 10 10 -5 22
BITMAP
E1C0
E1C0
E1C0
E1C0
E1C0
E1C0
E1C0
63C0
7FC0
3FC0
ENDCHAR
STARTCHAR 0368
ENCODING 872
SWIDTH 0 0
DWIDTH 0 0
BBX 8 11 -4 22
BITMAP
18
7E
FF
E3
C2
C0
C0
C2
E3
7F
3E
ENDCHAR
STARTCHAR 0369
ENCODING 873
SWIDTH 0 0
DWIDTH 0 0
BBX 10 15 -5 22
BITMAP
01C0
01C0
01C0
01C0
0DC0
3FC0
7FC0
61C0
E1C0
E1C0
E1C0
61C0
73C0
7FC0
3FC0
ENDCHAR
STARTCHAR 036A
ENCODING 874
SWIDTH 0 0
DWIDTH 0 0
BBX 10 15 -5 22
BITMAP
E000
E000
E000
E000
EC00
FF00
FF80
F180
E1C0
E1C0
E1C0
E1C0
E1C0
E1C0
E1C0
ENDCHAR
STARTCHAR 036B
ENCODING 875
SWIDTH 0 0
DWIDTH 0 0
BBX 12 11 -6 22
BITMAP
1880
FFE0
FFE0
E730
C630
C630
C630
C630
C630
C630
C630
ENDCHAR
STARTCHAR 036C
ENCODING 876
SWIDTH 0 0
DWIDTH 0 0
BBX 6 11 -3 22
BITMAP
1C
FC
FC
E0
C0
C0
C0
C0
C0
C0
C0
ENDCHAR
STARTCHAR 036D
ENCODING 877
SWIDTH 0 0
DWIDTH 0 0
BBX 6 13 -3 22
BITMAP
10
30
30
FC
FC
30
30
30
30
30
30
3C
3C
ENDCHAR
STARTCHAR 036E
ENCODING 878
SWIDTH 0 0
DWIDTH 0 0
BBX 10 10 -5 22
BITMAP
E1C0
6180
7380
7380
3300
3F00
1E00
1E00
1E00
0C00
ENDCHAR
STARTCHAR 036F
ENCODING 879
SWIDTH 0 0
DWIDTH 0 0
BBX 10 10 -5 22
BITMAP
E1C0
7380
3F00
1E00
1E00
1E00
3F00
3F00
7380
E1C0
ENDCHAR
STARTCHAR 0370
ENCODING 880
SWIDTH 427 0
DWIDTH 19 0
BBX 15 29 2 0
BITMAP
E000
E000
E000
E000
E000
E000
E000
E000
E000
E000
E000
E000
E000
FFFE
FFFE
FFFE
E000
E000
E000
E000
E000
E000
E000
E000
E000
E000
E000
E000
E000
ENDCHAR
STARTCHAR 0371
ENCODING 881
SWIDTH 405 0
DWIDTH 18 0
BBX 14 20 2 0
BITMAP
F800
FC00
FE00
1E00
1E00
1E00
1E00
1E00
1FFC
1FFC
1FFC
1FFC
1E00
1E00
1E00
1E00
1E00
1E00
1E00
1E00
ENDCHAR
STARTCHAR 0372
ENCODING 882
SWIDTH 630 0
DWIDTH 28 0
BBX 25 29 2 0
BITMAP
FFFFFF80
FFFFFF80
FFFFFF80
FFFFFF80
E01C0780
E01C0780
E01C0780
E01C0780
E01C0780
E01C0780
E01C0780
E01C0780
E01C0780
E01C0780
E01C0780
E01C0780
001C0000
001C0000
001C0000
001C0000
001C0000
001C0000
001C0000
001C0000
001C0000
001C0000
001C0000
001C0000
001C0000
ENDCHAR
ENDFONT
